<?xml version="1.0" standalone="no"?>
<!DOCTYPE svg PUBLIC "-//W3C//DTD SVG 1.1//EN" "http://www.w3.org/Graphics/SVG/1.1/DTD/svg11.dtd" >
<svg xmlns="http://www.w3.org/2000/svg" xmlns:xlink="http://www.w3.org/1999/xlink" version="1.1">
<metadata>
Created by FontForge 20170731 at Tue Oct 17 14:53:20 2006
 By ,,,
(c) 2000, 2004 Adobe Systems Incorporated. All Rights Reserved. U.S. Patent D454,582.
</metadata>
<defs>
<font id="MyriadPro-BoldSemiCn" horiz-adv-x="300" >
  <font-face 
    font-family="Myriad Pro SemiCond"
    font-weight="700"
    font-stretch="semi-condensed"
    units-per-em="1000"
    panose-1="2 11 7 3 3 4 3 2 2 4"
    ascent="750"
    descent="-250"
    x-height="489"
    cap-height="674"
    bbox="-159 -250 1161 980"
    underline-thickness="50"
    underline-position="-200"
    unicode-range="U+0020-FB04"
  />
<missing-glyph horiz-adv-x="500" 
d="M0 0v700h500v-700h-500zM250 395l170 255h-340zM280 350l170 -255v510zM80 50h340l-170 255zM50 605v-510l170 255z" />
    <glyph glyph-name="f_f_j" unicode="ffj" horiz-adv-x="844" 
d="M744 690l-28 -110q-44 19 -97 19q-103 0 -103 -92v-18h281v-437q0 -148 -68 -208q-60 -54 -175 -54l-13 114q58 5 82 30q28 29 28 151v298h-135v-383h-146v383h-148v-383h-147v383h-65v106h65v9q0 101 66 157q51 46 135 46q41 0 82 -15l-34 -106q-20 9 -40 9
q-26 0 -43 -17q-20 -20 -20 -69v-14h149v23q0 88 64.5 145.5t179.5 57.5q80 0 130 -25z" />
    <glyph glyph-name="f_j" unicode="fj" horiz-adv-x="557" 
d="M222 0h-147v383h-65v106h65v23q0 88 65 145.5t180 57.5q87 0 135 -28l-26 -111q-44 23 -105 23q-103 0 -103 -92v-18h281v-437q0 -148 -68 -208q-60 -54 -175 -54l-13 114q58 5 82 30q28 29 28 151v298h-134v-383z" />
    <glyph glyph-name="f_f" unicode="ff" horiz-adv-x="614" 
d="M511 0h-146v383h-143v-383h-147v383h-65v106h65v9q0 97 54 152q51 51 143 51q34 0 62 -11l-21 -109q-19 7 -36 7q-56 0 -56 -84v-15h144v19q0 104 58 159q51 48 130 48q43 0 80 -11l-8 -112q-23 7 -47 7q-34 0 -51 -24t-17 -61v-25h94v-106h-93v-383z" />
    <glyph glyph-name="f_i" unicode="fi" horiz-adv-x="558" 
d="M222 0h-147v383h-65v106h65v23q0 88 65 145.5t180 57.5q87 0 135 -28l-26 -111q-44 23 -105 23q-103 0 -103 -92v-18h281v-489h-146v383h-134v-383z" />
    <glyph glyph-name="f_l" unicode="fl" horiz-adv-x="558" 
d="M222 0h-147v383h-65v106h65v21q0 39 18.5 81t52.5 70q66 54 177 54q107 0 179 -37v-678h-146v596q-20 9 -53 9q-41 0 -61.5 -26.5t-20.5 -68.5v-21h83v-106h-82v-383z" />
    <glyph glyph-name="f_f_i" unicode="ffi" horiz-adv-x="853" 
d="M744 690l-28 -110q-44 19 -97 19q-103 0 -103 -92v-18h281v-489h-146v383h-135v-383h-146v383h-148v-383h-147v383h-65v106h65v9q0 101 66 157q51 46 135 46q41 0 82 -15l-34 -106q-20 9 -40 9q-26 0 -43 -17q-20 -20 -20 -69v-14h149v23q0 88 64.5 145.5t179.5 57.5
q80 0 130 -25z" />
    <glyph glyph-name="f_f_l" unicode="ffl" horiz-adv-x="853" 
d="M359 688l-32 -107q-19 8 -42 8q-28 0 -43 -18q-21 -20 -21 -68v-14h149v21q0 39 18.5 81t52.5 70q66 54 177 54q107 0 179 -37v-678h-146v596q-20 9 -53 9q-41 0 -61.5 -26.5t-20.5 -68.5v-21h83v-106h-83v-383h-146v383h-148v-383h-147v383h-65v106h65v7q0 103 65 157
q56 48 143 48q41 0 76 -13z" />
    <glyph glyph-name=".notdef" horiz-adv-x="500" 
d="M0 0v700h500v-700h-500zM250 395l170 255h-340zM280 350l170 -255v510zM80 50h340l-170 255zM50 605v-510l170 255z" />
    <glyph glyph-name=".null" horiz-adv-x="0" 
 />
    <glyph glyph-name="nonmarkingreturn" horiz-adv-x="333" 
 />
    <glyph glyph-name="space" unicode=" " horiz-adv-x="189" 
 />
    <glyph glyph-name="exclam" unicode="!" horiz-adv-x="258" 
d="M186 220h-114l-20 454h154zM129 -10h-1q-37 0 -60.5 24.5t-23.5 62.5q0 39 24 64t61 25t60.5 -24.5t24.5 -64.5q0 -38 -23.5 -62.5t-61.5 -24.5z" />
    <glyph glyph-name="quotedbl" unicode="&#x22;" horiz-adv-x="377" 
d="M35 690h126l-23 -268h-81zM217 690h126l-22 -268h-82z" />
    <glyph glyph-name="numbersign" unicode="#" horiz-adv-x="513" 
d="M207 271h86l15 113h-85zM169 0h-86l26 184h-79v87h93l15 113h-81v87h94l25 179h84l-25 -179h86l25 179h84l-25 -179h78v-87h-91l-15 -113h80v-87h-94l-24 -184h-86l26 184h-85z" />
    <glyph glyph-name="dollar" unicode="$" horiz-adv-x="516" 
d="M300 -86h-94v97q-88 3 -151 38l27 112q71 -39 147 -39q41 0 65.5 17t24.5 46t-23 50t-75 42q-80 33 -120.5 74.5t-40.5 105.5t40.5 111t113.5 63v97h94v-89q74 -3 131 -31l-27 -109q-68 31 -127 31q-41 0 -61 -16.5t-20 -41.5q0 -24 23.5 -43t84.5 -45q81 -33 116 -77
t35 -108q0 -68 -43 -117t-120 -64v-104z" />
    <glyph glyph-name="percent" unicode="%" horiz-adv-x="813" 
d="M191 660h1q77 0 118.5 -55.5t41.5 -138.5q0 -98 -48 -152t-117 -54q-72 0 -117 55t-46 142q0 87 45.5 145t121.5 58zM189 581h-1q-29 0 -43.5 -33t-14.5 -88q-1 -56 14.5 -88.5t45.5 -32.5q57 0 57 121t-58 121zM261 -11h-77l366 671h78zM627 392h1q77 0 118.5 -55.5
t41.5 -139.5q0 -97 -48 -151t-116 -54q-72 0 -117.5 55t-45.5 141q0 87 45.5 145.5t120.5 58.5zM625 313h-1q-29 0 -43.5 -33t-14.5 -88q-1 -56 15 -88.5t45 -32.5q57 0 57 121t-58 121z" />
    <glyph glyph-name="ampersand" unicode="&#x26;" horiz-adv-x="633" 
d="M628 0h-166q-18 18 -41 47q-70 -57 -173 -57q-106 0 -163.5 55.5t-57.5 134.5q0 123 122 191v3q-51 61 -51 135q0 70 51.5 122.5t141.5 52.5q75 0 123.5 -43t48.5 -113q0 -104 -128 -176l-1 -4q13 -15 35.5 -43.5t41 -50.5t32.5 -37q37 60 49 162h128q-25 -162 -104 -250
q7 -8 47.5 -55t64.5 -74zM270 96h1q51 0 85 34q-37 39 -143 166q-49 -39 -49 -93q0 -45 29.5 -76t76.5 -31zM285 591h-1q-26 0 -41 -20.5t-15 -49.5q0 -49 42 -98q69 48 69 101q0 27 -13.5 47t-40.5 20z" />
    <glyph glyph-name="quotesingle" unicode="'" horiz-adv-x="195" 
d="M35 690h126l-23 -268h-81z" />
    <glyph glyph-name="parenleft" unicode="(" horiz-adv-x="297" 
d="M166 691h102q-102 -163 -102 -405q0 -233 102 -404h-102q-115 163 -115 404q3 248 115 405z" />
    <glyph glyph-name="parenright" unicode=")" horiz-adv-x="297" 
d="M132 -118h-103q103 168 103 406q0 237 -103 403h103q114 -158 114 -403q-2 -243 -114 -406z" />
    <glyph glyph-name="asterisk" unicode="*" horiz-adv-x="433" 
d="M273 684l85 -49l-104 -124v-2l154 30v-98l-155 27l-1 -3l106 -120l-87 -50l-56 151l-2 -2l-57 -150l-83 50l105 124l-1 1l-152 -28v98l150 -30l1 2l-103 123l87 50l55 -150h2z" />
    <glyph glyph-name="plus" unicode="+" horiz-adv-x="596" 
d="M251 532h94v-220h211v-90h-211v-222h-94v222h-211v90h211v220z" />
    <glyph glyph-name="comma" unicode="," horiz-adv-x="252" 
d="M100 -112l-96 -9q51 143 71 279l148 10q-53 -166 -123 -280z" />
    <glyph glyph-name="hyphen" unicode="-" horiz-adv-x="303" 
d="M30 316h243v-99h-243v99z" />
    <glyph glyph-name="period" unicode="." horiz-adv-x="252" 
d="M135 -10h-1q-37 0 -61 25t-24 65t24.5 66t61.5 26q38 0 61.5 -25t24.5 -67q0 -40 -24 -65t-62 -25z" />
    <glyph glyph-name="slash" unicode="/" horiz-adv-x="316" 
d="M101 -40h-96l220 724h96z" />
    <glyph glyph-name="zero" unicode="0" horiz-adv-x="516" 
d="M261 660q60 0 105 -27.5t71 -75t38 -105t12 -124.5q0 -159 -60 -248.5t-170 -89.5q-114 0 -170.5 94t-56.5 239q0 149 59 243t172 94zM260 546q-85 0 -84 -222q-1 -220 84 -220q81 0 81 222q0 220 -81 220z" />
    <glyph glyph-name="one" unicode="1" horiz-adv-x="516" 
d="M219 0v518h-2l-120 -58l-24 111l165 79h123v-650h-142z" />
    <glyph glyph-name="two" unicode="2" horiz-adv-x="516" 
d="M466 0h-429v91l78 78q104 100 149 161.5t46 118.5q0 41 -25.5 67t-74.5 26q-60 0 -126 -47l-37 106q79 59 192 59q105 0 160.5 -56t55.5 -143q0 -77 -43.5 -144.5t-123.5 -143.5l-53 -49v-2h231v-122z" />
    <glyph glyph-name="three" unicode="3" horiz-adv-x="516" 
d="M34 30l27 111q67 -35 135 -35q54 0 83.5 25t29.5 64q0 47 -37 71.5t-91 24.5h-49v106h45q44 0 79 19t35 58q0 32 -23.5 51t-66.5 19q-64 0 -119 -35l-28 106q29 19 78.5 32t102.5 13q95 0 149 -46t54 -115q0 -106 -111 -149v-2q57 -13 94.5 -55.5t37.5 -104.5
q0 -85 -68.5 -141.5t-183.5 -56.5q-106 0 -173 40z" />
    <glyph glyph-name="four" unicode="4" horiz-adv-x="516" 
d="M423 0h-135v155h-268v96l235 399h168v-384h74v-111h-74v-155zM152 266h136v141q0 17 5 117h-3q-28 -60 -56 -115l-82 -141v-2z" />
    <glyph glyph-name="five" unicode="5" horiz-adv-x="516" 
d="M443 650v-122h-229l-14 -104q12 1 35 1q96 0 157 -47q72 -54 72 -160q0 -95 -71.5 -161.5t-191.5 -66.5q-101 0 -163 34l25 111q58 -30 130 -30q51 0 87 27t36 76q0 110 -170 110q-38 0 -75 -5l40 337h332z" />
    <glyph glyph-name="six" unicode="6" horiz-adv-x="516" 
d="M426 658v-113q-28 0 -57 -4q-160 -17 -192 -160h3q48 51 126 51q80 0 132.5 -56.5t52.5 -152.5t-61.5 -164.5t-161.5 -68.5q-115 0 -177.5 78t-62.5 201q0 186 113 294q86 82 223 93q37 4 62 2zM266 97h1q37 0 57.5 33.5t20.5 87.5q-1 47 -23 78.5t-63 31.5
q-26 0 -47 -14.5t-32 -38.5q-7 -14 -7 -44q2 -59 26 -96.5t67 -37.5z" />
    <glyph glyph-name="seven" unicode="7" horiz-adv-x="516" 
d="M46 650h428v-93l-249 -557h-151l247 526v2h-275v122z" />
    <glyph glyph-name="eight" unicode="8" horiz-adv-x="516" 
d="M139 336v2q-90 50 -90 143q0 80 61.5 129.5t154.5 49.5q95 0 148 -48.5t53 -116.5q0 -94 -92 -143v-3q50 -22 82 -64t32 -100q0 -89 -65 -142t-169 -53q-106 0 -165.5 52.5t-59.5 127.5q0 113 110 166zM260 90q37 0 59 24.5t22 61.5q0 80 -94 110q-72 -26 -72 -101
q0 -39 23.5 -67t61.5 -28zM258 562q-34 0 -52.5 -22t-18.5 -54q-1 -62 83 -92q26 9 43 33t17 53q0 34 -18 58t-54 24z" />
    <glyph glyph-name="nine" unicode="9" horiz-adv-x="516" 
d="M85 -8v115q32 -2 64 2q66 5 113 40q59 44 76 123l-3 1q-42 -45 -119 -45q-79 0 -133 55t-54 145q0 95 64 163.5t165 68.5q110 0 168.5 -77.5t58.5 -198.5q0 -196 -111 -304q-85 -79 -223 -88q-26 -2 -66 0zM253 554h-1q-35 0 -57.5 -32t-21.5 -84q1 -46 22.5 -77
t60.5 -31q51 0 74 40q7 14 7 48q0 60 -21 98t-63 38z" />
    <glyph glyph-name="colon" unicode=":" horiz-adv-x="252" 
d="M135 314h-1q-37 0 -60.5 25.5t-22.5 63.5q0 38 23.5 63.5t60.5 25.5t60.5 -24.5t24.5 -64.5q0 -39 -23.5 -64t-61.5 -25zM135 -10h-1q-37 0 -60.5 25t-22.5 64q0 38 23.5 63.5t60.5 25.5t60.5 -24.5t24.5 -64.5q0 -39 -23.5 -64t-61.5 -25z" />
    <glyph glyph-name="semicolon" unicode=";" horiz-adv-x="252" 
d="M99 -112l-95 -9q50 140 72 279l146 10q-56 -172 -123 -280zM140 314h-1q-36 0 -59.5 25.5t-23.5 63.5t23.5 63.5t60.5 25.5t60.5 -24.5t24.5 -64.5q0 -39 -23.5 -64t-61.5 -25z" />
    <glyph glyph-name="less" unicode="&#x3c;" horiz-adv-x="596" 
d="M58 227v78l480 227v-105l-360 -160v-2l360 -160v-105z" />
    <glyph glyph-name="equal" unicode="=" horiz-adv-x="596" 
d="M556 323h-516v90h516v-90zM556 122h-516v90h516v-90z" />
    <glyph glyph-name="greater" unicode="&#x3e;" horiz-adv-x="596" 
d="M538 312v-92l-480 -220v104l375 161v2l-375 161v104z" />
    <glyph glyph-name="question" unicode="?" horiz-adv-x="412" 
d="M249 217h-126l-1 23q-6 80 57 161q53 68 53 106q0 28 -18 44t-52 17q-52 0 -89 -26l-30 106q59 38 152 38t139 -45t46 -110q0 -35 -15 -69.5t-28 -52.5t-39 -49q-49 -59 -49 -124v-19zM184 -10h-1q-37 0 -60.5 24.5t-23.5 62.5q0 39 24.5 64t60.5 25q38 0 61.5 -24.5
t23.5 -64.5q0 -38 -23.5 -62.5t-61.5 -24.5z" />
    <glyph glyph-name="at" unicode="@" horiz-adv-x="725" 
d="M414 245l17 105q-12 5 -29 5q-45 0 -79 -45t-34 -108q0 -60 45 -60q27 0 50.5 30.5t29.5 72.5zM498 -13l16 -52q-77 -38 -175 -38q-122 0 -208 84.5t-86 226.5q0 158 100.5 271.5t258.5 113.5q126 0 204 -80t78 -201q0 -114 -50.5 -180.5t-129.5 -66.5q-77 0 -82 79h-3
q-45 -79 -123 -79q-46 0 -75 34.5t-29 92.5q0 96 62.5 166t163.5 70q69 0 111 -23l-31 -185q-16 -91 26 -92q35 -1 63.5 46.5t28.5 131.5q0 102 -58.5 166t-166.5 64q-114 0 -196 -89t-82 -232q0 -123 67 -191.5t175 -68.5q79 0 141 32z" />
    <glyph glyph-name="A" unicode="A" horiz-adv-x="597" 
d="M377 167h-172l-42 -167h-148l187 674h187l186 -674h-153zM225 277h133l-36 143q-5 21 -15.5 69.5t-15.5 67.5h-2q-2 -11 -12.5 -62.5t-16.5 -74.5z" />
    <glyph glyph-name="B" unicode="B" horiz-adv-x="568" 
d="M64 3v662q70 14 182 14q130 0 191 -41q71 -44 71 -130q0 -47 -26.5 -85.5t-79.5 -58.5v-3q59 -16 94 -59.5t35 -104.5q0 -85 -63 -140q-73 -64 -252 -64q-86 0 -152 10zM209 567v-163h43q52 0 81.5 23.5t29.5 63.5q0 38 -25.5 59.5t-73.5 21.5q-37 0 -55 -5zM209 298
v-193q12 -2 49 -2q53 0 87 24t34 74q0 48 -35 72.5t-90 24.5h-45z" />
    <glyph glyph-name="C" unicode="C" horiz-adv-x="535" 
d="M487 133l20 -117q-52 -25 -151 -25q-156 0 -240 93t-84 243q0 170 97 263t242 93q98 0 144 -26l-29 -118q-48 22 -108 22q-84 0 -138 -57.5t-54 -167.5q0 -106 51.5 -163.5t141.5 -57.5q65 0 108 18z" />
    <glyph glyph-name="D" unicode="D" horiz-adv-x="635" 
d="M64 3v662q86 14 184 14q162 0 249 -69q106 -84 106 -259q0 -186 -106 -277q-95 -81 -280 -81q-85 0 -153 10zM210 560v-448q11 -3 44 -3q90 -1 142.5 58.5t52.5 181.5q1 103 -47.5 159.5t-135.5 56.5q-38 0 -56 -5z" />
    <glyph glyph-name="E" unicode="E" horiz-adv-x="492" 
d="M430 408v-120h-220v-166h246v-122h-392v674h378v-122h-232v-144h220z" />
    <glyph glyph-name="F" unicode="F" horiz-adv-x="487" 
d="M64 0v674h376v-122h-230v-160h215v-119h-215v-273h-146z" />
    <glyph glyph-name="G" unicode="G" horiz-adv-x="619" 
d="M570 384v-357q-95 -34 -199 -34q-160 0 -246 84q-95 90 -93 253q1 167 101 259t254 92q104 0 164 -29l-29 -120q-53 25 -133 25q-91 0 -147.5 -56t-56.5 -168q0 -106 51.5 -163t134.5 -57q44 0 60 8v147h-91v116h230z" />
    <glyph glyph-name="H" unicode="H" horiz-adv-x="637" 
d="M64 674h146v-263h217v263h146v-674h-146v282h-217v-282h-146v674z" />
    <glyph glyph-name="I" unicode="I" horiz-adv-x="274" 
d="M64 674h146v-674h-146v674z" />
    <glyph glyph-name="J" unicode="J" horiz-adv-x="376" 
d="M173 237v437h146v-436q0 -136 -58.5 -192t-166.5 -56q-58 0 -97 14l15 119q30 -10 67 -10q46 0 70 27t24 97z" />
    <glyph glyph-name="K" unicode="K" horiz-adv-x="568" 
d="M64 0v674h145v-300h2q24 47 43 78l133 222h175l-202 -289l211 -385h-168l-145 287l-49 -66v-221h-145z" />
    <glyph glyph-name="L" unicode="L" horiz-adv-x="471" 
d="M64 0v674h146v-551h239v-123h-385z" />
    <glyph glyph-name="M" unicode="M" horiz-adv-x="783" 
d="M597 0l-11 251q-6 154 -6 262h-3q-25 -115 -65 -246l-75 -256h-111l-68 253q-33 127 -55 249h-2q-5 -147 -11 -264l-12 -249h-132l44 674h184l62 -231q34 -129 55 -239h3q20 102 57 240l66 230h181l38 -674h-139z" />
    <glyph glyph-name="N" unicode="N" horiz-adv-x="638" 
d="M196 0h-132v674h160l129 -252q51 -95 99 -221h2q-12 126 -12 291v182h132v-674h-148l-131 259q-63 121 -103 227h-3q7 -116 7 -299v-187z" />
    <glyph glyph-name="O" unicode="O" horiz-adv-x="646" 
d="M328 684q93 0 159.5 -48.5t97 -123.5t30.5 -167q0 -170 -81 -262.5t-216 -92.5t-210.5 97.5t-75.5 246.5q0 151 80.5 250.5t215.5 99.5zM324 565q-65 0 -101.5 -63t-36.5 -166q0 -104 37 -165.5t102 -61.5q64 0 100 64t36 167q0 96 -36 160.5t-101 64.5z" />
    <glyph glyph-name="P" unicode="P" horiz-adv-x="544" 
d="M64 0v665q77 14 185 14q133 0 199 -54q68 -55 68 -154q0 -102 -61 -160q-72 -69 -202 -69q-20 0 -44 2v-244h-145zM209 561v-202q11 -3 42 -3q57 0 88.5 29t31.5 80q0 47 -28 74t-81 27q-36 0 -53 -5z" />
    <glyph glyph-name="Q" unicode="Q" horiz-adv-x="646" 
d="M626 -2l-44 -112q-101 31 -239 92q-21 10 -42 12q-116 6 -192.5 95.5t-76.5 247.5q0 151 80.5 251t217.5 100q70 0 125.5 -28t89.5 -75.5t52 -107.5t18 -127q0 -114 -39.5 -193t-102.5 -109v-4q61 -20 153 -42zM324 109h1q64 0 100 64t36 167q0 98 -35.5 161.5
t-100.5 63.5t-102.5 -64.5t-36.5 -163.5q-1 -101 36 -164.5t102 -63.5z" />
    <glyph glyph-name="R" unicode="R" horiz-adv-x="556" 
d="M64 0v665q81 14 185 14q142 0 206 -53q60 -48 60 -141q0 -58 -33 -102.5t-82 -63.5v-3q63 -25 88 -128q39 -163 51 -188h-150q-16 30 -43 158q-12 61 -34 84t-66 24h-37v-266h-145zM209 564v-191h49q52 0 81.5 27.5t29.5 72.5t-26.5 70t-76.5 25q-39 0 -57 -4z" />
    <glyph glyph-name="S" unicode="S" horiz-adv-x="496" 
d="M36 28l27 122q70 -37 151 -37q50 0 76.5 20t26.5 54q0 32 -24 53.5t-81 45.5q-168 71 -168 196q0 87 65 144t177 57q90 0 152 -31l-30 -119q-58 29 -124 29q-45 0 -69 -19t-24 -47q0 -31 24 -50t91 -48q158 -69 158 -199q0 -91 -67 -149.5t-189 -58.5q-50 0 -98 11
t-74 26z" />
    <glyph glyph-name="T" unicode="T" horiz-adv-x="501" 
d="M177 0v548h-163v126h474v-126h-165v-548h-146z" />
    <glyph glyph-name="U" unicode="U" horiz-adv-x="627" 
d="M62 674h146v-403q0 -162 105 -162q106 0 106 162v403h146v-389q0 -147 -66 -221t-190 -74q-247 0 -247 296v388z" />
    <glyph glyph-name="V" unicode="V" horiz-adv-x="581" 
d="M372 0h-169l-196 674h160l72 -287q34 -133 52 -238h3q16 90 52 237l74 288h157z" />
    <glyph glyph-name="W" unicode="W" horiz-adv-x="825" 
d="M317 0h-156l-146 674h155l45 -275q14 -87 35 -236h2q8 63 42 238l55 273h145l51 -279q20 -110 35 -229h2q11 89 35 235l48 273h147l-157 -674h-156l-52 269q-18 92 -32 212h-2q-18 -129 -38 -212z" />
    <glyph glyph-name="X" unicode="X" horiz-adv-x="551" 
d="M541 0h-164l-55 123q-18 38 -53 120h-2q-14 -42 -46 -121l-50 -122h-160l174 342l-168 332h163l54 -123q23 -55 44 -111h2q27 75 41 111l50 123h161l-171 -331z" />
    <glyph glyph-name="Y" unicode="Y" horiz-adv-x="542" 
d="M341 0h-146v271l-193 403h164l61 -162q26 -65 47 -133h2q16 53 46 134l59 161h161l-201 -398v-276z" />
    <glyph glyph-name="Z" unicode="Z" horiz-adv-x="520" 
d="M20 0v81l288 467v3h-262v123h445v-91l-281 -457v-3h284v-123h-474z" />
    <glyph glyph-name="bracketleft" unicode="[" horiz-adv-x="297" 
d="M261 -112h-198v798h198v-84h-92v-630h92v-84z" />
    <glyph glyph-name="backslash" unicode="\" horiz-adv-x="301" 
d="M297 -40h-97l-197 724h96z" />
    <glyph glyph-name="bracketright" unicode="]" horiz-adv-x="297" 
d="M36 686h199v-798h-199v84h92v630h-92v84z" />
    <glyph glyph-name="asciicircum" unicode="^" horiz-adv-x="596" 
d="M553 177h-106l-148 358h-4l-148 -358h-104l210 473h90z" />
    <glyph glyph-name="underscore" unicode="_" horiz-adv-x="500" 
d="M0 -75h500v-50h-500v50z" />
    <glyph glyph-name="grave" unicode="`" 
d="M11 698h133l81 -148h-98z" />
    <glyph glyph-name="a" unicode="a" horiz-adv-x="496" 
d="M441 291v-174q0 -76 7 -117h-131l-8 49h-3q-47 -59 -131 -59q-66 0 -107.5 43.5t-41.5 105.5q0 92 73.5 139t194.5 47v8q0 64 -83 64q-69 0 -124 -34l-27 95q75 42 179 42q202 0 202 -209zM299 170v63q-131 2 -131 -79q0 -30 16 -45t41 -15q24 0 44 14.5t27 37.5
q3 11 3 24z" />
    <glyph glyph-name="b" unicode="b" horiz-adv-x="552" 
d="M56 146v559h146v-271h2q45 66 134 66q83 0 133.5 -68t49.5 -177q0 -125 -60 -195t-145 -70q-87 0 -131 75h-2l-7 -65h-124q4 72 4 146zM202 289v-91q0 -16 3 -28q8 -29 29 -46.5t47 -17.5q44 0 68.5 37t24.5 104q0 62 -23.5 99.5t-69.5 37.5q-26 0 -47.5 -19t-27.5 -47
q-4 -11 -4 -29z" />
    <glyph glyph-name="c" unicode="c" horiz-adv-x="412" 
d="M379 120l16 -109q-42 -20 -121 -20q-112 0 -177 66.5t-65 182.5q0 113 70 186t193 73q60 0 103 -18l-22 -110q-32 14 -74 14q-56 0 -89.5 -39t-32.5 -101q0 -65 34.5 -102t88.5 -37q39 0 76 14z" />
    <glyph glyph-name="d" unicode="d" horiz-adv-x="551" 
d="M349 705h146v-559q0 -74 4 -146h-129l-6 67h-3q-20 -36 -57 -56.5t-80 -20.5q-85 0 -138.5 70.5t-53.5 180.5q-1 119 57.5 189t142.5 70q83 0 115 -54h2v259zM349 204v84q0 19 -2 27q-6 30 -26 50t-50 20q-44 0 -68 -40t-24 -101q0 -64 24.5 -100.5t66.5 -36.5
q27 0 47.5 17.5t27.5 46.5q4 12 4 33z" />
    <glyph glyph-name="e" unicode="e" horiz-adv-x="495" 
d="M461 196h-290q3 -48 38.5 -72t89.5 -24q65 0 122 19l20 -100q-72 -28 -165 -28q-116 0 -180 65.5t-64 180.5q0 109 61.5 186t169.5 77q101 0 152 -68t51 -173q0 -41 -5 -63zM171 297h160q1 40 -17 71.5t-59 31.5q-39 0 -60 -32t-24 -71z" />
    <glyph glyph-name="f" unicode="f" horiz-adv-x="325" 
d="M222 0h-147v383h-65v106h65v19q0 103 59 159q49 48 130 48q42 0 80 -11l-9 -112q-21 7 -47 7q-34 0 -50.5 -24t-16.5 -61v-25h94v-106h-93v-383z" />
    <glyph glyph-name="g" unicode="g" horiz-adv-x="543" 
d="M488 341v-275q0 -150 -70 -214q-66 -58 -187 -58q-99 0 -160 33l29 111q58 -32 127 -32q54 0 85 31.5t31 94.5v31h-2q-39 -59 -118 -59q-87 0 -139 68t-52 170q0 116 59 187t146 71q80 0 121 -66h2l5 55h127q-4 -70 -4 -148zM342 206v90q0 13 -4 31q-7 26 -25.5 42.5
t-44.5 16.5q-40 0 -64.5 -38.5t-24.5 -102.5q0 -59 23.5 -95.5t64.5 -36.5q25 0 43.5 14.5t26.5 39.5q5 14 5 39z" />
    <glyph glyph-name="h" unicode="h" horiz-adv-x="547" 
d="M56 0v705h146v-272h2q23 30 55 48q35 19 75 19q73 0 115.5 -54t42.5 -157v-289h-147v277q0 103 -69 103q-50 0 -69 -51q-5 -15 -5 -35v-294h-146z" />
    <glyph glyph-name="i" unicode="i" horiz-adv-x="259" 
d="M202 0h-146v489h146v-489zM129 698q34 0 55 -21t21 -54q1 -32 -20.5 -53t-57.5 -21q-33 0 -54 21t-20 53q-1 33 20.5 54t55.5 21z" />
    <glyph glyph-name="j" unicode="j" horiz-adv-x="271" 
d="M-26 -210l-13 114q58 5 82 30q28 29 28 151v404h146v-437q0 -146 -68 -208q-60 -54 -175 -54zM143 698q34 0 55 -21t22 -54q0 -32 -21.5 -53t-56.5 -21q-34 0 -55 21t-20 53q-1 33 20.5 54t55.5 21z" />
    <glyph glyph-name="k" unicode="k" horiz-adv-x="504" 
d="M202 705v-425h2q18 39 32 62l88 147h171l-159 -200l178 -289h-175l-103 201l-34 -47v-154h-146v705h146z" />
    <glyph glyph-name="l" unicode="l" horiz-adv-x="260" 
d="M56 0v705h146v-705h-146z" />
    <glyph glyph-name="m" unicode="m" horiz-adv-x="806" 
d="M56 0v336q0 65 -4 153h124l7 -63h3q49 74 138 74q45 0 78 -21t48 -58h2q24 35 60 56q37 23 85 23q71 0 112 -52.5t41 -152.5v-295h-142v273q0 108 -65 108q-46 0 -63 -50q-5 -13 -5 -38v-293h-143v284q0 97 -63 97q-46 0 -64 -51q-6 -16 -6 -38v-292h-143z" />
    <glyph glyph-name="n" unicode="n" horiz-adv-x="547" 
d="M56 0v336q0 65 -4 153h127l7 -64h2q49 75 142 75q75 0 118.5 -52.5t43.5 -150.5v-297h-147v282q0 98 -68 98q-50 0 -69 -53q-6 -15 -6 -40v-287h-146z" />
    <glyph glyph-name="o" unicode="o" horiz-adv-x="533" 
d="M272 500q104 0 166.5 -69.5t62.5 -181.5q0 -67 -20.5 -119t-55 -81.5t-75 -44t-85.5 -14.5q-103 0 -168 67.5t-65 184.5q0 120 66.5 189t173.5 69zM268 394q-45 0 -66.5 -44t-21.5 -105q0 -66 23 -107.5t66 -41.5q39 0 61 42t22 107q0 61 -20.5 105t-63.5 44z" />
    <glyph glyph-name="p" unicode="p" horiz-adv-x="552" 
d="M56 -196v524q0 69 -4 161h127l7 -65h2q48 76 145 76q81 0 134 -70t53 -181q0 -125 -60 -192t-143 -67q-78 0 -113 53h-2v-239h-146zM202 287v-87q0 -22 4 -34q7 -28 28 -45t47 -17q44 0 68 38.5t24 101.5t-23.5 101t-66.5 38q-27 0 -49 -19t-28 -47q-4 -12 -4 -30z" />
    <glyph glyph-name="q" unicode="q" horiz-adv-x="551" 
d="M349 -196v252h-2q-42 -66 -129 -66q-79 0 -132.5 68.5t-53.5 178.5q0 123 59.5 193t141.5 70q84 0 122 -66l2 -1l5 56h137q-4 -92 -4 -149v-536h-146zM349 200v92q0 14 -3 26q-6 28 -26.5 46.5t-48.5 18.5q-44 0 -68 -38t-24 -101t24.5 -100.5t66.5 -37.5q27 0 47 16.5
t28 44.5q4 13 4 33z" />
    <glyph glyph-name="r" unicode="r" horiz-adv-x="354" 
d="M56 0v332q0 100 -4 157h126l6 -84h3q17 46 51.5 70.5t70.5 24.5q16 0 31 -3v-139q-17 3 -37 3q-37 0 -63 -19.5t-34 -55.5q-4 -20 -4 -38v-248h-146z" />
    <glyph glyph-name="s" unicode="s" horiz-adv-x="401" 
d="M28 23l27 105q55 -33 118 -33q61 0 61 41q0 19 -14 31.5t-53 28.5q-128 50 -128 144q0 69 52 114.5t136 45.5q72 0 126 -27l-25 -102q-48 25 -95 25q-55 0 -55 -40q0 -17 15 -28.5t57 -29.5q121 -47 123 -150q0 -72 -52.5 -114.5t-147.5 -42.5q-89 0 -145 32z" />
    <glyph glyph-name="t" unicode="t" horiz-adv-x="350" 
d="M78 579l143 41v-131h106v-106h-106v-191q0 -44 13.5 -63t43.5 -19q25 0 42 4l2 -111q-34 -12 -93 -12q-72 0 -109 39q-42 42 -42 143v210h-63v106h63v90z" />
    <glyph glyph-name="u" unicode="u" horiz-adv-x="544" 
d="M486 489v-334q0 -71 4 -155h-126l-7 64h-3q-48 -74 -140 -74q-76 0 -118 51.5t-42 157.5v290h146v-268q0 -112 69 -112q24 0 41 14t24 33q6 13 6 35v298h146z" />
    <glyph glyph-name="v" unicode="v" horiz-adv-x="490" 
d="M8 489h157l57 -224q14 -54 26 -125h3q9 53 25 125l55 224h151l-167 -489h-142z" />
    <glyph glyph-name="w" unicode="w" horiz-adv-x="716" 
d="M9 489h151l35 -203q17 -96 25 -157h2q9 51 33 155l49 205h115l47 -198q26 -119 32 -162h2q8 67 25 162l38 198h143l-142 -489h-133l-44 171q-17 74 -29 153h-2q-10 -71 -31 -152l-46 -172h-134z" />
    <glyph glyph-name="x" unicode="x" horiz-adv-x="482" 
d="M7 489h162l42 -83q20 -40 35 -76h3q4 9 10.5 24.5t12 28.5t10.5 25l39 81h155l-146 -235l148 -254h-164l-44 89q-19 40 -34 75h-2q-16 -39 -33 -75l-41 -89h-156l149 247z" />
    <glyph glyph-name="y" unicode="y" horiz-adv-x="483" 
d="M6 489h160l65 -244q9 -32 22 -89h2q2 9 19 88l55 245h152l-110 -338q-42 -123 -77 -191.5t-76 -108.5q-61 -59 -136 -70l-35 124q30 7 66 30q37 24 56 60q8 13 8 22q0 11 -5 23z" />
    <glyph glyph-name="z" unicode="z" horiz-adv-x="433" 
d="M21 0v86l144 200q44 57 68 84v3h-196v116h369l-1 -90l-138 -193q-42 -56 -70 -87v-2h215v-117h-391z" />
    <glyph glyph-name="braceleft" unicode="{" horiz-adv-x="297" 
d="M24 249v77q73 2 73 65q0 24 -6 78q-5 43 -5 79q0 70 39.5 104t112.5 34h30v-83h-17q-59 -3 -59 -71q0 -26 5 -59q4 -42 4 -66q1 -52 -19.5 -80t-62.5 -38v-2q42 -10 62.5 -37.5t19.5 -81.5q0 -25 -4 -67q-5 -35 -5 -58q0 -69 59 -72h17v-83h-31q-151 0 -151 139
q0 34 5 79q6 54 6 78q0 63 -73 65z" />
    <glyph glyph-name="bar" unicode="|" horiz-adv-x="263" 
d="M80 750h103v-1000h-103v1000z" />
    <glyph glyph-name="braceright" unicode="}" horiz-adv-x="297" 
d="M273 326v-77q-73 -2 -73 -65q0 -24 6 -78t6 -79q0 -139 -151 -139h-31v83h16q60 3 60 72q0 5 -5 58t-5 67q-1 54 20 81.5t63 37.5v2q-84 20 -83 118q0 13 5 66q5 50 5 59q0 68 -59 71h-17v83h30q72 0 112 -34.5t40 -103.5q0 -27 -6 -79q-6 -54 -6 -78q0 -63 73 -65z" />
    <glyph glyph-name="asciitilde" unicode="~" horiz-adv-x="596" 
d="M139 195h-92q-1 93 37.5 137t100.5 44q33 1 61.5 -10t76.5 -38q69 -40 93 -40q40 0 41 82h92q4 -95 -31.5 -139.5t-98.5 -44.5q-56 0 -137 48q-72 43 -96 43q-43 0 -47 -82z" />
    <glyph glyph-name="uni00A0" unicode="&#xa0;" horiz-adv-x="189" 
 />
    <glyph glyph-name="exclamdown" unicode="&#xa1;" horiz-adv-x="258" 
d="M206 -191h-153l20 453h113zM129 494h1q37 0 60.5 -25t23.5 -64q0 -38 -23 -62.5t-61 -24.5q-37 0 -61.5 24.5t-24.5 62.5q0 39 24 64t61 25z" />
    <glyph glyph-name="cent" unicode="&#xa2;" horiz-adv-x="516" 
d="M353 -10h-94v98q-85 15 -137 74q-53 64 -53 164q0 92 51 159t140 85v98h94v-92q49 -3 87 -19l-21 -109q-34 18 -85 18q-54 0 -86 -38t-32 -98q0 -64 34 -99.5t86 -35.5q49 0 93 17l16 -106q-34 -17 -93 -20v-96z" />
    <glyph glyph-name="sterling" unicode="&#xa3;" horiz-adv-x="516" 
d="M470 0h-423v81q43 18 73.5 59.5t30.5 87.5q0 29 -3 44h-92v99h76q-9 47 -9 85q0 91 58.5 147.5t155.5 56.5q67 0 107 -22l-23 -112q-34 17 -76 17q-45 0 -65.5 -25.5t-20.5 -65.5q0 -36 10 -81h127v-99h-114q2 -44 -9 -76q-15 -43 -49 -74v-2h246v-120z" />
    <glyph glyph-name="currency" unicode="&#xa4;" horiz-adv-x="516" 
d="M258 546h1q65 0 111 -36l73 82l63 -65l-85 -78q29 -54 29 -115q0 -69 -31 -120l83 -81l-62 -62l-72 84q-45 -39 -112 -39t-110 37l-69 -82l-62 62l80 78q-32 50 -32 118q0 67 32 120l-84 77l63 66l74 -84q44 38 110 38zM257 447h-1q-36 0 -58 -32.5t-22 -83.5
q0 -53 24 -85t56 -32q35 0 58 31t23 87q0 49 -22 82t-58 33z" />
    <glyph glyph-name="yen" unicode="&#xa5;" horiz-adv-x="516" 
d="M322 0h-136v161h-147v70h147v63h-147v70h114l-150 286h153l65 -166q18 -45 38 -109h2l16 48t22 62l66 165h148l-156 -286h115v-70h-150v-63h150v-70h-150v-161z" />
    <glyph glyph-name="brokenbar" unicode="&#xa6;" horiz-adv-x="263" 
d="M80 174h103v-350h-103v350zM80 674h103v-350h-103v350z" />
    <glyph glyph-name="section" unicode="&#xa7;" horiz-adv-x="522" 
d="M152 345v-1q0 -44 83 -76q87 -32 106 -42q29 17 29 53q0 45 -66 71q-115 46 -117 47q-35 -17 -35 -52zM432 655l-23 -89q-52 26 -120 26q-38 0 -60 -13t-22 -34q0 -23 22 -38.5t75 -31.5q87 -29 132 -66t45 -106q0 -73 -68 -124q40 -31 40 -89q0 -79 -63 -119t-145 -40
q-109 0 -172 40l27 91q62 -39 140 -39q39 0 62 13t23 38q0 24 -23 40.5t-80 36.5q-87 29 -134 67t-47 102q0 34 20.5 66.5t58.5 54.5q-37 33 -37 89q0 72 58 113t148 41q84 0 143 -29z" />
    <glyph glyph-name="dieresis" unicode="&#xa8;" 
d="M51 558h-1q-28 0 -48 20t-20 48q0 30 20 49.5t49 19.5q27 0 46 -19.5t19 -49.5q0 -29 -18.5 -48.5t-46.5 -19.5zM251 558h-2q-28 0 -47 19.5t-19 48.5q0 30 19.5 49.5t48.5 19.5q28 0 47 -19.5t19 -49.5q0 -29 -19 -48.5t-47 -19.5z" />
    <glyph glyph-name="copyright" unicode="&#xa9;" horiz-adv-x="677" 
d="M340 648h1q127 0 215.5 -90t88.5 -218q0 -129 -88.5 -219.5t-216.5 -90.5q-129 0 -218.5 90.5t-89.5 219.5q0 128 89.5 218t218.5 90zM339 592h-1q-100 0 -170.5 -74t-70.5 -179t70.5 -178.5t171.5 -74.5q100 0 170.5 74t70.5 179t-70.5 179t-170.5 74zM474 493l-15 -54
q-41 22 -94 22q-58 0 -91.5 -33t-33.5 -91q0 -55 34 -90t89 -35q58 0 99 23l14 -51q-49 -31 -122 -31q-86 0 -135.5 51t-49.5 130q0 84 57 135t139 51q34 0 66 -8.5t43 -18.5z" />
    <glyph glyph-name="ordfeminine" unicode="&#xaa;" horiz-adv-x="355" 
d="M319 265h-87l-6 33h-2q-36 -38 -92 -38q-45 0 -72.5 27.5t-27.5 69.5q0 58 50 87.5t134 29.5v7q0 14 -13 26.5t-45 12.5q-49 0 -84 -23l-18 63q50 30 120 30q73 0 105.5 -39t32.5 -100v-109q0 -42 5 -77zM219 376v40q-92 0 -92 -50q0 -17 12 -27.5t30 -10.5q31 0 45 27
q5 10 5 21z" />
    <glyph glyph-name="guillemotleft" unicode="&#xab;" horiz-adv-x="440" 
d="M238 441l-116 -189l116 -189h-102l-113 189l113 189h102zM422 441l-116 -189l116 -189h-102l-113 189l113 189h102z" />
    <glyph glyph-name="logicalnot" unicode="&#xac;" horiz-adv-x="596" 
d="M40 422h516v-316h-93v226h-423v90z" />
    <glyph glyph-name="uni00AD" unicode="&#xad;" horiz-adv-x="291" 
d="M30 316h243v-99h-243v99z" />
    <glyph glyph-name="registered" unicode="&#xae;" horiz-adv-x="433" 
d="M196 493v-56h-47v155q30 6 67 6q43 0 61 -13q17 -12 17 -34q0 -11 -10 -21t-26 -14v-2q25 -9 32 -40q6 -26 10 -37h-51q-5 6 -11 33q-4 23 -27 23h-15zM198 562v-37h13q29 0 29 19q0 20 -26 20q-10 0 -16 -2zM217 685h1q72 0 121.5 -49t49.5 -119q0 -71 -50 -120.5
t-122 -49.5t-122.5 49.5t-50.5 120.5q0 70 50.5 119t122.5 49zM217 643h-1q-52 0 -86.5 -37t-34.5 -90t35 -90t87 -37q52 -1 86.5 36.5t34.5 91.5q0 53 -34.5 89.5t-86.5 36.5z" />
    <glyph glyph-name="macron" unicode="&#xaf;" 
d="M31 663h239v-81h-239v81z" />
    <glyph glyph-name="degree" unicode="&#xb0;" horiz-adv-x="335" 
d="M170 685h1q62 0 101.5 -40.5t39.5 -97.5q0 -61 -43 -101t-101 -40q-61 0 -101.5 39.5t-40.5 97.5q0 59 42.5 100.5t101.5 41.5zM169 620h-1q-29 0 -48.5 -23t-19.5 -54q0 -30 20 -51.5t49 -21.5q30 0 49.5 21.5t19.5 53.5q0 31 -18 53t-51 22z" />
    <glyph glyph-name="plusminus" unicode="&#xb1;" horiz-adv-x="596" 
d="M251 575h94v-173h211v-89h-211v-176h-94v176h-211v89h211v173zM40 90h516v-90h-516v90z" />
    <glyph glyph-name="two.superior" unicode="&#xb2;" horiz-adv-x="328" 
d="M13 435v56l57 55q46 45 61.5 60.5t31.5 40.5t16 46q0 23 -15 36.5t-41 13.5q-44 0 -80 -27l-27 74q53 40 135 40q70 0 107 -33.5t37 -84.5q0 -34 -18 -66.5t-37.5 -52t-56.5 -51.5l-22 -20v-2h141v-85h-289z" />
    <glyph glyph-name="three.superior" unicode="&#xb3;" horiz-adv-x="321" 
d="M43 730l-20 71q51 29 127 29q66 0 101 -27.5t35 -69.5q0 -65 -77 -90v-2q39 -5 65 -30t26 -62q0 -52 -47 -85.5t-125 -33.5q-76 0 -119 26l19 75q44 -24 89 -24q29 0 48.5 13.5t19.5 34.5q-1 25 -25 38.5t-58 13.5h-25v66h22q29 0 52.5 10.5t23.5 32.5q0 37 -50 37
q-42 0 -82 -23z" />
    <glyph glyph-name="acute" unicode="&#xb4;" 
d="M165 698h132l-115 -148h-98z" />
    <glyph glyph-name="mu" unicode="&#xb5;" horiz-adv-x="546" 
d="M365 62h-4q-12 -27 -40 -47t-66 -20q-42 0 -65 27v-41q0 -129 11 -177h-131q-14 37 -14 181v504h146v-284q0 -98 66 -98q24 0 42.5 14.5t26.5 33.5q5 11 5 36v298h147v-335q0 -30 9 -42t30 -13l-10 -101q-18 -8 -50 -8q-80 0 -103 72z" />
    <glyph glyph-name="paragraph" unicode="&#xb6;" horiz-adv-x="509" 
d="M284 -48h-89v312h-7q-48 0 -102.5 48.5t-57.5 136.5q-1 44 12 82t43 72t87.5 54t137.5 20q89 0 132 -10v-715h-88v637h-68v-637z" />
    <glyph glyph-name="periodcentered" unicode="&#xb7;" horiz-adv-x="252" 
d="M126 172h-1q-36 0 -60.5 25.5t-24.5 64.5q0 40 24.5 65.5t61.5 25.5q38 0 61.5 -25t24.5 -66q0 -40 -24 -65t-62 -25z" />
    <glyph glyph-name="cedilla" unicode="&#xb8;" 
d="M124 4h78l-26 -48q29 -4 50 -23.5t21 -48.5q0 -46 -33.5 -67t-85.5 -21q-46 0 -78 20l19 56q27 -16 54 -16q35 0 35 26q0 30 -75 36z" />
    <glyph glyph-name="one.superior" unicode="&#xb9;" horiz-adv-x="282" 
d="M222 435h-110v299h-2l-77 -35l-16 79l108 47h97v-390z" />
    <glyph glyph-name="ordmasculine" unicode="&#xba;" horiz-adv-x="363" 
d="M183 590h1q69 0 110.5 -45t41.5 -117q0 -84 -46 -126t-110 -42q-68 0 -111.5 44.5t-43.5 118.5q0 76 44.5 121.5t113.5 45.5zM181 517h-1q-28 0 -41 -29t-13 -64q0 -39 14.5 -65t40.5 -26q27 0 41 26t14 67q0 35 -14.5 63t-40.5 28z" />
    <glyph glyph-name="guillemotright" unicode="&#xbb;" horiz-adv-x="440" 
d="M134 252l-116 189h101l114 -189l-113 -189h-102zM316 252l-116 189h101l114 -189l-113 -189h-102z" />
    <glyph glyph-name="onequarter" unicode="&#xbc;" horiz-adv-x="782" 
d="M234 265h-110v299h-1l-77 -35l-16 79l108 47h96v-390zM235 -10h-79l363 670h78zM697 0h-101v90h-181v62l161 241h121v-230h50v-73h-50v-90zM596 163v72q0 15 2 41t2 31h-2q-4 -8 -10.5 -20.5t-12 -22.5t-10.5 -18l-53 -82l2 -1h82z" />
    <glyph glyph-name="onehalf" unicode="&#xbd;" horiz-adv-x="782" 
d="M223 265h-111v299h-1l-77 -35l-16 79l108 47h97v-390zM210 -10h-78l362 670h78zM455 0v56l57 55q46 45 61.5 60.5t31.5 40.5t16 46q0 23 -15 36.5t-41 13.5q-41 0 -80 -27l-27 74q53 40 135 40q70 0 107 -33.5t37 -84.5q0 -34 -18.5 -67t-37.5 -52t-56 -52l-22 -19v-2
h141v-85h-289z" />
    <glyph glyph-name="threequarters" unicode="&#xbe;" horiz-adv-x="782" 
d="M62 560l-20 71q49 29 126 29q66 0 101.5 -27.5t35.5 -69.5q0 -64 -77 -90v-2q39 -5 64.5 -30t25.5 -62q0 -53 -47 -86t-125 -33q-76 0 -119 26l20 75q41 -24 88 -24q30 0 49 13.5t19 34.5q0 25 -24 38.5t-59 13.5h-25v66h22q30 0 53 10.5t23 32.5q0 37 -50 37
q-41 0 -81 -23zM262 -10h-79l363 670h78zM706 0h-101v90h-182v62l162 241h121v-230h49v-73h-49v-90zM605 163v72q0 28 4 72h-3q-31 -59 -32 -61l-54 -82l2 -1h83z" />
    <glyph glyph-name="questiondown" unicode="&#xbf;" horiz-adv-x="412" 
d="M231 494h1q37 0 60.5 -25t23.5 -64q0 -38 -23.5 -62.5t-61.5 -24.5q-37 0 -61 24.5t-24 62.5q0 39 24 64t61 25zM165 268h127l1 -23q6 -80 -57 -161q-54 -70 -54 -107q0 -28 18 -44t53 -17q50 0 89 26l30 -106q-64 -38 -152 -38q-93 0 -139 45t-46 110q0 35 15 70
t27.5 52t39.5 50q49 60 48 124v19z" />
    <glyph glyph-name="Agrave" unicode="&#xc0;" horiz-adv-x="597" 
d="M377 167h-172l-42 -167h-148l187 674h187l186 -674h-153zM225 277h133l-36 143q-5 21 -15.5 69.5t-15.5 67.5h-2q-2 -11 -12.5 -62.5t-16.5 -74.5zM132 830h152l83 -119h-113z" />
    <glyph glyph-name="Aacute" unicode="&#xc1;" horiz-adv-x="597" 
d="M377 167h-172l-42 -167h-148l187 674h187l186 -674h-153zM225 277h133l-36 143q-5 21 -15.5 69.5t-15.5 67.5h-2q-2 -11 -12.5 -62.5t-16.5 -74.5zM313 830h152l-123 -120h-113z" />
    <glyph glyph-name="Acircumflex" unicode="&#xc2;" horiz-adv-x="597" 
d="M377 167h-172l-42 -167h-148l187 674h187l186 -674h-153zM225 277h133l-36 143q-5 21 -15.5 69.5t-15.5 67.5h-2q-2 -11 -12.5 -62.5t-16.5 -74.5zM244 829h111l96 -119h-104l-47 59h-2l-46 -59h-102z" />
    <glyph glyph-name="Atilde" unicode="&#xc3;" horiz-adv-x="597" 
d="M377 167h-172l-42 -167h-148l187 674h187l186 -674h-153zM225 277h133l-36 143q-5 21 -15.5 69.5t-15.5 67.5h-2q-2 -11 -12.5 -62.5t-16.5 -74.5zM236 716h-66q-2 59 18 91t55 32q30 0 61 -18q30 -19 42 -19t17.5 8.5t8.5 32.5h65q4 -121 -76 -121q-31 0 -61 17
q-29 17 -41 17q-20 0 -23 -40z" />
    <glyph glyph-name="Adieresis" unicode="&#xc4;" horiz-adv-x="597" 
d="M377 167h-172l-42 -167h-148l187 674h187l186 -674h-153zM225 277h133l-36 143q-5 21 -15.5 69.5t-15.5 67.5h-2q-2 -11 -12.5 -62.5t-16.5 -74.5zM203 712h-1q-27 0 -46 20t-19 47q0 28 19.5 47.5t46.5 19.5t45.5 -19.5t18.5 -47.5q0 -27 -18.5 -47t-45.5 -20zM404 712
h-1q-27 0 -46 20t-19 47q0 28 19 47.5t47 19.5q27 0 45.5 -19.5t18.5 -47.5q0 -27 -18.5 -47t-45.5 -20z" />
    <glyph glyph-name="Aring" unicode="&#xc5;" horiz-adv-x="597" 
d="M377 167h-172l-42 -167h-148l187 674h187l186 -674h-153zM225 277h133l-36 143q-5 21 -15.5 69.5t-15.5 67.5h-2q-2 -11 -12.5 -62.5t-16.5 -74.5zM297 893h1q54 0 82.5 -27t28.5 -69q0 -41 -30 -68.5t-82 -27.5t-82 27t-30 67q0 42 29.5 70t82.5 28zM296 843h-1
q-20 0 -30.5 -14t-10.5 -33q0 -18 11 -31.5t31 -13.5t31.5 13t11.5 33q0 19 -11.5 32.5t-31.5 13.5z" />
    <glyph glyph-name="AE" unicode="&#xc6;" horiz-adv-x="786" 
d="M148 0h-149l262 674h470v-122h-246l15 -150h227v-119h-210l17 -161h228v-122h-354l-20 184h-175zM252 300h121l-17 164q-1 7 -4.5 46.5t-5.5 61.5h-4q-16 -58 -35 -117z" />
    <glyph glyph-name="Ccedilla" unicode="&#xc7;" horiz-adv-x="538" 
d="M487 133l20 -117q-47 -24 -138 -25l-19 -35q30 -6 50.5 -27t20.5 -52q0 -47 -34 -69t-83 -22q-51 0 -82 19l19 60q26 -14 55 -14q35 0 35 25q0 30 -76 37l39 83q-128 19 -195 107.5t-67 223.5q0 170 97 263t242 93q98 0 144 -26l-29 -118q-48 22 -108 22
q-84 0 -138 -57.5t-54 -167.5q0 -106 51.5 -163.5t141.5 -57.5q65 0 108 18z" />
    <glyph glyph-name="Egrave" unicode="&#xc8;" horiz-adv-x="492" 
d="M430 408v-120h-220v-166h246v-122h-392v674h378v-122h-232v-144h220zM96 830h152l83 -119h-113z" />
    <glyph glyph-name="Eacute" unicode="&#xc9;" horiz-adv-x="492" 
d="M430 408v-120h-220v-166h246v-122h-392v674h378v-122h-232v-144h220zM272 830h152l-123 -120h-113z" />
    <glyph glyph-name="Ecircumflex" unicode="&#xca;" horiz-adv-x="492" 
d="M430 408v-120h-220v-166h246v-122h-392v674h378v-122h-232v-144h220zM202 829h111l96 -119h-104l-47 59h-2l-46 -59h-102z" />
    <glyph glyph-name="Edieresis" unicode="&#xcb;" horiz-adv-x="492" 
d="M430 408v-120h-220v-166h246v-122h-392v674h378v-122h-232v-144h220zM152 713h-1q-27 0 -46 20t-19 47q0 28 19.5 47.5t46.5 19.5t45.5 -19.5t18.5 -47.5q0 -27 -18.5 -47t-45.5 -20zM353 713h-1q-27 0 -46 20t-19 47q0 28 19 47.5t47 19.5q27 0 45.5 -19.5t18.5 -47.5
q0 -27 -18.5 -47t-45.5 -20z" />
    <glyph glyph-name="Igrave" unicode="&#xcc;" horiz-adv-x="274" 
d="M64 674h146v-674h-146v674zM-28 830h152l83 -119h-113z" />
    <glyph glyph-name="Iacute" unicode="&#xcd;" horiz-adv-x="274" 
d="M64 674h146v-674h-146v674zM150 830h152l-123 -120h-113z" />
    <glyph glyph-name="Icircumflex" unicode="&#xce;" horiz-adv-x="274" 
d="M64 674h146v-674h-146v674zM81 829h111l96 -119h-104l-47 59h-2l-46 -59h-102z" />
    <glyph glyph-name="Idieresis" unicode="&#xcf;" horiz-adv-x="274" 
d="M64 674h146v-674h-146v674zM37 713h-1q-27 0 -46 20t-19 47q0 28 19.5 47.5t46.5 19.5t45.5 -19.5t18.5 -47.5q0 -27 -18.5 -47t-45.5 -20zM238 713h-1q-27 0 -46 20t-19 47q0 28 19 47.5t47 19.5q27 0 45.5 -19.5t18.5 -47.5q0 -27 -18.5 -47t-45.5 -20z" />
    <glyph glyph-name="Eth" unicode="&#xd0;" horiz-adv-x="641" 
d="M2 289v111h68v266q76 14 184 14q165 0 249 -67q106 -84 106 -262q0 -187 -106 -278q-93 -81 -279 -81q-93 0 -154 9v288h-68zM332 400v-111h-116v-179q11 -3 44 -3q92 0 144 59t52 183q0 107 -48 162.5t-136 55.5q-26 0 -56 -5v-162h116z" />
    <glyph glyph-name="Ntilde" unicode="&#xd1;" horiz-adv-x="638" 
d="M196 0h-132v674h160l129 -252q51 -95 99 -221h2q-12 126 -12 291v182h132v-674h-148l-131 259q-63 121 -103 227h-3q7 -116 7 -299v-187zM254 716h-66q-2 59 18 91t55 32q30 0 61 -18q30 -19 42 -19t17.5 8.5t8.5 32.5h65q4 -121 -76 -121q-31 0 -61 17q-29 17 -41 17
q-20 0 -23 -40z" />
    <glyph glyph-name="Ograve" unicode="&#xd2;" horiz-adv-x="646" 
d="M328 684q93 0 159.5 -48.5t97 -123.5t30.5 -167q0 -170 -81 -262.5t-216 -92.5t-210.5 97.5t-75.5 246.5q0 151 80.5 250.5t215.5 99.5zM324 565q-65 0 -101.5 -63t-36.5 -166q0 -104 37 -165.5t102 -61.5q64 0 100 64t36 167q0 96 -36 160.5t-101 64.5zM159 831h152
l83 -119h-113z" />
    <glyph glyph-name="Oacute" unicode="&#xd3;" horiz-adv-x="646" 
d="M328 684q93 0 159.5 -48.5t97 -123.5t30.5 -167q0 -170 -81 -262.5t-216 -92.5t-210.5 97.5t-75.5 246.5q0 151 80.5 250.5t215.5 99.5zM324 565q-65 0 -101.5 -63t-36.5 -166q0 -104 37 -165.5t102 -61.5q64 0 100 64t36 167q0 96 -36 160.5t-101 64.5zM341 831h152
l-123 -120h-113z" />
    <glyph glyph-name="Ocircumflex" unicode="&#xd4;" horiz-adv-x="646" 
d="M328 684q93 0 159.5 -48.5t97 -123.5t30.5 -167q0 -170 -81 -262.5t-216 -92.5t-210.5 97.5t-75.5 246.5q0 151 80.5 250.5t215.5 99.5zM324 565q-65 0 -101.5 -63t-36.5 -166q0 -104 37 -165.5t102 -61.5q64 0 100 64t36 167q0 96 -36 160.5t-101 64.5zM267 830h111
l96 -119h-104l-47 59h-2l-46 -59h-102z" />
    <glyph glyph-name="Otilde" unicode="&#xd5;" horiz-adv-x="646" 
d="M328 684q93 0 159.5 -48.5t97 -123.5t30.5 -167q0 -170 -81 -262.5t-216 -92.5t-210.5 97.5t-75.5 246.5q0 151 80.5 250.5t215.5 99.5zM324 565q-65 0 -101.5 -63t-36.5 -166q0 -104 37 -165.5t102 -61.5q64 0 100 64t36 167q0 96 -36 160.5t-101 64.5zM256 714h-66
q-2 59 18 91t55 32q30 0 61 -18q30 -19 42 -19t17.5 8.5t8.5 32.5h65q4 -121 -76 -121q-31 0 -61 17q-29 17 -41 17q-20 0 -23 -40z" />
    <glyph glyph-name="Odieresis" unicode="&#xd6;" horiz-adv-x="646" 
d="M328 684q93 0 159.5 -48.5t97 -123.5t30.5 -167q0 -170 -81 -262.5t-216 -92.5t-210.5 97.5t-75.5 246.5q0 151 80.5 250.5t215.5 99.5zM324 565q-65 0 -101.5 -63t-36.5 -166q0 -104 37 -165.5t102 -61.5q64 0 100 64t36 167q0 96 -36 160.5t-101 64.5zM223 713h-1
q-27 0 -46 20t-19 47q0 28 19.5 47.5t46.5 19.5t45.5 -19.5t18.5 -47.5q0 -27 -18.5 -47t-45.5 -20zM424 713h-1q-27 0 -46 20t-19 47q0 28 19 47.5t47 19.5q27 0 45.5 -19.5t18.5 -47.5q0 -27 -18.5 -47t-45.5 -20z" />
    <glyph glyph-name="multiply" unicode="&#xd7;" horiz-adv-x="596" 
d="M40 462l62 64l196 -199l196 199l62 -64l-195 -199l195 -198l-64 -65l-194 199l-195 -199l-63 65l194 198z" />
    <glyph glyph-name="Oslash" unicode="&#xd8;" horiz-adv-x="646" 
d="M140 -62l-78 57l53 88q-83 95 -83 254q0 148 80.5 247.5t212.5 99.5q74 0 133 -32l48 77l81 -49l-52 -88q80 -93 80 -248q0 -169 -80.5 -261.5t-210.5 -92.5q-74 0 -131 33zM199 220l194 321q-29 26 -69 26q-68 0 -107.5 -62.5t-39.5 -166.5q0 -62 20 -118h2zM450 450
l-194 -316q26 -27 68 -27q68 0 106.5 63t38.5 170q0 62 -17 110h-2z" />
    <glyph glyph-name="Ugrave" unicode="&#xd9;" horiz-adv-x="627" 
d="M62 674h146v-403q0 -162 105 -162q106 0 106 162v403h146v-389q0 -147 -66 -221t-190 -74q-247 0 -247 296v388zM152 830h152l83 -119h-113z" />
    <glyph glyph-name="Uacute" unicode="&#xda;" horiz-adv-x="627" 
d="M62 674h146v-403q0 -162 105 -162q106 0 106 162v403h146v-389q0 -147 -66 -221t-190 -74q-247 0 -247 296v388zM323 830h152l-123 -120h-113z" />
    <glyph glyph-name="Ucircumflex" unicode="&#xdb;" horiz-adv-x="627" 
d="M62 674h146v-403q0 -162 105 -162q106 0 106 162v403h146v-389q0 -147 -66 -221t-190 -74q-247 0 -247 296v388zM266 829h111l96 -119h-104l-47 59h-2l-46 -59h-102z" />
    <glyph glyph-name="Udieresis" unicode="&#xdc;" horiz-adv-x="627" 
d="M62 674h146v-403q0 -162 105 -162q106 0 106 162v403h146v-389q0 -147 -66 -221t-190 -74q-247 0 -247 296v388zM218 713h-1q-27 0 -46 20t-19 47q0 28 19.5 47.5t46.5 19.5t45.5 -19.5t18.5 -47.5q0 -27 -18.5 -47t-45.5 -20zM419 713h-1q-27 0 -46 20t-19 47
q0 28 19 47.5t47 19.5q27 0 45.5 -19.5t18.5 -47.5q0 -27 -18.5 -47t-45.5 -20z" />
    <glyph glyph-name="Yacute" unicode="&#xdd;" horiz-adv-x="542" 
d="M341 0h-146v271l-193 403h164l61 -162q26 -65 47 -133h2q16 53 46 134l59 161h161l-201 -398v-276zM292 829h152l-123 -120h-113z" />
    <glyph glyph-name="Thorn" unicode="&#xde;" horiz-adv-x="542" 
d="M64 0v674h143v-120q34 4 71 4q111 0 173 -52q63 -54 63 -147q0 -116 -70.5 -172t-177.5 -56q-33 0 -59 4v-135h-143zM207 440v-189q23 -5 53 -5q54 0 82.5 28t28.5 73q0 46 -27.5 72t-79.5 26q-37 0 -57 -5z" />
    <glyph glyph-name="germandbls" unicode="&#xdf;" horiz-adv-x="568" 
d="M202 0h-146v431q0 153 74 222q65 62 172 62q90 0 147 -50.5t57 -130.5q0 -50 -23 -81q-56 -27 -56 -68q0 -31 35 -69q36 -39 55.5 -73.5t19.5 -82.5q0 -77 -52 -123.5t-141 -46.5q-61 0 -100 15l17 108q31 -13 68 -13q30 0 47 15t17 37q0 32 -39 74q-23 25 -34.5 39.5
t-24 42.5t-12.5 56q0 38 20 70.5t56 51.5q7 14 7 39q0 33 -20 55t-53 22q-91 0 -91 -158v-444z" />
    <glyph glyph-name="agrave" unicode="&#xe0;" horiz-adv-x="496" 
d="M93 698h133l81 -148h-98zM441 291v-174q0 -76 7 -117h-131l-8 49h-3q-47 -59 -131 -59q-66 0 -107.5 43.5t-41.5 105.5q0 92 73.5 139t194.5 47v8q0 64 -83 64q-69 0 -124 -34l-27 95q75 42 179 42q202 0 202 -209zM299 170v63q-131 2 -131 -79q0 -30 16 -45t41 -15
q24 0 44 14.5t27 37.5q3 11 3 24z" />
    <glyph glyph-name="aacute" unicode="&#xe1;" horiz-adv-x="496" 
d="M266 698h132l-115 -148h-98zM441 291v-174q0 -76 7 -117h-131l-8 49h-3q-47 -59 -131 -59q-66 0 -107.5 43.5t-41.5 105.5q0 92 73.5 139t194.5 47v8q0 64 -83 64q-69 0 -124 -34l-27 95q75 42 179 42q202 0 202 -209zM299 170v63q-131 2 -131 -79q0 -30 16 -45t41 -15
q24 0 44 14.5t27 37.5q3 11 3 24z" />
    <glyph glyph-name="acircumflex" unicode="&#xe2;" horiz-adv-x="496" 
d="M196 698h99l95 -148h-96l-47 85h-2l-47 -85h-97zM441 291v-174q0 -76 7 -117h-131l-8 49h-3q-47 -59 -131 -59q-66 0 -107.5 43.5t-41.5 105.5q0 92 73.5 139t194.5 47v8q0 64 -83 64q-69 0 -124 -34l-27 95q75 42 179 42q202 0 202 -209zM299 170v63q-131 2 -131 -79
q0 -30 16 -45t41 -15q24 0 44 14.5t27 37.5q3 11 3 24z" />
    <glyph glyph-name="atilde" unicode="&#xe3;" horiz-adv-x="496" 
d="M174 558h-68q-2 59 19.5 93t58.5 34q27 0 63 -20q30 -18 41 -18q23 0 25 42h66q3 -124 -78 -124q-27 0 -65 20q-30 16 -38 16q-23 0 -24 -43zM441 291v-174q0 -76 7 -117h-131l-8 49h-3q-47 -59 -131 -59q-66 0 -107.5 43.5t-41.5 105.5q0 92 73.5 139t194.5 47v8
q0 64 -83 64q-69 0 -124 -34l-27 95q75 42 179 42q202 0 202 -209zM299 170v63q-131 2 -131 -79q0 -30 16 -45t41 -15q24 0 44 14.5t27 37.5q3 11 3 24z" />
    <glyph glyph-name="adieresis" unicode="&#xe4;" horiz-adv-x="496" 
d="M149 558h-1q-28 0 -48 20t-20 48q0 30 20 49.5t49 19.5q27 0 46 -19.5t19 -49.5q0 -29 -18.5 -48.5t-46.5 -19.5zM349 558h-2q-28 0 -47 19.5t-19 48.5q0 30 19.5 49.5t48.5 19.5q28 0 47 -19.5t19 -49.5q0 -29 -19 -48.5t-47 -19.5zM441 291v-174q0 -76 7 -117h-131
l-8 49h-3q-47 -59 -131 -59q-66 0 -107.5 43.5t-41.5 105.5q0 92 73.5 139t194.5 47v8q0 64 -83 64q-69 0 -124 -34l-27 95q75 42 179 42q202 0 202 -209zM299 170v63q-131 2 -131 -79q0 -30 16 -45t41 -15q24 0 44 14.5t27 37.5q3 11 3 24z" />
    <glyph glyph-name="aring" unicode="&#xe5;" horiz-adv-x="496" 
d="M249 539q-51 0 -81 26.5t-30 67.5q0 43 29 70.5t83 27.5q52 0 80.5 -26.5t28.5 -70.5q0 -42 -29.5 -68.5t-80.5 -26.5zM248 587q22 0 33.5 14t11.5 34t-11.5 34t-33.5 14q-20 0 -31.5 -15t-11.5 -35q0 -18 11.5 -32t31.5 -14zM441 291v-174q0 -76 7 -117h-131l-8 49h-3
q-47 -59 -131 -59q-66 0 -107.5 43.5t-41.5 105.5q0 92 73.5 139t194.5 47v8q0 64 -83 64q-69 0 -124 -34l-27 95q75 42 179 42q202 0 202 -209zM299 170v63q-131 2 -131 -79q0 -30 16 -45t41 -15q24 0 44 14.5t27 37.5q3 11 3 24z" />
    <glyph glyph-name="ae" unicode="&#xe6;" horiz-adv-x="752" 
d="M719 206h-286q1 -52 35 -80t90 -28q64 0 122 24l20 -98q-67 -34 -165 -34q-58 0 -105.5 22.5t-71.5 63.5h-3q-58 -86 -170 -86q-72 0 -115.5 44t-43.5 109q0 87 74 132t195 45v15q0 21 -21 41.5t-68 20.5q-64 0 -118 -35l-28 94q75 44 163 44q109 0 150 -79h3
q54 79 156 79q93 0 142 -69t49 -171q0 -9 -0.5 -19t-2 -20.5t-1.5 -14.5zM298 172v58q-58 1 -95 -17.5t-37 -59.5q0 -28 17 -43.5t41 -15.5q51 0 70 49q4 11 4 29zM432 303h157q0 38 -17 68.5t-57 30.5q-39 0 -60.5 -32t-22.5 -67z" />
    <glyph glyph-name="ccedilla" unicode="&#xe7;" horiz-adv-x="412" 
d="M379 121l16 -110q-38 -17 -102 -20l-19 -35q30 -7 50.5 -27t20.5 -52q0 -47 -34 -69t-83 -22q-50 0 -82 19l19 60q28 -14 55 -14q35 0 35 25q0 30 -75 37l38 84q-87 15 -136.5 79t-49.5 164q0 113 70 186t193 73q60 0 103 -18l-22 -110q-32 14 -74 14q-56 0 -89.5 -39
t-32.5 -101q0 -65 34.5 -102t88.5 -37q43 0 76 15z" />
    <glyph glyph-name="egrave" unicode="&#xe8;" horiz-adv-x="495" 
d="M111 698h133l81 -148h-98zM461 196h-290q3 -48 38.5 -72t89.5 -24q65 0 122 19l20 -100q-72 -28 -165 -28q-116 0 -180 65.5t-64 180.5q0 109 61.5 186t169.5 77q101 0 152 -68t51 -173q0 -41 -5 -63zM171 297h160q1 40 -17 71.5t-59 31.5q-39 0 -60 -32t-24 -71z" />
    <glyph glyph-name="eacute" unicode="&#xe9;" horiz-adv-x="495" 
d="M285 698h132l-115 -148h-98zM461 196h-290q3 -48 38.5 -72t89.5 -24q65 0 122 19l20 -100q-72 -28 -165 -28q-116 0 -180 65.5t-64 180.5q0 109 61.5 186t169.5 77q101 0 152 -68t51 -173q0 -41 -5 -63zM171 297h160q1 40 -17 71.5t-59 31.5q-39 0 -60 -32t-24 -71z" />
    <glyph glyph-name="ecircumflex" unicode="&#xea;" horiz-adv-x="495" 
d="M210 698h99l95 -148h-96l-47 85h-2l-47 -85h-97zM461 196h-290q3 -48 38.5 -72t89.5 -24q65 0 122 19l20 -100q-72 -28 -165 -28q-116 0 -180 65.5t-64 180.5q0 109 61.5 186t169.5 77q101 0 152 -68t51 -173q0 -41 -5 -63zM171 297h160q1 40 -17 71.5t-59 31.5
q-39 0 -60 -32t-24 -71z" />
    <glyph glyph-name="edieresis" unicode="&#xeb;" horiz-adv-x="495" 
d="M166 558h-1q-29 0 -48.5 20t-19.5 48q0 30 20 49.5t49 19.5q27 0 46 -19.5t19 -49.5q0 -29 -18.5 -48.5t-46.5 -19.5zM366 558h-2q-28 0 -47 19.5t-19 48.5q0 30 19.5 49.5t48.5 19.5q28 0 47 -19.5t19 -49.5q0 -29 -19 -48.5t-47 -19.5zM461 196h-290q3 -48 38.5 -72
t89.5 -24q65 0 122 19l20 -100q-72 -28 -165 -28q-116 0 -180 65.5t-64 180.5q0 109 61.5 186t169.5 77q101 0 152 -68t51 -173q0 -41 -5 -63zM171 297h160q1 40 -17 71.5t-59 31.5q-39 0 -60 -32t-24 -71z" />
    <glyph glyph-name="igrave" unicode="&#xec;" horiz-adv-x="259" 
d="M-29 698h133l81 -148h-98zM202 0h-146v489h146v-489z" />
    <glyph glyph-name="iacute" unicode="&#xed;" horiz-adv-x="259" 
d="M152 698h132l-115 -148h-98zM202 0h-146v489h146v-489z" />
    <glyph glyph-name="icircumflex" unicode="&#xee;" horiz-adv-x="259" 
d="M80 698h99l95 -148h-96l-47 85h-2l-47 -85h-97zM202 0h-146v489h146v-489z" />
    <glyph glyph-name="idieresis" unicode="&#xef;" horiz-adv-x="259" 
d="M30 558h-1q-29 0 -48.5 20t-19.5 48q0 30 20 49.5t49 19.5q27 0 46 -19.5t19 -49.5q0 -29 -18.5 -48.5t-46.5 -19.5zM230 558h-2q-28 0 -47 19.5t-19 48.5q0 30 19.5 49.5t48.5 19.5q28 0 47 -19.5t19 -49.5q0 -29 -19 -48.5t-47 -19.5zM202 0h-146v489h146v-489z" />
    <glyph glyph-name="eth" unicode="&#xf0;" horiz-adv-x="531" 
d="M266 96h1q41 0 62 40.5t21 104.5q0 78 -19 109q-21 36 -63 36q-46 0 -67 -45t-21 -100q0 -62 22.5 -103.5t63.5 -41.5zM100 486l-27 55l98 46q-33 23 -84 48l68 80q69 -27 136 -76l125 56l29 -55l-98 -44q69 -59 111 -142q41 -81 41 -196q0 -70 -20.5 -123.5t-54.5 -84
t-74.5 -45.5t-85.5 -15q-103 0 -167.5 67.5t-64.5 181.5q0 105 60 168.5t148 68.5q38 2 66 -16l2 3q-34 50 -78 81z" />
    <glyph glyph-name="ntilde" unicode="&#xf1;" horiz-adv-x="547" 
d="M207 558h-68q-2 59 19.5 93t58.5 34q27 0 63 -20q30 -18 41 -18q23 0 25 42h66q3 -124 -78 -124q-27 0 -65 20q-30 16 -38 16q-23 0 -24 -43zM56 0v336q0 65 -4 153h127l7 -64h2q49 75 142 75q75 0 118.5 -52.5t43.5 -150.5v-297h-147v282q0 98 -68 98q-50 0 -69 -53
q-6 -15 -6 -40v-287h-146z" />
    <glyph glyph-name="ograve" unicode="&#xf2;" horiz-adv-x="533" 
d="M118 698h133l81 -148h-98zM272 500q104 0 166.5 -69.5t62.5 -181.5q0 -67 -20.5 -119t-55 -81.5t-75 -44t-85.5 -14.5q-103 0 -168 67.5t-65 184.5q0 120 66.5 189t173.5 69zM268 394q-45 0 -66.5 -44t-21.5 -105q0 -66 23 -107.5t66 -41.5q39 0 61 42t22 107
q0 61 -20.5 105t-63.5 44z" />
    <glyph glyph-name="oacute" unicode="&#xf3;" horiz-adv-x="533" 
d="M288 698h132l-115 -148h-98zM272 500q104 0 166.5 -69.5t62.5 -181.5q0 -67 -20.5 -119t-55 -81.5t-75 -44t-85.5 -14.5q-103 0 -168 67.5t-65 184.5q0 120 66.5 189t173.5 69zM268 394q-45 0 -66.5 -44t-21.5 -105q0 -66 23 -107.5t66 -41.5q39 0 61 42t22 107
q0 61 -20.5 105t-63.5 44z" />
    <glyph glyph-name="ocircumflex" unicode="&#xf4;" horiz-adv-x="533" 
d="M217 698h99l95 -148h-96l-47 85h-2l-47 -85h-97zM272 500q104 0 166.5 -69.5t62.5 -181.5q0 -67 -20.5 -119t-55 -81.5t-75 -44t-85.5 -14.5q-103 0 -168 67.5t-65 184.5q0 120 66.5 189t173.5 69zM268 394q-45 0 -66.5 -44t-21.5 -105q0 -66 23 -107.5t66 -41.5
q39 0 61 42t22 107q0 61 -20.5 105t-63.5 44z" />
    <glyph glyph-name="otilde" unicode="&#xf5;" horiz-adv-x="533" 
d="M198 558h-68q-2 59 19.5 93t58.5 34q27 0 63 -20q30 -18 41 -18q23 0 25 42h66q3 -124 -78 -124q-27 0 -65 20q-30 16 -38 16q-23 0 -24 -43zM272 500q104 0 166.5 -69.5t62.5 -181.5q0 -67 -20.5 -119t-55 -81.5t-75 -44t-85.5 -14.5q-103 0 -168 67.5t-65 184.5
q0 120 66.5 189t173.5 69zM268 394q-45 0 -66.5 -44t-21.5 -105q0 -66 23 -107.5t66 -41.5q39 0 61 42t22 107q0 61 -20.5 105t-63.5 44z" />
    <glyph glyph-name="odieresis" unicode="&#xf6;" horiz-adv-x="533" 
d="M167 558h-1q-28 0 -48 20t-20 48q0 30 20 49.5t49 19.5q27 0 46 -19.5t19 -49.5q0 -29 -18.5 -48.5t-46.5 -19.5zM367 558h-2q-28 0 -47 19.5t-19 48.5q0 30 19.5 49.5t48.5 19.5q28 0 47 -19.5t19 -49.5q0 -29 -19 -48.5t-47 -19.5zM272 500q104 0 166.5 -69.5
t62.5 -181.5q0 -67 -20.5 -119t-55 -81.5t-75 -44t-85.5 -14.5q-103 0 -168 67.5t-65 184.5q0 120 66.5 189t173.5 69zM268 394q-45 0 -66.5 -44t-21.5 -105q0 -66 23 -107.5t66 -41.5q39 0 61 42t22 107q0 61 -20.5 105t-63.5 44z" />
    <glyph glyph-name="divide" unicode="&#xf7;" horiz-adv-x="596" 
d="M298 371h-1q-30 0 -48.5 19.5t-18.5 50.5t19 51t49 20q31 0 49.5 -19.5t19.5 -51.5q0 -31 -18.5 -50.5t-50.5 -19.5zM556 222h-516v90h516v-90zM298 22h-1q-30 0 -48.5 20t-18.5 50q0 31 19 51t49 20q31 0 49.5 -19.5t19.5 -51.5q0 -31 -18.5 -50.5t-50.5 -19.5z" />
    <glyph glyph-name="oslash" unicode="&#xf8;" horiz-adv-x="533" 
d="M267 500h1q59 0 109 -26l42 65l55 -35l-44 -69q71 -69 71 -189q0 -66 -20.5 -117t-55 -80.5t-74.5 -44t-83 -14.5q-63 0 -109 25l-44 -67l-52 40l43 65q-74 68 -74 190q0 118 66 187.5t169 69.5zM187 171l129 203q-20 20 -50 20q-49 0 -72 -45.5t-23 -103.5q0 -44 13 -73
zM347 313l-127 -197q16 -20 47 -20q45 0 70 40.5t25 103.5q0 41 -12 73h-3z" />
    <glyph glyph-name="ugrave" unicode="&#xf9;" horiz-adv-x="544" 
d="M121 698h133l81 -148h-98zM486 489v-334q0 -71 4 -155h-126l-7 64h-3q-48 -74 -140 -74q-76 0 -118 51.5t-42 157.5v290h146v-268q0 -112 69 -112q24 0 41 14t24 33q6 13 6 35v298h146z" />
    <glyph glyph-name="uacute" unicode="&#xfa;" horiz-adv-x="544" 
d="M297 698h132l-115 -148h-98zM486 489v-334q0 -71 4 -155h-126l-7 64h-3q-48 -74 -140 -74q-76 0 -118 51.5t-42 157.5v290h146v-268q0 -112 69 -112q24 0 41 14t24 33q6 13 6 35v298h146z" />
    <glyph glyph-name="ucircumflex" unicode="&#xfb;" horiz-adv-x="544" 
d="M223 698h99l95 -148h-96l-47 85h-2l-47 -85h-97zM486 489v-334q0 -71 4 -155h-126l-7 64h-3q-48 -74 -140 -74q-76 0 -118 51.5t-42 157.5v290h146v-268q0 -112 69 -112q24 0 41 14t24 33q6 13 6 35v298h146z" />
    <glyph glyph-name="udieresis" unicode="&#xfc;" horiz-adv-x="544" 
d="M176 558h-1q-29 0 -48.5 20t-19.5 48q0 30 20 49.5t49 19.5q27 0 46 -19.5t19 -49.5q0 -29 -18.5 -48.5t-46.5 -19.5zM376 558h-2q-28 0 -47 19.5t-19 48.5q0 30 19.5 49.5t48.5 19.5q28 0 47 -19.5t19 -49.5q0 -29 -19 -48.5t-47 -19.5zM486 489v-334q0 -71 4 -155h-126
l-7 64h-3q-48 -74 -140 -74q-76 0 -118 51.5t-42 157.5v290h146v-268q0 -112 69 -112q24 0 41 14t24 33q6 13 6 35v298h146z" />
    <glyph glyph-name="yacute" unicode="&#xfd;" horiz-adv-x="483" 
d="M274 698h132l-115 -148h-98zM6 489h160l65 -244q9 -32 22 -89h2q2 9 19 88l55 245h152l-110 -338q-42 -123 -77 -191.5t-76 -108.5q-61 -59 -136 -70l-35 124q30 7 66 30q37 24 56 60q8 13 8 22q0 11 -5 23z" />
    <glyph glyph-name="thorn" unicode="&#xfe;" horiz-adv-x="552" 
d="M56 675h145v-246h2q45 71 132 71q79 1 132 -69t53 -183q0 -125 -60.5 -191.5t-138.5 -66.5q-80 0 -117 56h-2v-242h-146v871zM202 292v-98q0 -27 12 -46q22 -44 67 -44q43 0 67.5 39t24.5 103q0 61 -23.5 99t-64.5 38q-24 0 -44 -14t-30 -37q-9 -20 -9 -40z" />
    <glyph glyph-name="ydieresis" unicode="&#xff;" horiz-adv-x="483" 
d="M152 558h-1q-29 0 -48.5 20t-19.5 48q0 30 20 49.5t49 19.5q27 0 46 -19.5t19 -49.5q0 -29 -18.5 -48.5t-46.5 -19.5zM352 558h-2q-28 0 -47 19.5t-19 48.5q0 30 19.5 49.5t48.5 19.5q28 0 47 -19.5t19 -49.5q0 -29 -19 -48.5t-47 -19.5zM6 489h160l65 -244q9 -32 22 -89
h2q2 9 19 88l55 245h152l-110 -338q-42 -123 -77 -191.5t-76 -108.5q-61 -59 -136 -70l-35 124q30 7 66 30q37 24 56 60q8 13 8 22q0 11 -5 23z" />
    <glyph glyph-name="Amacron" unicode="&#x100;" horiz-adv-x="597" 
d="M377 167h-172l-42 -167h-148l187 674h187l186 -674h-153zM225 277h133l-36 143q-5 21 -15.5 69.5t-15.5 67.5h-2q-2 -11 -12.5 -62.5t-16.5 -74.5zM170 815h251v-80h-251v80z" />
    <glyph glyph-name="amacron" unicode="&#x101;" horiz-adv-x="496" 
d="M129 663h239v-81h-239v81zM441 291v-174q0 -76 7 -117h-131l-8 49h-3q-47 -59 -131 -59q-66 0 -107.5 43.5t-41.5 105.5q0 92 73.5 139t194.5 47v8q0 64 -83 64q-69 0 -124 -34l-27 95q75 42 179 42q202 0 202 -209zM299 170v63q-131 2 -131 -79q0 -30 16 -45t41 -15
q24 0 44 14.5t27 37.5q3 11 3 24z" />
    <glyph glyph-name="Abreve" unicode="&#x102;" horiz-adv-x="597" 
d="M377 167h-172l-42 -167h-148l187 674h187l186 -674h-153zM225 277h133l-36 143q-5 21 -15.5 69.5t-15.5 67.5h-2q-2 -11 -12.5 -62.5t-16.5 -74.5zM162 831h78q4 -45 56 -45q51 0 60 45h75q-1 -56 -34.5 -89.5t-99.5 -33.5q-67 0 -100.5 33t-34.5 90z" />
    <glyph glyph-name="abreve" unicode="&#x103;" horiz-adv-x="496" 
d="M115 689h75q8 -59 57 -59q28 0 43 17t16 42h75q0 -62 -35.5 -100t-98.5 -38t-97.5 38.5t-34.5 99.5zM441 291v-174q0 -76 7 -117h-131l-8 49h-3q-47 -59 -131 -59q-66 0 -107.5 43.5t-41.5 105.5q0 92 73.5 139t194.5 47v8q0 64 -83 64q-69 0 -124 -34l-27 95
q75 42 179 42q202 0 202 -209zM299 170v63q-131 2 -131 -79q0 -30 16 -45t41 -15q24 0 44 14.5t27 37.5q3 11 3 24z" />
    <glyph glyph-name="Aogonek" unicode="&#x104;" horiz-adv-x="597" 
d="M389 674l186 -674h-71q-25 -43 -25 -71q0 -23 14.5 -37.5t35.5 -14.5q25 0 42 7l20 -69q-40 -30 -97 -30q-52 0 -80.5 27t-28.5 77q0 48 37 112l-45 166h-172l-42 -167h-148l187 674h187zM225 277h133l-36 143q-5 21 -15.5 69.5t-15.5 67.5h-2q-2 -11 -12.5 -62.5
t-16.5 -74.5z" />
    <glyph glyph-name="aogonek" unicode="&#x105;" horiz-adv-x="496" 
d="M441 291v-174q0 -78 8 -117h-50q-22 -40 -22 -74q0 -22 13 -35.5t33 -13.5t42 9l20 -70q-41 -31 -100 -31q-47 0 -74.5 26.5t-27.5 73.5q0 41 34 116l-8 48h-3q-47 -59 -131 -59q-66 0 -107.5 43.5t-41.5 105.5q0 92 73.5 139t194.5 47v8q0 64 -83 64q-69 0 -124 -34
l-27 95q75 42 179 42q202 0 202 -209zM299 170v63q-131 2 -131 -79q0 -30 16 -45t41 -15q24 0 44 14.5t27 37.5q3 11 3 24z" />
    <glyph glyph-name="Cacute" unicode="&#x106;" horiz-adv-x="535" 
d="M487 133l20 -117q-52 -25 -151 -25q-156 0 -240 93t-84 243q0 170 97 263t242 93q98 0 144 -26l-29 -118q-48 22 -108 22q-84 0 -138 -57.5t-54 -167.5q0 -106 51.5 -163.5t141.5 -57.5q65 0 108 18zM347 830h152l-123 -120h-113z" />
    <glyph glyph-name="cacute" unicode="&#x107;" horiz-adv-x="412" 
d="M273 698h132l-115 -148h-98zM379 120l16 -109q-42 -20 -121 -20q-112 0 -177 66.5t-65 182.5q0 113 70 186t193 73q60 0 103 -18l-22 -110q-32 14 -74 14q-56 0 -89.5 -39t-32.5 -101q0 -65 34.5 -102t88.5 -37q39 0 76 14z" />
    <glyph glyph-name="Ccircumflex" unicode="&#x108;" horiz-adv-x="535" 
d="M487 133l20 -117q-52 -25 -151 -25q-156 0 -240 93t-84 243q0 170 97 263t242 93q98 0 144 -26l-29 -118q-48 22 -108 22q-84 0 -138 -57.5t-54 -167.5q0 -106 51.5 -163.5t141.5 -57.5q65 0 108 18zM270 832h111l96 -119h-104l-47 59h-2l-46 -59h-102z" />
    <glyph glyph-name="ccircumflex" unicode="&#x109;" horiz-adv-x="412" 
d="M197 698h99l95 -148h-96l-47 85h-2l-47 -85h-97zM379 120l16 -109q-42 -20 -121 -20q-112 0 -177 66.5t-65 182.5q0 113 70 186t193 73q60 0 103 -18l-22 -110q-32 14 -74 14q-56 0 -89.5 -39t-32.5 -101q0 -65 34.5 -102t88.5 -37q39 0 76 14z" />
    <glyph glyph-name="Cdotaccent" unicode="&#x10a;" horiz-adv-x="535" 
d="M487 133l20 -117q-52 -25 -151 -25q-156 0 -240 93t-84 243q0 170 97 263t242 93q98 0 144 -26l-29 -118q-48 22 -108 22q-84 0 -138 -57.5t-54 -167.5q0 -106 51.5 -163.5t141.5 -57.5q65 0 108 18zM328 713h-1q-27 0 -46.5 20t-19.5 47q0 28 20 47.5t48 19.5
q27 0 46 -19.5t19 -47.5q0 -27 -19.5 -47t-46.5 -20z" />
    <glyph glyph-name="cdotaccent" unicode="&#x10b;" horiz-adv-x="412" 
d="M256 558h-1q-28 0 -47.5 19.5t-19.5 48.5q0 30 19.5 49.5t48.5 19.5q28 0 46.5 -19.5t18.5 -49.5q0 -29 -18.5 -48.5t-46.5 -19.5zM379 120l16 -109q-42 -20 -121 -20q-112 0 -177 66.5t-65 182.5q0 113 70 186t193 73q60 0 103 -18l-22 -110q-32 14 -74 14
q-56 0 -89.5 -39t-32.5 -101q0 -65 34.5 -102t88.5 -37q39 0 76 14z" />
    <glyph glyph-name="Ccaron" unicode="&#x10c;" horiz-adv-x="535" 
d="M487 133l20 -117q-52 -25 -151 -25q-156 0 -240 93t-84 243q0 170 97 263t242 93q98 0 144 -26l-29 -118q-48 22 -108 22q-84 0 -138 -57.5t-54 -167.5q0 -106 51.5 -163.5t141.5 -57.5q65 0 108 18zM387 711h-111l-96 119h104l46 -59h2l47 59h102z" />
    <glyph glyph-name="ccaron" unicode="&#x10d;" horiz-adv-x="412" 
d="M299 550h-100l-95 148h96l48 -85h2l47 85h97zM379 120l16 -109q-42 -20 -121 -20q-112 0 -177 66.5t-65 182.5q0 113 70 186t193 73q60 0 103 -18l-22 -110q-32 14 -74 14q-56 0 -89.5 -39t-32.5 -101q0 -65 34.5 -102t88.5 -37q39 0 76 14z" />
    <glyph glyph-name="Dcaron" unicode="&#x10e;" horiz-adv-x="635" 
d="M64 3v662q86 14 184 14q162 0 249 -69q106 -84 106 -259q0 -186 -106 -277q-95 -81 -280 -81q-85 0 -153 10zM210 560v-448q11 -3 44 -3q90 -1 142.5 58.5t52.5 181.5q1 103 -47.5 159.5t-135.5 56.5q-38 0 -56 -5zM346 710h-111l-96 119h104l46 -59h2l47 59h102z" />
    <glyph glyph-name="dcaron" unicode="&#x10f;" horiz-adv-x="561" 
d="M349 705h146v-559q0 -74 4 -146h-129l-6 67h-3q-20 -36 -57 -56.5t-80 -20.5q-85 0 -138.5 70.5t-53.5 180.5q-1 119 57.5 189t142.5 70q83 0 115 -54h2v259zM349 204v84q0 19 -2 27q-6 30 -26 50t-50 20q-44 0 -68 -40t-24 -101q0 -64 24.5 -100.5t66.5 -36.5
q27 0 47.5 17.5t27.5 46.5q4 12 4 33zM596 494l-61 40q29 46 29 97q0 36 -22 68l91 15q32 -23 32 -75q0 -80 -69 -145z" />
    <glyph glyph-name="Dcroat" unicode="&#x110;" horiz-adv-x="641" 
d="M2 289v111h68v266q76 14 184 14q165 0 249 -67q106 -84 106 -262q0 -187 -106 -278q-93 -81 -279 -81q-93 0 -154 9v288h-68zM332 400v-111h-116v-179q11 -3 44 -3q92 0 144 59t52 183q0 107 -48 162.5t-136 55.5q-26 0 -56 -5v-162h116z" />
    <glyph glyph-name="dcroat" unicode="&#x111;" horiz-adv-x="551" 
d="M569 538h-74v-392q0 -74 4 -146h-129l-6 67h-3q-20 -36 -57 -56.5t-80 -20.5q-85 0 -138.5 70.5t-53.5 180.5q-1 119 57.5 189t142.5 70q83 0 115 -54h2v92h-165v83h165v84h146v-84h74v-83zM349 204v84q0 19 -2 27q-6 30 -26 50t-50 20q-44 0 -68 -40t-24 -101
q0 -64 24.5 -100.5t66.5 -36.5q27 0 47.5 17.5t27.5 46.5q4 12 4 33z" />
    <glyph glyph-name="Emacron" unicode="&#x112;" horiz-adv-x="492" 
d="M430 408v-120h-220v-166h246v-122h-392v674h378v-122h-232v-144h220zM125 815h251v-80h-251v80z" />
    <glyph glyph-name="emacron" unicode="&#x113;" horiz-adv-x="495" 
d="M131 663h239v-81h-239v81zM461 196h-290q3 -48 38.5 -72t89.5 -24q65 0 122 19l20 -100q-72 -28 -165 -28q-116 0 -180 65.5t-64 180.5q0 109 61.5 186t169.5 77q101 0 152 -68t51 -173q0 -41 -5 -63zM171 297h160q1 40 -17 71.5t-59 31.5q-39 0 -60 -32t-24 -71z" />
    <glyph glyph-name="Ebreve" unicode="&#x114;" horiz-adv-x="492" 
d="M430 408v-120h-220v-166h246v-122h-392v674h378v-122h-232v-144h220zM121 834h78q4 -45 56 -45q51 0 60 45h75q-1 -56 -34.5 -89.5t-99.5 -33.5q-67 0 -100.5 33t-34.5 90z" />
    <glyph glyph-name="ebreve" unicode="&#x115;" horiz-adv-x="495" 
d="M119 689h75q8 -59 57 -59q28 0 43 17t16 42h75q0 -62 -35.5 -100t-98.5 -38t-97.5 38.5t-34.5 99.5zM461 196h-290q3 -48 38.5 -72t89.5 -24q65 0 122 19l20 -100q-72 -28 -165 -28q-116 0 -180 65.5t-64 180.5q0 109 61.5 186t169.5 77q101 0 152 -68t51 -173
q0 -41 -5 -63zM171 297h160q1 40 -17 71.5t-59 31.5q-39 0 -60 -32t-24 -71z" />
    <glyph glyph-name="Edotaccent" unicode="&#x116;" horiz-adv-x="492" 
d="M430 408v-120h-220v-166h246v-122h-392v674h378v-122h-232v-144h220zM249 714h-1q-27 0 -46.5 20t-19.5 47q0 28 20 47.5t48 19.5q27 0 46 -19.5t19 -47.5q0 -27 -19.5 -47t-46.5 -20z" />
    <glyph glyph-name="edotaccent" unicode="&#x117;" horiz-adv-x="495" 
d="M255 558h-1q-28 0 -47.5 19.5t-19.5 48.5q0 30 19.5 49.5t48.5 19.5q28 0 46.5 -19.5t18.5 -49.5q0 -29 -18.5 -48.5t-46.5 -19.5zM461 196h-290q3 -48 38.5 -72t89.5 -24q65 0 122 19l20 -100q-72 -28 -165 -28q-116 0 -180 65.5t-64 180.5q0 109 61.5 186t169.5 77
q101 0 152 -68t51 -173q0 -41 -5 -63zM171 297h160q1 40 -17 71.5t-59 31.5q-39 0 -60 -32t-24 -71z" />
    <glyph glyph-name="Eogonek" unicode="&#x118;" horiz-adv-x="492" 
d="M446 -116l19 -70q-42 -29 -104 -29q-47 0 -73.5 24t-26.5 67q0 68 70 124h-267v674h378v-122h-232v-144h220v-120h-220v-166h246v-122h-23q-66 -49 -66 -91q0 -32 37 -32q24 0 42 7z" />
    <glyph glyph-name="eogonek" unicode="&#x119;" horiz-adv-x="495" 
d="M393 -113l23 -68q-43 -34 -103 -34q-47 0 -73.5 23t-26.5 62q0 66 68 120v1h-11q-113 1 -175.5 66.5t-62.5 179.5q0 109 61.5 186t169.5 77q101 0 152 -68t51 -173q0 -43 -5 -63h-290q3 -48 38.5 -72t89.5 -24q65 0 122 19l20 -100q-9 -4 -25 -9t-17 -6q-32 -17 -58 -45
t-26 -50q0 -32 33 -32q22 0 45 10zM171 297h160q1 40 -17 71.5t-59 31.5q-39 0 -60 -32t-24 -71z" />
    <glyph glyph-name="Ecaron" unicode="&#x11a;" horiz-adv-x="492" 
d="M430 408v-120h-220v-166h246v-122h-392v674h378v-122h-232v-144h220zM307 710h-111l-96 119h104l46 -59h2l47 59h102z" />
    <glyph glyph-name="ecaron" unicode="&#x11b;" horiz-adv-x="495" 
d="M302 550h-100l-95 148h96l48 -85h2l47 85h97zM461 196h-290q3 -48 38.5 -72t89.5 -24q65 0 122 19l20 -100q-72 -28 -165 -28q-116 0 -180 65.5t-64 180.5q0 109 61.5 186t169.5 77q101 0 152 -68t51 -173q0 -41 -5 -63zM171 297h160q1 40 -17 71.5t-59 31.5
q-39 0 -60 -32t-24 -71z" />
    <glyph glyph-name="Gcircumflex" unicode="&#x11c;" horiz-adv-x="619" 
d="M570 384v-357q-95 -34 -199 -34q-160 0 -246 84q-95 90 -93 253q1 167 101 259t254 92q104 0 164 -29l-29 -120q-53 25 -133 25q-91 0 -147.5 -56t-56.5 -168q0 -106 51.5 -163t134.5 -57q44 0 60 8v147h-91v116h230zM286 832h111l96 -119h-104l-47 59h-2l-46 -59h-102z
" />
    <glyph glyph-name="gcircumflex" unicode="&#x11d;" horiz-adv-x="543" 
d="M225 699h99l95 -148h-96l-47 85h-2l-47 -85h-97zM488 341v-275q0 -150 -70 -214q-66 -58 -187 -58q-99 0 -160 33l29 111q58 -32 127 -32q54 0 85 31.5t31 94.5v31h-2q-39 -59 -118 -59q-87 0 -139 68t-52 170q0 116 59 187t146 71q80 0 121 -66h2l5 55h127
q-4 -70 -4 -148zM342 206v90q0 13 -4 31q-7 26 -25.5 42.5t-44.5 16.5q-40 0 -64.5 -38.5t-24.5 -102.5q0 -59 23.5 -95.5t64.5 -36.5q25 0 43.5 14.5t26.5 39.5q5 14 5 39z" />
    <glyph glyph-name="Gbreve" unicode="&#x11e;" horiz-adv-x="619" 
d="M570 384v-357q-95 -34 -199 -34q-160 0 -246 84q-95 90 -93 253q1 167 101 259t254 92q104 0 164 -29l-29 -120q-53 25 -133 25q-91 0 -147.5 -56t-56.5 -168q0 -106 51.5 -163t134.5 -57q44 0 60 8v147h-91v116h230zM212 836h78q4 -45 56 -45q51 0 60 45h75
q-1 -56 -34.5 -89.5t-99.5 -33.5q-67 0 -100.5 33t-34.5 90z" />
    <glyph glyph-name="gbreve" unicode="&#x11f;" horiz-adv-x="543" 
d="M141 689h75q8 -59 57 -59q28 0 43 17t16 42h75q0 -62 -35.5 -100t-98.5 -38t-97.5 38.5t-34.5 99.5zM488 341v-275q0 -150 -70 -214q-66 -58 -187 -58q-99 0 -160 33l29 111q58 -32 127 -32q54 0 85 31.5t31 94.5v31h-2q-39 -59 -118 -59q-87 0 -139 68t-52 170
q0 116 59 187t146 71q80 0 121 -66h2l5 55h127q-4 -70 -4 -148zM342 206v90q0 13 -4 31q-7 26 -25.5 42.5t-44.5 16.5q-40 0 -64.5 -38.5t-24.5 -102.5q0 -59 23.5 -95.5t64.5 -36.5q25 0 43.5 14.5t26.5 39.5q5 14 5 39z" />
    <glyph glyph-name="Gdotaccent" unicode="&#x120;" horiz-adv-x="619" 
d="M570 384v-357q-95 -34 -199 -34q-160 0 -246 84q-95 90 -93 253q1 167 101 259t254 92q104 0 164 -29l-29 -120q-53 25 -133 25q-91 0 -147.5 -56t-56.5 -168q0 -106 51.5 -163t134.5 -57q44 0 60 8v147h-91v116h230zM345 713h-1q-27 0 -46.5 20t-19.5 47q0 28 20 47.5
t48 19.5q27 0 46 -19.5t19 -47.5q0 -27 -19.5 -47t-46.5 -20z" />
    <glyph glyph-name="gdotaccent" unicode="&#x121;" horiz-adv-x="543" 
d="M273 559h-1q-28 0 -47.5 19.5t-19.5 48.5q0 30 19.5 49.5t48.5 19.5q28 0 46.5 -19.5t18.5 -49.5q0 -29 -18.5 -48.5t-46.5 -19.5zM488 341v-275q0 -150 -70 -214q-66 -58 -187 -58q-99 0 -160 33l29 111q58 -32 127 -32q54 0 85 31.5t31 94.5v31h-2q-39 -59 -118 -59
q-87 0 -139 68t-52 170q0 116 59 187t146 71q80 0 121 -66h2l5 55h127q-4 -70 -4 -148zM342 206v90q0 13 -4 31q-7 26 -25.5 42.5t-44.5 16.5q-40 0 -64.5 -38.5t-24.5 -102.5q0 -59 23.5 -95.5t64.5 -36.5q25 0 43.5 14.5t26.5 39.5q5 14 5 39z" />
    <glyph glyph-name="Gcommaaccent" unicode="&#x122;" horiz-adv-x="619" 
d="M570 384v-357q-95 -34 -199 -34q-160 0 -246 84q-95 90 -93 253q1 167 101 259t254 92q104 0 164 -29l-29 -120q-53 25 -133 25q-91 0 -147.5 -56t-56.5 -168q0 -106 51.5 -163t134.5 -57q44 0 60 8v147h-91v116h230zM263 -236l-22 62q25 6 44 21t19 37q0 28 -30 60
l103 16q38 -26 38 -77q0 -56 -42.5 -86t-109.5 -33z" />
    <glyph glyph-name="gcommaaccent" unicode="&#x123;" horiz-adv-x="543" 
d="M488 341v-275q0 -150 -70 -214q-66 -58 -187 -58q-99 0 -160 33l29 111q58 -32 127 -32q54 0 85 31.5t31 94.5v31h-2q-39 -59 -118 -59q-87 0 -139 68t-52 170q0 116 59 187t146 71q80 0 121 -66h2l5 55h127q-4 -70 -4 -148zM342 206v90q0 13 -4 31q-7 26 -25.5 42.5
t-44.5 16.5q-40 0 -64.5 -38.5t-24.5 -102.5q0 -59 23.5 -95.5t64.5 -36.5q25 0 43.5 14.5t26.5 39.5q5 14 5 39zM345 724l22 -54q-70 -11 -70 -59q0 -29 32 -57l-97 -15q-39 29 -39 73q0 53 42.5 81t109.5 31z" />
    <glyph glyph-name="Hcircumflex" unicode="&#x124;" horiz-adv-x="637" 
d="M64 674h146v-263h217v263h146v-674h-146v282h-217v-282h-146v674zM263 829h111l96 -119h-104l-47 59h-2l-46 -59h-102z" />
    <glyph glyph-name="hcircumflex" unicode="&#x125;" horiz-adv-x="547" 
d="M56 0v705h146v-272h2q23 30 55 48q35 19 75 19q73 0 115.5 -54t42.5 -157v-289h-147v277q0 103 -69 103q-50 0 -69 -51q-5 -15 -5 -35v-294h-146zM77 850h111l96 -119h-104l-47 59h-2l-46 -59h-102z" />
    <glyph glyph-name="Hbar" unicode="&#x126;" horiz-adv-x="645" 
d="M635 471h-58v-471h-146v259h-217v-259h-146v471h-58v90h58v113h146v-113h217v113h146v-113h58v-90zM431 388v83h-217v-83h217z" />
    <glyph glyph-name="hbar" unicode="&#x127;" horiz-adv-x="547" 
d="M492 0h-147v277q0 103 -69 103q-50 0 -69 -51q-5 -15 -5 -35v-294h-146v538h-73v83h73v84h146v-84h168v-83h-168v-105h2q23 30 55 48q38 19 75 19q73 0 115.5 -54t42.5 -157v-289z" />
    <glyph glyph-name="Itilde" unicode="&#x128;" horiz-adv-x="274" 
d="M64 674h146v-674h-146v674zM70 716h-66q-2 59 18 91t55 32q30 0 61 -18q30 -19 42 -19t17.5 8.5t8.5 32.5h65q4 -121 -76 -121q-31 0 -61 17q-29 17 -41 17q-20 0 -23 -40z" />
    <glyph glyph-name="itilde" unicode="&#x129;" horiz-adv-x="259" 
d="M61 558h-68q-2 59 19.5 93t58.5 34q27 0 63 -20q30 -18 41 -18q23 0 25 42h66q3 -124 -78 -124q-27 0 -65 20q-30 16 -38 16q-23 0 -24 -43zM202 0h-146v489h146v-489z" />
    <glyph glyph-name="Imacron" unicode="&#x12a;" horiz-adv-x="274" 
d="M64 674h146v-674h-146v674zM12 815h251v-80h-251v80z" />
    <glyph glyph-name="imacron" unicode="&#x12b;" horiz-adv-x="259" 
d="M10 663h239v-81h-239v81zM202 0h-146v489h146v-489z" />
    <glyph glyph-name="Ibreve" unicode="&#x12c;" horiz-adv-x="274" 
d="M64 674h146v-674h-146v674zM2 836h78q4 -45 56 -45q51 0 60 45h75q-1 -56 -34.5 -89.5t-99.5 -33.5q-67 0 -100.5 33t-34.5 90z" />
    <glyph glyph-name="ibreve" unicode="&#x12d;" horiz-adv-x="259" 
d="M-3 689h75q8 -59 57 -59q28 0 43 17t16 42h75q0 -62 -35.5 -100t-98.5 -38t-97.5 38.5t-34.5 99.5zM202 0h-146v489h146v-489z" />
    <glyph glyph-name="Iogonek" unicode="&#x12e;" horiz-adv-x="274" 
d="M210 674v-674h-63q-23 -42 -23 -72q0 -24 14 -38t36 -14q24 0 42 6l20 -69q-39 -29 -98 -29q-51 0 -79.5 26.5t-28.5 75.5t34 114v674h146z" />
    <glyph glyph-name="iogonek" unicode="&#x12f;" horiz-adv-x="259" 
d="M128 550h-1q-33 0 -55 22t-22 54q0 34 22 55.5t57 21.5t56.5 -21.5t21.5 -55.5q1 -33 -21 -54.5t-58 -21.5zM202 489v-489h-63q-23 -42 -23 -72q0 -23 14.5 -37.5t35.5 -14.5q23 0 43 6l19 -69q-39 -29 -97 -29q-52 0 -80.5 26.5t-28.5 76.5q0 41 34 113v489h146z" />
    <glyph glyph-name="Idotaccent" unicode="&#x130;" horiz-adv-x="274" 
d="M64 674h146v-674h-146v674zM138 714h-1q-27 0 -46.5 20t-19.5 47q0 28 20 47.5t48 19.5q27 0 46 -19.5t19 -47.5q0 -27 -19.5 -47t-46.5 -20z" />
    <glyph glyph-name="dotlessi" unicode="&#x131;" horiz-adv-x="259" 
d="M202 0h-146v489h146v-489z" />
    <glyph glyph-name="IJ" unicode="&#x132;" horiz-adv-x="650" 
d="M64 674h146v-674h-146v674zM447 237v437h146v-436q0 -136 -58.5 -192t-166.5 -56q-58 0 -97 14l15 119q30 -10 67 -10q46 0 70 27t24 97z" />
    <glyph glyph-name="ij" unicode="&#x133;" horiz-adv-x="530" 
d="M202 0h-146v489h146v-489zM129 698q34 0 55 -21t21 -54q1 -32 -20.5 -53t-57.5 -21q-33 0 -54 21t-20 53q-1 33 20.5 54t55.5 21zM233 -210l-13 114q58 5 82 30q28 29 28 151v404h146v-437q0 -146 -68 -208q-60 -54 -175 -54zM402 698q34 0 55 -21t22 -54
q0 -32 -21.5 -53t-56.5 -21q-33 0 -54.5 21t-20.5 53q-1 33 20.5 54t55.5 21z" />
    <glyph glyph-name="Jcircumflex" unicode="&#x134;" horiz-adv-x="376" 
d="M173 237v437h146v-436q0 -136 -58.5 -192t-166.5 -56q-58 0 -97 14l15 119q30 -10 67 -10q46 0 70 27t24 97zM189 829h111l96 -119h-104l-47 59h-2l-46 -59h-102z" />
    <glyph glyph-name="jcircumflex" unicode="&#x135;" horiz-adv-x="271" 
d="M-26 -210l-13 114q58 5 82 30q28 29 28 151v404h146v-437q0 -146 -68 -208q-60 -54 -175 -54zM88 696h99l95 -148h-96l-47 85h-2l-47 -85h-97z" />
    <glyph glyph-name="Kcommaaccent" unicode="&#x136;" horiz-adv-x="568" 
d="M64 0v674h145v-300h2q24 47 43 78l133 222h175l-202 -289l211 -385h-168l-145 287l-49 -66v-221h-145zM221 -235l-22 62q25 6 44 21t19 37q0 28 -30 60l103 16q38 -26 38 -77q0 -56 -42.5 -86t-109.5 -33z" />
    <glyph glyph-name="kcommaaccent" unicode="&#x137;" horiz-adv-x="504" 
d="M202 705v-425h2q18 39 32 62l88 147h171l-159 -200l178 -289h-175l-103 201l-34 -47v-154h-146v705h146zM185 -237l-22 63q26 6 44.5 21t18.5 37q0 28 -30 60l103 16q38 -26 38 -77q0 -56 -42.5 -86t-109.5 -34z" />
    <glyph glyph-name="kgreenlandic" unicode="&#x138;" horiz-adv-x="504" 
d="M202 489v-209h2q18 39 32 62l88 147h171l-159 -200l178 -289h-175l-103 201l-34 -47v-154h-146v489h146z" />
    <glyph glyph-name="Lacute" unicode="&#x139;" horiz-adv-x="471" 
d="M64 0v674h146v-551h239v-123h-385zM163 830h152l-123 -120h-113z" />
    <glyph glyph-name="lacute" unicode="&#x13a;" horiz-adv-x="260" 
d="M56 0v705h146v-705h-146zM141 855h152l-123 -120h-113z" />
    <glyph glyph-name="Lcommaaccent" unicode="&#x13b;" horiz-adv-x="471" 
d="M64 0v674h146v-551h239v-123h-385zM171 -236l-22 62q25 6 44 21t19 37q0 28 -30 60l103 16q38 -26 38 -77q0 -56 -42.5 -86t-109.5 -33z" />
    <glyph glyph-name="lcommaaccent" unicode="&#x13c;" horiz-adv-x="260" 
d="M56 0v705h146v-705h-146zM55 -237l-22 63q26 6 44.5 21t18.5 37q0 28 -30 60l103 16q38 -26 38 -77q0 -56 -42.5 -86t-109.5 -34z" />
    <glyph glyph-name="Lcaron" unicode="&#x13d;" horiz-adv-x="471" 
d="M64 0v674h146v-551h239v-123h-385zM277 487l-22 62q25 6 44 21t19 37q0 28 -30 60l103 16q38 -26 38 -77q0 -56 -42.5 -86t-109.5 -33z" />
    <glyph glyph-name="lcaron" unicode="&#x13e;" horiz-adv-x="269" 
d="M56 0v705h146v-705h-146zM304 494l-65 40q29 50 29 97q0 37 -23 68l92 15q32 -24 32 -78q0 -36 -15.5 -70.5t-23.5 -43.5t-26 -28z" />
    <glyph glyph-name="Ldot" unicode="&#x13f;" horiz-adv-x="471" 
d="M64 0v674h146v-551h239v-123h-385zM356 308h-1q-27 0 -46.5 20t-19.5 47q0 28 20 47.5t48 19.5q27 0 46 -19.5t19 -47.5q0 -27 -19.5 -47t-46.5 -20z" />
    <glyph glyph-name="ldot" unicode="&#x140;" horiz-adv-x="344" 
d="M56 0v705h146v-705h-146zM303 337h-1q-26 0 -43.5 19t-17.5 47t18 47t44 19t43 -18.5t17 -47.5q0 -28 -17 -47t-43 -19z" />
    <glyph glyph-name="Lslash" unicode="&#x141;" horiz-adv-x="477" 
d="M454 0h-385v235l-71 -50v107l71 50v332h146v-234l116 81v-107l-116 -81v-210h239v-123z" />
    <glyph glyph-name="lslash" unicode="&#x142;" horiz-adv-x="269" 
d="M207 0h-146v243l-61 -50v109l61 50v353h146v-251l67 54v-109l-67 -54v-345z" />
    <glyph glyph-name="Nacute" unicode="&#x143;" horiz-adv-x="638" 
d="M196 0h-132v674h160l129 -252q51 -95 99 -221h2q-12 126 -12 291v182h132v-674h-148l-131 259q-63 121 -103 227h-3q7 -116 7 -299v-187zM333 830h152l-123 -120h-113z" />
    <glyph glyph-name="nacute" unicode="&#x144;" horiz-adv-x="547" 
d="M289 698h132l-115 -148h-98zM56 0v336q0 65 -4 153h127l7 -64h2q49 75 142 75q75 0 118.5 -52.5t43.5 -150.5v-297h-147v282q0 98 -68 98q-50 0 -69 -53q-6 -15 -6 -40v-287h-146z" />
    <glyph glyph-name="Ncommaaccent" unicode="&#x145;" horiz-adv-x="638" 
d="M196 0h-132v674h160l129 -252q51 -95 99 -221h2q-12 126 -12 291v182h132v-674h-148l-131 259q-63 121 -103 227h-3q7 -116 7 -299v-187zM252 -232l-22 62q25 6 44 21t19 37q0 28 -30 60l103 16q38 -26 38 -77q0 -56 -42.5 -86t-109.5 -33z" />
    <glyph glyph-name="ncommaaccent" unicode="&#x146;" horiz-adv-x="547" 
d="M56 0v336q0 65 -4 153h127l7 -64h2q49 75 142 75q75 0 118.5 -52.5t43.5 -150.5v-297h-147v282q0 98 -68 98q-50 0 -69 -53q-6 -15 -6 -40v-287h-146zM207 -236l-22 63q26 6 44.5 21t18.5 37q0 28 -30 60l103 16q38 -26 38 -77q0 -56 -42.5 -86t-109.5 -34z" />
    <glyph glyph-name="Ncaron" unicode="&#x147;" horiz-adv-x="638" 
d="M196 0h-132v674h160l129 -252q51 -95 99 -221h2q-12 126 -12 291v182h132v-674h-148l-131 259q-63 121 -103 227h-3q7 -116 7 -299v-187zM378 709h-111l-96 119h104l46 -59h2l47 59h102z" />
    <glyph glyph-name="ncaron" unicode="&#x148;" horiz-adv-x="547" 
d="M323 550h-100l-95 148h96l48 -85h2l47 85h97zM56 0v336q0 65 -4 153h127l7 -64h2q49 75 142 75q75 0 118.5 -52.5t43.5 -150.5v-297h-147v282q0 98 -68 98q-50 0 -69 -53q-6 -15 -6 -40v-287h-146z" />
    <glyph glyph-name="napostrophe" unicode="&#x149;" horiz-adv-x="547" 
d="M56 0v336q0 65 -4 153h127l7 -64h2q49 75 142 75q75 0 118.5 -52.5t43.5 -150.5v-297h-147v282q0 98 -68 98q-50 0 -69 -53q-6 -15 -6 -40v-287h-146zM69 523l-65 39q31 45 31 84q0 33 -23 56l96 21q13 -8 22.5 -27.5t9.5 -45.5q0 -67 -71 -127z" />
    <glyph glyph-name="Eng" unicode="&#x14a;" horiz-adv-x="638" 
d="M196 0h-132v674h160l129 -252q51 -95 99 -221h2q-12 126 -12 291v182h132v-631q0 -227 -209 -254l-33 110q92 24 102 86l-139 274q-63 121 -103 227h-3q7 -116 7 -299v-187z" />
    <glyph glyph-name="eng" unicode="&#x14b;" horiz-adv-x="547" 
d="M56 0v336q0 65 -4 153h127l7 -64h2q49 75 142 75q75 0 118.5 -52.5t43.5 -150.5v-245q0 -222 -197 -245l-29 112q41 9 60 34t19 77v252q0 98 -68 98q-50 0 -69 -53q-6 -15 -6 -40v-287h-146z" />
    <glyph glyph-name="Omacron" unicode="&#x14c;" horiz-adv-x="646" 
d="M328 684q93 0 159.5 -48.5t97 -123.5t30.5 -167q0 -170 -81 -262.5t-216 -92.5t-210.5 97.5t-75.5 246.5q0 151 80.5 250.5t215.5 99.5zM324 565q-65 0 -101.5 -63t-36.5 -166q0 -104 37 -165.5t102 -61.5q64 0 100 64t36 167q0 96 -36 160.5t-101 64.5zM198 816h251v-80
h-251v80z" />
    <glyph glyph-name="omacron" unicode="&#x14d;" horiz-adv-x="533" 
d="M147 663h239v-81h-239v81zM272 500q104 0 166.5 -69.5t62.5 -181.5q0 -67 -20.5 -119t-55 -81.5t-75 -44t-85.5 -14.5q-103 0 -168 67.5t-65 184.5q0 120 66.5 189t173.5 69zM268 394q-45 0 -66.5 -44t-21.5 -105q0 -66 23 -107.5t66 -41.5q39 0 61 42t22 107
q0 61 -20.5 105t-63.5 44z" />
    <glyph glyph-name="Obreve" unicode="&#x14e;" horiz-adv-x="646" 
d="M328 684q93 0 159.5 -48.5t97 -123.5t30.5 -167q0 -170 -81 -262.5t-216 -92.5t-210.5 97.5t-75.5 246.5q0 151 80.5 250.5t215.5 99.5zM324 565q-65 0 -101.5 -63t-36.5 -166q0 -104 37 -165.5t102 -61.5q64 0 100 64t36 167q0 96 -36 160.5t-101 64.5zM188 840h78
q4 -45 56 -45q51 0 60 45h75q-1 -56 -34.5 -89.5t-99.5 -33.5q-67 0 -100.5 33t-34.5 90z" />
    <glyph glyph-name="obreve" unicode="&#x14f;" horiz-adv-x="533" 
d="M133 689h75q8 -59 57 -59q28 0 43 17t16 42h75q0 -62 -35.5 -100t-98.5 -38t-97.5 38.5t-34.5 99.5zM272 500q104 0 166.5 -69.5t62.5 -181.5q0 -67 -20.5 -119t-55 -81.5t-75 -44t-85.5 -14.5q-103 0 -168 67.5t-65 184.5q0 120 66.5 189t173.5 69zM268 394
q-45 0 -66.5 -44t-21.5 -105q0 -66 23 -107.5t66 -41.5q39 0 61 42t22 107q0 61 -20.5 105t-63.5 44z" />
    <glyph glyph-name="Ohungarumlaut" unicode="&#x150;" horiz-adv-x="646" 
d="M328 684q93 0 159.5 -48.5t97 -123.5t30.5 -167q0 -170 -81 -262.5t-216 -92.5t-210.5 97.5t-75.5 246.5q0 151 80.5 250.5t215.5 99.5zM324 565q-65 0 -101.5 -63t-36.5 -166q0 -104 37 -165.5t102 -61.5q64 0 100 64t36 167q0 96 -36 160.5t-101 64.5zM256 832h131
l-99 -114h-95zM426 832h132l-99 -114h-95z" />
    <glyph glyph-name="ohungarumlaut" unicode="&#x151;" horiz-adv-x="533" 
d="M194 697h112l-98 -146h-80zM357 697h112l-98 -146h-80zM272 500q104 0 166.5 -69.5t62.5 -181.5q0 -67 -20.5 -119t-55 -81.5t-75 -44t-85.5 -14.5q-103 0 -168 67.5t-65 184.5q0 120 66.5 189t173.5 69zM268 394q-45 0 -66.5 -44t-21.5 -105q0 -66 23 -107.5t66 -41.5
q39 0 61 42t22 107q0 61 -20.5 105t-63.5 44z" />
    <glyph glyph-name="OE" unicode="&#x152;" horiz-adv-x="850" 
d="M814 122v-122h-345q-6 0 -56 -5q-33 -5 -70 -5q-106 0 -178 49.5t-102.5 124.5t-30.5 169q0 157 85 254t230 97q41 0 76 -5q8 -1 20 -2t20 -2t15 -1h322v-122h-232v-144h219v-120h-219v-166h246zM422 120v432q-28 13 -68 13q-72 0 -120.5 -59t-47.5 -168q-1 -107 46 -168
t130 -61q36 0 60 11z" />
    <glyph glyph-name="oe" unicode="&#x153;" horiz-adv-x="808" 
d="M775 200h-286q3 -48 38 -74.5t86 -26.5q62 0 124 23l19 -98q-60 -34 -163 -34q-116 0 -171 85h-2q-55 -85 -168 -85q-96 0 -158 68.5t-62 184.5q0 118 65 187.5t165 69.5q51 0 93.5 -22t64.5 -64h2q57 86 161 86q98 0 147 -69t49 -172q0 -39 -4 -59zM268 394h-1
q-46 0 -66.5 -44.5t-20.5 -105.5q0 -65 22.5 -106.5t64.5 -41.5t63.5 41t21.5 109q0 62 -21 105t-63 43zM488 297h156q2 102 -74 102q-39 0 -60 -32t-22 -70z" />
    <glyph glyph-name="Racute" unicode="&#x154;" horiz-adv-x="556" 
d="M64 0v665q81 14 185 14q142 0 206 -53q60 -48 60 -141q0 -58 -33 -102.5t-82 -63.5v-3q63 -25 88 -128q39 -163 51 -188h-150q-16 30 -43 158q-12 61 -34 84t-66 24h-37v-266h-145zM209 564v-191h49q52 0 81.5 27.5t29.5 72.5t-26.5 70t-76.5 25q-39 0 -57 -4zM282 831
h152l-123 -120h-113z" />
    <glyph glyph-name="racute" unicode="&#x155;" horiz-adv-x="354" 
d="M201 698h132l-115 -148h-98zM56 0v332q0 100 -4 157h126l6 -84h3q17 46 51.5 70.5t70.5 24.5q16 0 31 -3v-139q-17 3 -37 3q-37 0 -63 -19.5t-34 -55.5q-4 -20 -4 -38v-248h-146z" />
    <glyph glyph-name="Rcommaaccent" unicode="&#x156;" horiz-adv-x="556" 
d="M64 0v665q81 14 185 14q142 0 206 -53q60 -48 60 -141q0 -58 -33 -102.5t-82 -63.5v-3q63 -25 88 -128q39 -163 51 -188h-150q-16 30 -43 158q-12 61 -34 84t-66 24h-37v-266h-145zM209 564v-191h49q52 0 81.5 27.5t29.5 72.5t-26.5 70t-76.5 25q-39 0 -57 -4zM211 -234
l-22 62q25 6 44 21t19 37q0 28 -30 60l103 16q38 -26 38 -77q0 -56 -42.5 -86t-109.5 -33z" />
    <glyph glyph-name="rcommaaccent" unicode="&#x157;" horiz-adv-x="354" 
d="M56 0v332q0 100 -4 157h126l6 -84h3q17 46 51.5 70.5t70.5 24.5q16 0 31 -3v-139q-17 3 -37 3q-37 0 -63 -19.5t-34 -55.5q-4 -20 -4 -38v-248h-146zM67 -237l-22 63q26 6 44.5 21t18.5 37q0 28 -30 60l103 16q38 -26 38 -77q0 -56 -42.5 -86t-109.5 -34z" />
    <glyph glyph-name="Rcaron" unicode="&#x158;" horiz-adv-x="556" 
d="M64 0v665q81 14 185 14q142 0 206 -53q60 -48 60 -141q0 -58 -33 -102.5t-82 -63.5v-3q63 -25 88 -128q39 -163 51 -188h-150q-16 30 -43 158q-12 61 -34 84t-66 24h-37v-266h-145zM209 564v-191h49q52 0 81.5 27.5t29.5 72.5t-26.5 70t-76.5 25q-39 0 -57 -4zM329 711
h-111l-96 119h104l46 -59h2l47 59h102z" />
    <glyph glyph-name="rcaron" unicode="&#x159;" horiz-adv-x="354" 
d="M238 550h-100l-95 148h96l48 -85h2l47 85h97zM56 0v332q0 100 -4 157h126l6 -84h3q17 46 51.5 70.5t70.5 24.5q16 0 31 -3v-139q-17 3 -37 3q-37 0 -63 -19.5t-34 -55.5q-4 -20 -4 -38v-248h-146z" />
    <glyph glyph-name="Sacute" unicode="&#x15a;" horiz-adv-x="496" 
d="M36 28l27 122q70 -37 151 -37q50 0 76.5 20t26.5 54q0 32 -24 53.5t-81 45.5q-168 71 -168 196q0 87 65 144t177 57q90 0 152 -31l-30 -119q-58 29 -124 29q-45 0 -69 -19t-24 -47q0 -31 24 -50t91 -48q158 -69 158 -199q0 -91 -67 -149.5t-189 -58.5q-50 0 -98 11
t-74 26zM272 831h152l-123 -120h-113z" />
    <glyph glyph-name="sacute" unicode="&#x15b;" horiz-adv-x="401" 
d="M226 698h132l-115 -148h-98zM28 23l27 105q55 -33 118 -33q61 0 61 41q0 19 -14 31.5t-53 28.5q-128 50 -128 144q0 69 52 114.5t136 45.5q72 0 126 -27l-25 -102q-48 25 -95 25q-55 0 -55 -40q0 -17 15 -28.5t57 -29.5q121 -47 123 -150q0 -72 -52.5 -114.5
t-147.5 -42.5q-89 0 -145 32z" />
    <glyph glyph-name="Scircumflex" unicode="&#x15c;" horiz-adv-x="496" 
d="M36 28l27 122q70 -37 151 -37q50 0 76.5 20t26.5 54q0 32 -24 53.5t-81 45.5q-168 71 -168 196q0 87 65 144t177 57q90 0 152 -31l-30 -119q-58 29 -124 29q-45 0 -69 -19t-24 -47q0 -31 24 -50t91 -48q158 -69 158 -199q0 -91 -67 -149.5t-189 -58.5q-50 0 -98 11
t-74 26zM196 830h111l96 -119h-104l-47 59h-2l-46 -59h-102z" />
    <glyph glyph-name="scircumflex" unicode="&#x15d;" horiz-adv-x="401" 
d="M153 698h99l95 -148h-96l-47 85h-2l-47 -85h-97zM28 23l27 105q55 -33 118 -33q61 0 61 41q0 19 -14 31.5t-53 28.5q-128 50 -128 144q0 69 52 114.5t136 45.5q72 0 126 -27l-25 -102q-48 25 -95 25q-55 0 -55 -40q0 -17 15 -28.5t57 -29.5q121 -47 123 -150
q0 -72 -52.5 -114.5t-147.5 -42.5q-89 0 -145 32z" />
    <glyph glyph-name="Scedilla" unicode="&#x15e;" horiz-adv-x="496" 
d="M36 28l27 122q70 -37 151 -37q50 0 76.5 20t26.5 54q0 32 -24 53.5t-81 45.5q-168 71 -168 196q0 87 65 144t177 57q90 0 152 -31l-30 -119q-58 29 -124 29q-45 0 -69 -19t-24 -47q0 -31 24 -50t91 -48q158 -69 158 -199q0 -75 -45.5 -129t-132.5 -71l-23 -43
q30 -4 50.5 -23.5t20.5 -47.5q0 -46 -33.5 -67.5t-84.5 -21.5q-47 0 -79 20l20 56q30 -16 54 -16q34 0 34 26q0 30 -75 36l35 73h-2q-43 0 -91 10.5t-76 26.5z" />
    <glyph glyph-name="scedilla" unicode="&#x15f;" horiz-adv-x="401" 
d="M28 23l27 105q55 -33 118 -33q61 0 61 41q0 19 -14 31.5t-53 28.5q-128 50 -128 144q1 69 52.5 114.5t135.5 45.5q72 0 126 -27l-25 -102q-48 25 -95 25q-55 0 -55 -40q0 -17 15 -28.5t57 -29.5q123 -48 123 -150q0 -58 -35 -98t-101 -53l-23 -41q29 -4 50 -23.5
t21 -48.5q0 -45 -33.5 -66.5t-84.5 -21.5q-47 0 -79 20l20 56q27 -16 54 -16q34 0 34 26q0 30 -75 36l35 73h-1q-67 0 -127 32z" />
    <glyph glyph-name="Scaron" unicode="&#x160;" horiz-adv-x="496" 
d="M36 28l27 122q70 -37 151 -37q50 0 76.5 20t26.5 54q0 32 -24 53.5t-81 45.5q-168 71 -168 196q0 87 65 144t177 57q90 0 152 -31l-30 -119q-58 29 -124 29q-45 0 -69 -19t-24 -47q0 -31 24 -50t91 -48q158 -69 158 -199q0 -91 -67 -149.5t-189 -58.5q-50 0 -98 11
t-74 26zM314 711h-111l-96 119h104l46 -59h2l47 59h102z" />
    <glyph glyph-name="scaron" unicode="&#x161;" horiz-adv-x="401" 
d="M253 550h-100l-95 148h96l48 -85h2l47 85h97zM28 23l27 105q55 -33 118 -33q61 0 61 41q0 19 -14 31.5t-53 28.5q-128 50 -128 144q0 69 52 114.5t136 45.5q72 0 126 -27l-25 -102q-48 25 -95 25q-55 0 -55 -40q0 -17 15 -28.5t57 -29.5q121 -47 123 -150
q0 -72 -52.5 -114.5t-147.5 -42.5q-89 0 -145 32z" />
    <glyph glyph-name="Tcommaaccent" unicode="&#x162;" horiz-adv-x="501" 
d="M177 0v548h-163v126h474v-126h-165v-548h-146zM174 -236l-22 62q25 6 44 21t19 37q0 28 -30 60l103 16q38 -26 38 -77q0 -56 -42.5 -86t-109.5 -33z" />
    <glyph glyph-name="tcommaaccent" unicode="&#x163;" horiz-adv-x="350" 
d="M78 579l143 41v-131h106v-106h-106v-191q0 -44 13.5 -63t43.5 -19q25 0 42 4l2 -111q-34 -12 -93 -12q-72 0 -109 39q-42 42 -42 143v210h-63v106h63v90zM117 -238l-22 63q26 6 44.5 21t18.5 37q0 28 -30 60l103 16q38 -26 38 -77q0 -56 -42.5 -86t-109.5 -34z" />
    <glyph glyph-name="Tcaron" unicode="&#x164;" horiz-adv-x="501" 
d="M177 0v548h-163v126h474v-126h-165v-548h-146zM306 710h-111l-96 119h104l46 -59h2l47 59h102z" />
    <glyph glyph-name="tcaron" unicode="&#x165;" horiz-adv-x="356" 
d="M78 579l143 41v-131h106v-106h-106v-191q0 -44 13.5 -63t43.5 -19q25 0 42 4l2 -111q-34 -12 -93 -12q-72 0 -109 39q-42 42 -42 143v210h-63v106h63v90zM325 539l-42 49q13 10 22.5 30.5t9.5 41.5q0 30 -20 56l95 15q32 -23 32 -69q0 -48 -31.5 -80t-65.5 -43z" />
    <glyph glyph-name="Tbar" unicode="&#x166;" horiz-adv-x="501" 
d="M488 548h-165v-165h104v-90h-104v-293h-146v293h-106v90h106v165h-163v126h474v-126z" />
    <glyph glyph-name="tbar" unicode="&#x167;" horiz-adv-x="350" 
d="M327 383h-106v-70h81v-81h-81v-48q0 -74 57 -74q25 0 42 4l2 -111q-34 -12 -93 -12q-72 0 -109 39q-42 42 -42 143v59h-61v81h61v70h-63v106h63v90l143 41v-131h106v-106z" />
    <glyph glyph-name="Utilde" unicode="&#x168;" horiz-adv-x="627" 
d="M62 674h146v-403q0 -162 105 -162q106 0 106 162v403h146v-389q0 -147 -66 -221t-190 -74q-247 0 -247 296v388zM246 716h-66q-2 59 18 91t55 32q30 0 61 -18q30 -19 42 -19t17.5 8.5t8.5 32.5h65q4 -121 -76 -121q-31 0 -61 17q-29 17 -41 17q-20 0 -23 -40z" />
    <glyph glyph-name="utilde" unicode="&#x169;" horiz-adv-x="544" 
d="M204 558h-68q-2 59 19.5 93t58.5 34q27 0 63 -20q30 -18 41 -18q23 0 25 42h66q3 -124 -78 -124q-27 0 -65 20q-30 16 -38 16q-23 0 -24 -43zM486 489v-334q0 -71 4 -155h-126l-7 64h-3q-48 -74 -140 -74q-76 0 -118 51.5t-42 157.5v290h146v-268q0 -112 69 -112
q24 0 41 14t24 33q6 13 6 35v298h146z" />
    <glyph glyph-name="Umacron" unicode="&#x16a;" horiz-adv-x="627" 
d="M62 674h146v-403q0 -162 105 -162q106 0 106 162v403h146v-389q0 -147 -66 -221t-190 -74q-247 0 -247 296v388zM188 815h251v-80h-251v80z" />
    <glyph glyph-name="umacron" unicode="&#x16b;" horiz-adv-x="544" 
d="M153 663h239v-81h-239v81zM486 489v-334q0 -71 4 -155h-126l-7 64h-3q-48 -74 -140 -74q-76 0 -118 51.5t-42 157.5v290h146v-268q0 -112 69 -112q24 0 41 14t24 33q6 13 6 35v298h146z" />
    <glyph glyph-name="Ubreve" unicode="&#x16c;" horiz-adv-x="627" 
d="M62 674h146v-403q0 -162 105 -162q106 0 106 162v403h146v-389q0 -147 -66 -221t-190 -74q-247 0 -247 296v388zM178 832h78q4 -45 56 -45q51 0 60 45h75q-1 -56 -34.5 -89.5t-99.5 -33.5q-67 0 -100.5 33t-34.5 90z" />
    <glyph glyph-name="ubreve" unicode="&#x16d;" horiz-adv-x="544" 
d="M139 689h75q8 -59 57 -59q28 0 43 17t16 42h75q0 -62 -35.5 -100t-98.5 -38t-97.5 38.5t-34.5 99.5zM486 489v-334q0 -71 4 -155h-126l-7 64h-3q-48 -74 -140 -74q-76 0 -118 51.5t-42 157.5v290h146v-268q0 -112 69 -112q24 0 41 14t24 33q6 13 6 35v298h146z" />
    <glyph glyph-name="Uring" unicode="&#x16e;" horiz-adv-x="627" 
d="M62 674h146v-403q0 -162 105 -162q106 0 106 162v403h146v-389q0 -147 -66 -221t-190 -74q-247 0 -247 296v388zM314 883h1q54 0 82.5 -27t28.5 -69q0 -41 -30 -68.5t-82 -27.5t-82 27t-30 67q0 42 29.5 70t82.5 28zM313 833h-1q-20 0 -30.5 -14t-10.5 -33
q0 -18 11 -31.5t31 -13.5t31.5 13t11.5 33q0 19 -11.5 32.5t-31.5 13.5z" />
    <glyph glyph-name="uring" unicode="&#x16f;" horiz-adv-x="544" 
d="M272 539q-51 0 -81 26.5t-30 67.5q0 43 29 70.5t83 27.5q52 0 80.5 -26.5t28.5 -70.5q0 -42 -29.5 -68.5t-80.5 -26.5zM271 587q22 0 33.5 14t11.5 34t-11.5 34t-33.5 14q-21 0 -32 -15t-11 -35q0 -18 11.5 -32t31.5 -14zM486 489v-334q0 -71 4 -155h-126l-7 64h-3
q-48 -74 -140 -74q-76 0 -118 51.5t-42 157.5v290h146v-268q0 -112 69 -112q24 0 41 14t24 33q6 13 6 35v298h146z" />
    <glyph glyph-name="Uhungarumlaut" unicode="&#x170;" horiz-adv-x="627" 
d="M62 674h146v-403q0 -162 105 -162q106 0 106 162v403h146v-389q0 -147 -66 -221t-190 -74q-247 0 -247 296v388zM238 831h131l-99 -114h-95zM408 831h132l-99 -114h-95z" />
    <glyph glyph-name="uhungarumlaut" unicode="&#x171;" horiz-adv-x="544" 
d="M212 697h112l-98 -146h-80zM375 697h112l-98 -146h-80zM486 489v-334q0 -71 4 -155h-126l-7 64h-3q-48 -74 -140 -74q-76 0 -118 51.5t-42 157.5v290h146v-268q0 -112 69 -112q24 0 41 14t24 33q6 13 6 35v298h146z" />
    <glyph glyph-name="Uogonek" unicode="&#x172;" horiz-adv-x="627" 
d="M423 -114l20 -69q-45 -31 -103 -31q-48 0 -74.5 24t-26.5 64q0 53 54 117h-7q-224 13 -224 295v388h146v-403q0 -162 105 -162q106 0 106 162v403h146v-389q0 -119 -44.5 -191t-128.5 -92q-51 -49 -51 -87q0 -18 11 -27.5t28 -9.5q22 0 43 8z" />
    <glyph glyph-name="uogonek" unicode="&#x173;" horiz-adv-x="544" 
d="M486 489v-334q0 -85 5 -155l-44 1q-23 -42 -23 -73q0 -22 14.5 -37t35.5 -15q26 0 42 7l20 -69q-39 -29 -98 -29q-51 0 -79.5 26.5t-28.5 76.5q0 41 34 113l-7 63h-3q-48 -74 -140 -74q-76 0 -118 51.5t-42 157.5v290h146v-268q0 -112 69 -112q24 0 41 14t24 33
q6 13 6 35v298h146z" />
    <glyph glyph-name="Wcircumflex" unicode="&#x174;" horiz-adv-x="825" 
d="M317 0h-156l-146 674h155l45 -275q14 -87 35 -236h2q8 63 42 238l55 273h145l51 -279q20 -110 35 -229h2q11 89 35 235l48 273h147l-157 -674h-156l-52 269q-18 92 -32 212h-2q-18 -129 -38 -212zM363 829h111l96 -119h-104l-47 59h-2l-46 -59h-102z" />
    <glyph glyph-name="wcircumflex" unicode="&#x175;" horiz-adv-x="716" 
d="M309 698h99l95 -148h-96l-47 85h-2l-47 -85h-97zM9 489h151l35 -203q17 -96 25 -157h2q9 51 33 155l49 205h115l47 -198q26 -119 32 -162h2q8 67 25 162l38 198h143l-142 -489h-133l-44 171q-17 74 -29 153h-2q-10 -71 -31 -152l-46 -172h-134z" />
    <glyph glyph-name="Ycircumflex" unicode="&#x176;" horiz-adv-x="542" 
d="M341 0h-146v271l-193 403h164l61 -162q26 -65 47 -133h2q16 53 46 134l59 161h161l-201 -398v-276zM215 829h111l96 -119h-104l-47 59h-2l-46 -59h-102z" />
    <glyph glyph-name="ycircumflex" unicode="&#x177;" horiz-adv-x="483" 
d="M197 698h99l95 -148h-96l-47 85h-2l-47 -85h-97zM6 489h160l65 -244q9 -32 22 -89h2q2 9 19 88l55 245h152l-110 -338q-42 -123 -77 -191.5t-76 -108.5q-61 -59 -136 -70l-35 124q30 7 66 30q37 24 56 60q8 13 8 22q0 11 -5 23z" />
    <glyph glyph-name="Ydieresis" unicode="&#x178;" horiz-adv-x="542" 
d="M341 0h-146v271l-193 403h164l61 -162q26 -65 47 -133h2q16 53 46 134l59 161h161l-201 -398v-276zM179 711h-1q-27 0 -46 20t-19 47q0 28 19.5 47.5t46.5 19.5t45.5 -19.5t18.5 -47.5q0 -27 -18.5 -47t-45.5 -20zM380 711h-1q-27 0 -46 20t-19 47q0 28 19 47.5t47 19.5
q27 0 45.5 -19.5t18.5 -47.5q0 -27 -18.5 -47t-45.5 -20z" />
    <glyph glyph-name="Zacute" unicode="&#x179;" horiz-adv-x="520" 
d="M20 0v81l288 467v3h-262v123h445v-91l-281 -457v-3h284v-123h-474zM276 830h152l-123 -120h-113z" />
    <glyph glyph-name="zacute" unicode="&#x17a;" horiz-adv-x="433" 
d="M242 698h132l-115 -148h-98zM21 0v86l144 200q44 57 68 84v3h-196v116h369l-1 -90l-138 -193q-42 -56 -70 -87v-2h215v-117h-391z" />
    <glyph glyph-name="Zdotaccent" unicode="&#x17b;" horiz-adv-x="520" 
d="M20 0v81l288 467v3h-262v123h445v-91l-281 -457v-3h284v-123h-474zM266 713h-1q-27 0 -46.5 20t-19.5 47q0 28 20 47.5t48 19.5q27 0 46 -19.5t19 -47.5q0 -27 -19.5 -47t-46.5 -20z" />
    <glyph glyph-name="zdotaccent" unicode="&#x17c;" horiz-adv-x="433" 
d="M220 558h-1q-28 0 -47.5 19.5t-19.5 48.5q0 30 19.5 49.5t48.5 19.5q28 0 46.5 -19.5t18.5 -49.5q0 -29 -18.5 -48.5t-46.5 -19.5zM21 0v86l144 200q44 57 68 84v3h-196v116h369l-1 -90l-138 -193q-42 -56 -70 -87v-2h215v-117h-391z" />
    <glyph glyph-name="Zcaron" unicode="&#x17d;" horiz-adv-x="520" 
d="M20 0v81l288 467v3h-262v123h445v-91l-281 -457v-3h284v-123h-474zM323 710h-111l-96 119h104l46 -59h2l47 59h102z" />
    <glyph glyph-name="zcaron" unicode="&#x17e;" horiz-adv-x="433" 
d="M274 550h-100l-95 148h96l48 -85h2l47 85h97zM21 0v86l144 200q44 57 68 84v3h-196v116h369l-1 -90l-138 -193q-42 -56 -70 -87v-2h215v-117h-391z" />
    <glyph glyph-name="florin" unicode="&#x192;" horiz-adv-x="516" 
d="M102 305v104h86l4 37q3 28 9.5 54.5t22.5 56t38 52t58 37t81 14.5q49 0 76 -15l-21 -104q-26 8 -45 8q-66 0 -78 -95l-6 -45h99v-104h-110l-21 -181q-11 -100 -53 -155.5t-137 -55.5q-57 0 -85 16l21 103q17 -7 44 -9q33 1 49.5 27.5t25.5 102.5l17 152h-75z" />
    <glyph glyph-name="Ohorn" unicode="&#x1a0;" horiz-adv-x="646" 
d="M325 109q64 0 100 64t36 167q0 96 -36 160.5t-101 64.5t-102 -65t-36 -163q-1 -100 36 -164t103 -64zM535 738l103 17q23 -44 23 -97q0 -45 -24.5 -74t-72.5 -32q51 -85 51 -207q0 -170 -81 -262.5t-216 -92.5t-210.5 97.5t-75.5 246.5q0 151 80.5 250.5t215.5 99.5
q60 0 110 -19q11 -4 30.5 -13.5t33 -15t23.5 -5.5q31 0 31 35q0 32 -21 72z" />
    <glyph glyph-name="ohorn" unicode="&#x1a1;" horiz-adv-x="541" 
d="M268 394q-45 0 -66.5 -44t-21.5 -105q0 -66 23 -107.5t66 -41.5q39 0 61 42t22 107q0 61 -20.5 105t-63.5 44zM434 563l102 16q22 -44 22 -92q0 -43 -23 -69t-66 -32q32 -56 32 -137q0 -67 -20.5 -119t-55 -81.5t-75 -44t-85.5 -14.5q-103 0 -168 67.5t-65 184.5
q0 120 66.5 189t173.5 69q36 0 81 -13q8 -3 23 -10t27 -11t22 -4q30 0 30 33t-21 68z" />
    <glyph glyph-name="Uhorn" unicode="&#x1af;" horiz-adv-x="668" 
d="M555 775l103 16q21 -45 21 -91q0 -45 -25 -72t-74 -32l-15 -1v-310q0 -147 -66 -221t-190 -74q-247 0 -247 296v388h146v-403q0 -162 105 -162q106 0 106 162v403h110q26 0 36 8t10 27q0 34 -20 66z" />
    <glyph glyph-name="uhorn" unicode="&#x1b0;" horiz-adv-x="544" 
d="M456 591l102 17q22 -44 22 -89q0 -42 -23.5 -67t-62.5 -30l-8 -1v-266q0 -71 4 -155h-126l-7 64h-3q-48 -74 -140 -74q-76 0 -118 51.5t-42 157.5v290h146v-268q0 -112 69 -112q24 0 41 14t24 33q6 13 6 35v298h91q46 0 46 38q0 32 -21 64z" />
    <glyph glyph-name="uni01FA" unicode="&#x1fa;" horiz-adv-x="597" 
d="M302 692q-49 0 -77 25t-28 61t28 62t78 26t76.5 -25t26.5 -63q0 -37 -27.5 -61.5t-76.5 -24.5zM301 740q20 0 31 11t11 28q0 16 -11.5 27.5t-31.5 11.5t-30 -11.5t-10 -28.5q0 -15 11 -26.5t30 -11.5zM341 975h157l-147 -92h-117zM377 167h-172l-42 -167h-148l187 674
h187l186 -674h-153zM225 277h133l-36 143q-5 21 -15.5 69.5t-15.5 67.5h-2q-2 -11 -12.5 -62.5t-16.5 -74.5z" />
    <glyph glyph-name="uni01FB" unicode="&#x1fb;" horiz-adv-x="496" 
d="M293 851h133l-139 -112h-97zM441 291v-174q0 -76 7 -117h-131l-8 49h-3q-47 -59 -131 -59q-66 0 -107.5 43.5t-41.5 105.5q0 92 73.5 139t194.5 47v8q0 64 -83 64q-69 0 -124 -34l-27 95q75 42 179 42q202 0 202 -209zM299 170v63q-131 2 -131 -79q0 -30 16 -45t41 -15
q24 0 44 14.5t27 37.5q3 11 3 24zM249 524q-51 0 -81 26.5t-30 67.5q0 43 29 70.5t83 27.5q52 0 80.5 -26.5t28.5 -70.5q0 -42 -29.5 -68.5t-80.5 -26.5zM248 572q22 0 33.5 14t11.5 34t-11.5 34t-33.5 14q-20 0 -31.5 -15t-11.5 -35q0 -18 11.5 -32t31.5 -14z" />
    <glyph glyph-name="AEacute" unicode="&#x1fc;" horiz-adv-x="786" 
d="M148 0h-149l262 674h470v-122h-246l15 -150h227v-119h-210l17 -161h228v-122h-354l-20 184h-175zM252 300h121l-17 164q-1 7 -4.5 46.5t-5.5 61.5h-4q-16 -58 -35 -117zM447 830h152l-123 -120h-113z" />
    <glyph glyph-name="aeacute" unicode="&#x1fd;" horiz-adv-x="752" 
d="M393 698h132l-115 -148h-98zM719 206h-286q1 -52 35 -80t90 -28q64 0 122 24l20 -98q-67 -34 -165 -34q-58 0 -105.5 22.5t-71.5 63.5h-3q-58 -86 -170 -86q-72 0 -115.5 44t-43.5 109q0 87 74 132t195 45v15q0 21 -21 41.5t-68 20.5q-64 0 -118 -35l-28 94q75 44 163 44
q109 0 150 -79h3q54 79 156 79q93 0 142 -69t49 -171q0 -9 -0.5 -19t-2 -20.5t-1.5 -14.5zM298 172v58q-58 1 -95 -17.5t-37 -59.5q0 -28 17 -43.5t41 -15.5q51 0 70 49q4 11 4 29zM432 303h157q0 38 -17 68.5t-57 30.5q-39 0 -60.5 -32t-22.5 -67z" />
    <glyph glyph-name="Oslashacute" unicode="&#x1fe;" horiz-adv-x="646" 
d="M140 -62l-78 57l53 88q-83 95 -83 254q0 148 80.5 247.5t212.5 99.5q74 0 133 -32l48 77l81 -49l-52 -88q80 -93 80 -248q0 -169 -80.5 -261.5t-210.5 -92.5q-74 0 -131 33zM199 220l194 321q-29 26 -69 26q-68 0 -107.5 -62.5t-39.5 -166.5q0 -62 20 -118h2zM450 450
l-194 -316q26 -27 68 -27q68 0 106.5 63t38.5 170q0 62 -17 110h-2zM338 834h152l-123 -120h-113z" />
    <glyph glyph-name="oslashacute" unicode="&#x1ff;" horiz-adv-x="533" 
d="M284 698h132l-115 -148h-98zM267 500h1q59 0 109 -26l42 65l55 -35l-44 -69q71 -69 71 -189q0 -66 -20.5 -117t-55 -80.5t-74.5 -44t-83 -14.5q-63 0 -109 25l-44 -67l-52 40l43 65q-74 68 -74 190q0 118 66 187.5t169 69.5zM187 171l129 203q-20 20 -50 20
q-49 0 -72 -45.5t-23 -103.5q0 -44 13 -73zM347 313l-127 -197q16 -20 47 -20q45 0 70 40.5t25 103.5q0 41 -12 73h-3z" />
    <glyph glyph-name="Scommaaccent" unicode="&#x218;" horiz-adv-x="496" 
d="M36 28l27 122q70 -37 151 -37q50 0 76.5 20t26.5 54q0 32 -24 53.5t-81 45.5q-168 71 -168 196q0 87 65 144t177 57q90 0 152 -31l-30 -119q-58 29 -124 29q-45 0 -69 -19t-24 -47q0 -31 24 -50t91 -48q158 -69 158 -199q0 -91 -67 -149.5t-189 -58.5q-50 0 -98 11
t-74 26zM177 -236l-22 62q25 6 44 21t19 37q0 28 -30 60l103 16q38 -26 38 -77q0 -56 -42.5 -86t-109.5 -33z" />
    <glyph glyph-name="scommaaccent" unicode="&#x219;" horiz-adv-x="401" 
d="M28 23l27 105q55 -33 118 -33q61 0 61 41q0 19 -14 31.5t-53 28.5q-128 50 -128 144q0 69 52 114.5t136 45.5q72 0 126 -27l-25 -102q-48 25 -95 25q-55 0 -55 -40q0 -17 15 -28.5t57 -29.5q121 -47 123 -150q0 -72 -52.5 -114.5t-147.5 -42.5q-89 0 -145 32zM128 -237
l-22 63q26 6 44.5 21t18.5 37q0 28 -30 60l103 16q38 -26 38 -77q0 -56 -42.5 -86t-109.5 -34z" />
    <glyph glyph-name="uni021A" unicode="&#x21a;" horiz-adv-x="501" 
d="M177 0v548h-163v126h474v-126h-165v-548h-146zM174 -236l-22 62q25 6 44 21t19 37q0 28 -30 60l103 16q38 -26 38 -77q0 -56 -42.5 -86t-109.5 -33z" />
    <glyph glyph-name="uni021B" unicode="&#x21b;" horiz-adv-x="350" 
d="M78 579l143 41v-131h106v-106h-106v-191q0 -44 13.5 -63t43.5 -19q25 0 42 4l2 -111q-34 -12 -93 -12q-72 0 -109 39q-42 42 -42 143v210h-63v106h63v90zM117 -238l-22 63q26 6 44.5 21t18.5 37q0 28 -30 60l103 16q38 -26 38 -77q0 -56 -42.5 -86t-109.5 -34z" />
    <glyph glyph-name="uni021C" unicode="&#x21c;" horiz-adv-x="493" 
d="M63 -125l-17 113q53 6 110.5 28.5t103 66t45.5 93.5q0 39 -28 68.5t-83 29.5q-44 0 -92 -16l-18 100q72 13 125.5 53t53.5 92q0 30 -23.5 48.5t-60.5 18.5q-58 0 -120 -30l-26 98q78 46 179 46q85 0 140 -43t55 -111q0 -55 -31.5 -97.5t-83.5 -66.5v-2q71 -11 118.5 -58
t47.5 -122q0 -127 -119 -214.5t-276 -94.5z" />
    <glyph glyph-name="uni021D" unicode="&#x21d;" horiz-adv-x="440" 
d="M44 -206l-16 113q29 0 64.5 7t76.5 22t68.5 45t27.5 71q0 32 -22 55.5t-75 23.5q-32 0 -79 -15l-20 100q162 37 162 109q0 29 -21.5 45t-57.5 16q-42 0 -107 -30l-26 97q69 47 169 47q83 0 132.5 -39t49.5 -105q0 -89 -100 -134v-2q67 -11 105.5 -51.5t38.5 -103.5
q0 -80 -54.5 -143t-138 -94.5t-177.5 -33.5z" />
    <glyph glyph-name="uni0232" unicode="&#x232;" horiz-adv-x="542" 
d="M341 0h-146v271l-193 403h164l61 -162q26 -65 47 -133h2q16 53 46 134l59 161h161l-201 -398v-276zM146 815h251v-80h-251v80z" />
    <glyph glyph-name="uni0233" unicode="&#x233;" horiz-adv-x="483" 
d="M123 663h239v-81h-239v81zM6 489h160l65 -244q9 -32 22 -89h2q2 9 19 88l55 245h152l-110 -338q-42 -123 -77 -191.5t-76 -108.5q-61 -59 -136 -70l-35 124q30 7 66 30q37 24 56 60q8 13 8 22q0 11 -5 23z" />
    <glyph glyph-name="circumflex" unicode="&#x2c6;" 
d="M101 698h99l95 -148h-96l-47 85h-2l-47 -85h-97z" />
    <glyph glyph-name="caron" unicode="&#x2c7;" 
d="M200 550h-100l-95 148h96l48 -85h2l47 85h97z" />
    <glyph glyph-name="uni02C9" unicode="&#x2c9;" 
d="M31 663h239v-81h-239v81z" />
    <glyph glyph-name="breve" unicode="&#x2d8;" 
d="M17 689h75q8 -59 57 -59q28 0 43 17t16 42h75q0 -62 -35.5 -100t-98.5 -38t-97.5 38.5t-34.5 99.5z" />
    <glyph glyph-name="dotaccent" unicode="&#x2d9;" 
d="M131 558h-1q-28 0 -47.5 19.5t-19.5 48.5q0 30 19.5 49.5t48.5 19.5q28 0 46.5 -19.5t18.5 -49.5q0 -29 -18.5 -48.5t-46.5 -19.5z" />
    <glyph glyph-name="ring" unicode="&#x2da;" 
d="M134 539q-51 0 -81 26.5t-30 67.5q0 43 29 70.5t83 27.5q52 0 80.5 -26.5t28.5 -70.5q0 -42 -29.5 -68.5t-80.5 -26.5zM133 587q22 0 33.5 14t11.5 34t-11.5 34t-33.5 14q-21 0 -32 -15t-11 -35q0 -18 11.5 -32t31.5 -14z" />
    <glyph glyph-name="ogonek" unicode="&#x2db;" 
d="M85 3h81q-25 -48 -25 -76q0 -22 13.5 -36t35.5 -14q23 0 43 8l20 -70q-40 -30 -98 -30q-51 0 -79.5 27t-28.5 76q0 55 38 115z" />
    <glyph glyph-name="tilde" unicode="&#x2dc;" 
d="M82 558h-68q-2 59 19.5 93t58.5 34q27 0 63 -20q30 -18 41 -18q23 0 25 42h66q3 -124 -78 -124q-27 0 -65 20q-30 16 -38 16q-23 0 -24 -43z" />
    <glyph glyph-name="hungarumlaut" unicode="&#x2dd;" 
d="M79 697h112l-98 -146h-80zM242 697h112l-98 -146h-80z" />
    <glyph glyph-name="uni037E" unicode="&#x37e;" horiz-adv-x="269" 
d="M119 -112l-94 -9q42 166 51 275l146 4q-40 -148 -103 -270zM142 287h-1q-38 0 -63 26.5t-25 67.5t25.5 67.5t64.5 26.5t64 -26t25 -68q0 -41 -24.5 -67.5t-65.5 -26.5z" />
    <glyph glyph-name="tonos" unicode="&#x384;" horiz-adv-x="306" 
d="M127 698h125l-75 -148h-92z" />
    <glyph glyph-name="dieresistonos" unicode="&#x385;" horiz-adv-x="434" 
d="M178 724h108l-51 -171h-75zM73 564h-1q-25 0 -42.5 18t-17.5 43q0 26 17.5 43.5t43.5 17.5q24 0 41 -17.5t17 -43.5t-16.5 -43.5t-41.5 -17.5zM356 564h-1q-25 0 -42 17.5t-17 43.5t17.5 43.5t42.5 17.5q26 0 43 -17.5t17 -43.5t-17.5 -43.5t-42.5 -17.5z" />
    <glyph glyph-name="Alphatonos" unicode="&#x386;" horiz-adv-x="609" 
d="M390 167h-172l-43 -167h-148l188 674h187l186 -674h-153zM237 277h133l-36 143q-4 18 -9.5 42t-11.5 53t-9 42h-2q-2 -11 -12.5 -62.5t-16.5 -74.5zM19 674h115l-36 -172h-81z" />
    <glyph glyph-name="anoteleia" unicode="&#x387;" horiz-adv-x="269" 
d="M134 216h-1q-40 0 -66.5 28t-26.5 71t27 71.5t68 28.5t67 -27.5t27 -72.5q0 -44 -26 -71.5t-69 -27.5z" />
    <glyph glyph-name="Epsilontonos" unicode="&#x388;" horiz-adv-x="592" 
d="M530 408v-120h-220v-166h246v-122h-392v674h379v-122h-233v-144h220zM2 674h115l-36 -172h-81z" />
    <glyph glyph-name="Etatonos" unicode="&#x389;" horiz-adv-x="737" 
d="M164 674h146v-263h217v263h146v-674h-146v282h-217v-282h-146v674zM2 674h115l-36 -172h-81z" />
    <glyph glyph-name="Iotatonos" unicode="&#x38a;" horiz-adv-x="374" 
d="M164 674h146v-674h-146v674zM2 674h115l-36 -172h-81z" />
    <glyph glyph-name="Omicrontonos" unicode="&#x38c;" horiz-adv-x="718" 
d="M391 -10h-1q-135 0 -210.5 97.5t-75.5 246.5q0 151 80.5 250.5t215.5 99.5q93 0 159.5 -48.5t97 -123.5t30.5 -167q0 -170 -80.5 -262.5t-215.5 -92.5zM396 109h1q64 0 100 64t36 167q0 96 -36 160.5t-101 64.5t-102 -65t-37 -163q0 -100 37 -164t102 -64zM2 674h115
l-36 -172h-81z" />
    <glyph glyph-name="Upsilontonos" unicode="&#x38e;" horiz-adv-x="721" 
d="M149 557l24 123q39 -1 86 -20.5t82 -56.5q78 -80 92 -228h7q15 129 95 219q34 37 79 60.5t77 25.5l24 -126q-67 -21 -123 -98.5t-77 -176.5q-15 -77 -15 -132v-147h-146v147q0 59 -9 127q-18 113 -67 189.5t-129 93.5zM2 674h115l-36 -172h-81z" />
    <glyph glyph-name="Omegatonos" unicode="&#x38f;" horiz-adv-x="746" 
d="M593 116v-3h122v-113h-272v86q109 94 109 266q0 89 -39 151t-105 62q-67 0 -107.5 -61.5t-40.5 -152.5q0 -87 32 -159.5t77 -105.5v-86h-273v113h120v3q-108 106 -108 256q0 132 85 222t219 90q137 0 214 -90t77 -212q0 -154 -110 -266zM2 674h115l-36 -172h-81z" />
    <glyph glyph-name="iotadieresistonos" unicode="&#x390;" horiz-adv-x="266" 
d="M203 489v-340q0 -29 10.5 -40t33.5 -9l-8 -102q-21 -8 -60 -8q-60 0 -91 31.5t-31 113.5v354h146zM103 714h107l-51 -167h-74zM0 556h-1q-25 0 -42.5 18t-17.5 43t18 42.5t43 17.5q24 0 41 -17t17 -43t-16.5 -43.5t-41.5 -17.5zM279 556h-1q-25 0 -42 17.5t-17 43.5
q0 25 17.5 42.5t42.5 17.5t42 -17t17 -43t-17 -43.5t-42 -17.5z" />
    <glyph glyph-name="Alpha" unicode="&#x391;" horiz-adv-x="597" 
d="M377 167h-172l-42 -167h-148l187 674h187l186 -674h-153zM225 277h133l-36 143q-5 21 -15.5 69.5t-15.5 67.5h-2q-2 -11 -12.5 -62.5t-16.5 -74.5z" />
    <glyph glyph-name="Beta" unicode="&#x392;" horiz-adv-x="568" 
d="M64 3v662q70 14 182 14q130 0 191 -41q71 -44 71 -130q0 -47 -26.5 -85.5t-79.5 -58.5v-3q59 -16 94 -59.5t35 -104.5q0 -85 -63 -140q-73 -64 -252 -64q-86 0 -152 10zM209 567v-163h43q52 0 81.5 23.5t29.5 63.5q0 38 -25.5 59.5t-73.5 21.5q-37 0 -55 -5zM209 298
v-193q12 -2 49 -2q53 0 87 24t34 74q0 48 -35 72.5t-90 24.5h-45z" />
    <glyph glyph-name="Gamma" unicode="&#x393;" horiz-adv-x="445" 
d="M64 674h375v-123h-229v-551h-146v674z" />
    <glyph glyph-name="uni0394" unicode="&#x394;" horiz-adv-x="594" 
d="M14 0v73l196 601h177l188 -600v-74h-561zM169 122h244l-81 268q-18 60 -39 161h-4q-14 -74 -37 -153z" />
    <glyph glyph-name="Epsilon" unicode="&#x395;" horiz-adv-x="492" 
d="M430 408v-120h-220v-166h246v-122h-392v674h378v-122h-232v-144h220z" />
    <glyph glyph-name="Zeta" unicode="&#x396;" horiz-adv-x="520" 
d="M20 0v81l288 467v3h-262v123h445v-91l-281 -457v-3h284v-123h-474z" />
    <glyph glyph-name="Eta" unicode="&#x397;" horiz-adv-x="637" 
d="M64 674h146v-263h217v263h146v-674h-146v282h-217v-282h-146v674z" />
    <glyph glyph-name="Theta" unicode="&#x398;" horiz-adv-x="650" 
d="M321 -10h-1q-135 0 -211.5 97.5t-76.5 246.5q0 151 81.5 250.5t216.5 99.5q138 0 213 -98.5t75 -240.5q0 -170 -81 -262.5t-216 -92.5zM326 108h1q66 0 102.5 64.5t36.5 167.5q0 97 -36.5 161.5t-103.5 64.5t-104.5 -65t-37.5 -164q0 -101 38 -165t104 -64zM234 404h181
v-122h-181v122z" />
    <glyph glyph-name="Iota" unicode="&#x399;" horiz-adv-x="274" 
d="M64 674h146v-674h-146v674z" />
    <glyph glyph-name="Kappa" unicode="&#x39a;" horiz-adv-x="568" 
d="M64 0v674h145v-300h2q24 47 43 78l133 222h175l-202 -289l211 -385h-168l-145 287l-49 -66v-221h-145z" />
    <glyph glyph-name="Lambda" unicode="&#x39b;" horiz-adv-x="590" 
d="M577 0h-157l-97 378q-2 9 -34 163h-2q-16 -99 -30 -164l-91 -377h-152l188 674h183z" />
    <glyph glyph-name="Mu" unicode="&#x39c;" horiz-adv-x="783" 
d="M597 0l-11 251q-6 154 -6 262h-3q-25 -115 -65 -246l-75 -256h-111l-68 253q-33 127 -55 249h-2q-5 -147 -11 -264l-12 -249h-132l44 674h184l62 -231q34 -129 55 -239h3q20 102 57 240l66 230h181l38 -674h-139z" />
    <glyph glyph-name="Nu" unicode="&#x39d;" horiz-adv-x="638" 
d="M196 0h-132v674h160l129 -252q51 -95 99 -221h2q-12 126 -12 291v182h132v-674h-148l-131 259q-63 121 -103 227h-3q7 -116 7 -299v-187z" />
    <glyph glyph-name="Xi" unicode="&#x39e;" horiz-adv-x="527" 
d="M51 674h429v-121h-429v121zM78 405h374v-120h-374v120zM39 122h452v-122h-452v122z" />
    <glyph glyph-name="Omicron" unicode="&#x39f;" horiz-adv-x="646" 
d="M319 -10h-1q-135 0 -210.5 97.5t-75.5 246.5q0 151 80.5 250.5t215.5 99.5q93 0 159.5 -48.5t97 -123.5t30.5 -167q0 -170 -80.5 -262.5t-215.5 -92.5zM324 109h1q64 0 100 64t36 167q0 96 -36 160.5t-101 64.5t-102 -65t-36 -163q-1 -100 36 -164t102 -64z" />
    <glyph glyph-name="Pi" unicode="&#x3a0;" horiz-adv-x="620" 
d="M556 674v-674h-146v548h-200v-548h-146v674h492z" />
    <glyph glyph-name="Rho" unicode="&#x3a1;" horiz-adv-x="544" 
d="M64 0v665q77 14 185 14q133 0 199 -54q68 -55 68 -154q0 -102 -61 -160q-72 -69 -202 -69q-20 0 -44 2v-244h-145zM209 561v-202q11 -3 42 -3q57 0 88.5 29t31.5 80q0 47 -28 74t-81 27q-36 0 -53 -5z" />
    <glyph glyph-name="Sigma" unicode="&#x3a3;" horiz-adv-x="531" 
d="M206 126v-4h293v-122h-474v84l184 252l-175 244v94h443v-121h-260v-4l146 -207z" />
    <glyph glyph-name="Tau" unicode="&#x3a4;" horiz-adv-x="501" 
d="M177 0v548h-163v126h474v-126h-165v-548h-146z" />
    <glyph glyph-name="Upsilon" unicode="&#x3a5;" horiz-adv-x="576" 
d="M6 557l24 123q39 -1 86 -20.5t82 -56.5q78 -78 92 -228h7q16 130 96 219q34 37 78.5 60.5t76.5 25.5l24 -126q-67 -21 -123 -98.5t-77 -176.5q-15 -77 -15 -132v-147h-146v147q0 69 -9 127q-18 113 -67 189.5t-129 93.5z" />
    <glyph glyph-name="Phi" unicode="&#x3a6;" horiz-adv-x="725" 
d="M429 28v-54h-135v54q-112 16 -188 94t-76 213q0 71 24 129.5t63.5 96t84.5 59.5t93 29v51h135v-51q112 -15 188.5 -94.5t76.5 -212.5q0 -134 -76 -215.5t-190 -98.5zM295 133v413q-47 -11 -83 -65.5t-36 -145.5q0 -83 36 -137.5t83 -64.5zM429 546v-413q48 9 83.5 61.5
t35.5 142.5q0 93 -35.5 146.5t-83.5 62.5z" />
    <glyph glyph-name="Chi" unicode="&#x3a7;" horiz-adv-x="551" 
d="M541 0h-164l-55 123q-18 38 -53 120h-2q-14 -42 -46 -121l-50 -122h-160l174 342l-168 332h163l54 -123q23 -55 44 -111h2q27 75 41 111l50 123h161l-171 -331z" />
    <glyph glyph-name="Psi" unicode="&#x3a8;" horiz-adv-x="692" 
d="M654 674v-186q0 -144 -66 -217t-175 -83v-188h-133v188q-108 9 -174.5 72.5t-66.5 190.5v223h138v-206q0 -87 26.5 -125.5t77.5 -43.5v375h131v-376q103 10 103 204v172h139z" />
    <glyph glyph-name="uni03A9" unicode="&#x3a9;" horiz-adv-x="681" 
d="M527 116v-3h123v-113h-272v86q47 41 78 109t31 157t-39.5 151t-105.5 62t-107 -61.5t-41 -152.5q0 -82 32 -156.5t77 -108.5v-86h-273v113h121v3q-108 106 -108 256q0 132 84.5 222t218.5 90q137 0 214 -90t77 -212q0 -154 -110 -266z" />
    <glyph glyph-name="Iotadieresis" unicode="&#x3aa;" horiz-adv-x="274" 
d="M40 712h-1q-28 0 -46.5 19.5t-18.5 47.5t19 47t47 19q27 0 45 -18.5t18 -47.5q0 -28 -18 -47.5t-45 -19.5zM235 712h-1q-27 0 -45.5 19.5t-18.5 47.5t18.5 47t46.5 19t46 -18.5t18 -47.5q0 -28 -18.5 -47.5t-45.5 -19.5zM64 674h146v-674h-146v674z" />
    <glyph glyph-name="Upsilondieresis" unicode="&#x3ab;" horiz-adv-x="576" 
d="M196 696h-1q-28 0 -46.5 19.5t-18.5 47.5t19 47t47 19q27 0 45 -19t18 -47t-18 -47.5t-45 -19.5zM391 696h-1q-27 0 -45.5 19.5t-18.5 47.5t18.5 47t46.5 19t46 -18.5t18 -47.5q0 -28 -18.5 -47.5t-45.5 -19.5zM6 557l24 123q39 -1 86 -20.5t82 -56.5q78 -78 92 -228h7
q16 130 96 219q34 37 78.5 60.5t76.5 25.5l24 -126q-67 -21 -123 -98.5t-77 -176.5q-15 -77 -15 -132v-147h-146v147q0 69 -9 127q-18 113 -67 189.5t-129 93.5z" />
    <glyph glyph-name="alphatonos" unicode="&#x3ac;" horiz-adv-x="543" 
d="M267 696h125l-75 -148h-92zM375 489h119q-13 -139 -13 -327q0 -36 10.5 -50t32.5 -13l-10 -102q-14 -7 -46 -7q-82 0 -101 84h-2q-46 -84 -143 -84q-83 0 -136.5 68.5t-53.5 174.5q0 120 62.5 193.5t144.5 73.5q84 0 120 -72h4q2 18 12 61zM179 242v-1q0 -59 22.5 -97
t58.5 -38q27 0 48 24t28 60q4 25 4 57q0 35 -2 50q-6 41 -26 65t-48 24q-38 0 -61.5 -42t-23.5 -102z" />
    <glyph glyph-name="epsilontonos" unicode="&#x3ad;" horiz-adv-x="438" 
d="M229 696h125l-75 -148h-91zM137 257v5q-39 11 -61 38t-22 64q0 55 52.5 95.5t151.5 40.5q90 0 146 -34l-24 -94q-44 24 -103 24q-37 0 -58 -13t-21 -34q0 -44 109 -46h39v-96h-40q-119 -2 -119 -52q0 -27 26.5 -41.5t64.5 -14.5q66 0 122 28l18 -97q-66 -40 -177 -40
q-56 0 -101 14t-76.5 49t-31.5 87q0 44 31 76t74 41z" />
    <glyph glyph-name="etatonos" unicode="&#x3ae;" horiz-adv-x="547" 
d="M268 696h125l-75 -148h-92zM186 425h2q49 75 142 75q75 0 118.5 -52.5t43.5 -150.5v-320q0 -134 9 -173h-137q-19 33 -19 174v304q0 98 -68 98q-50 0 -69 -53q-6 -15 -6 -40v-287h-146v336q0 107 -15 153h128q14 -23 17 -64z" />
    <glyph glyph-name="iotatonos" unicode="&#x3af;" horiz-adv-x="266" 
d="M121 698h129l-75 -149h-95zM202 489v-340q0 -29 10.5 -40t33.5 -9l-8 -102q-21 -8 -59 -8q-60 0 -91.5 31.5t-31.5 113.5v354h146z" />
    <glyph glyph-name="upsilondieresistonos" unicode="&#x3b0;" horiz-adv-x="520" 
d="M315 489h135q34 -74 34 -183q0 -62 -11.5 -115.5t-37 -100t-73 -73.5t-111.5 -27q-90 0 -145.5 51.5t-55.5 148.5v143q0 117 -11 156h143q14 -18 14 -96v-195q0 -42 18.5 -65.5t48.5 -23.5q79 0 79 182q0 122 -27 198zM221 712h107l-52 -167h-73zM116 554h-1
q-24 0 -42 18t-18 43q0 26 18 43t43 17q24 0 41 -17t17 -43t-16.5 -43.5t-41.5 -17.5zM397 554h-1q-24 0 -41 18t-17 43q0 26 17.5 43t42.5 17t42 -17t17 -43t-17.5 -43.5t-42.5 -17.5z" />
    <glyph glyph-name="alpha" unicode="&#x3b1;" horiz-adv-x="542" 
d="M375 489h119q-13 -139 -13 -327q0 -36 10.5 -50t32.5 -13l-10 -102q-14 -7 -46 -7q-82 0 -101 84h-2q-46 -84 -143 -84q-83 0 -136.5 68.5t-53.5 174.5q0 120 62.5 193.5t144.5 73.5q84 0 120 -72h4q2 18 12 61zM179 242v-1q0 -59 22.5 -97t58.5 -38q27 0 48 24t28 60
q4 25 4 57q0 35 -2 50q-6 41 -26 65t-48 24q-38 0 -61.5 -42t-23.5 -102z" />
    <glyph glyph-name="beta" unicode="&#x3b2;" horiz-adv-x="547" 
d="M198 31h-2v-53q0 -123 12 -174h-135q-19 41 -19 172v440q0 99 18.5 153.5t53.5 88.5q59 57 153 57q88 0 138 -52t50 -130q0 -47 -21.5 -88.5t-56.5 -59.5v-6q52 -13 89 -62.5t37 -118.5q0 -93 -55.5 -150.5t-141.5 -57.5q-76 0 -120 41zM195 445v-298q34 -45 86 -45
q41 0 64.5 29t23.5 74q0 47 -28 76.5t-69 33.5q-7 1 -21 1v94q5 0 15 2q33 7 51.5 34.5t18.5 66.5q0 38 -17.5 62.5t-47.5 24.5q-76 0 -76 -155z" />
    <glyph glyph-name="gamma" unicode="&#x3b3;" horiz-adv-x="481" 
d="M300 -196h-142q5 183 -18 293q-40 190 -152 392h160q27 -48 58 -143.5t47 -194.5h4q66 162 66 292q0 12 -0.5 27t-0.5 19h136q3 -15 3 -38q0 -180 -158 -429q-6 -10 -6 -23q0 -16 3 -195z" />
    <glyph glyph-name="delta" unicode="&#x3b4;" horiz-adv-x="535" 
d="M466 669l-36 -92q-50 33 -114 33q-50 0 -50 -27q0 -5 3 -11t12 -15t15 -14.5t23 -20.5l74 -66q110 -97 110 -216q0 -115 -69.5 -182.5t-169.5 -67.5q-101 0 -166.5 66.5t-65.5 173.5q0 83 44.5 141.5t108.5 91.5v4l-18 18q-51 57 -51 102q0 51 49.5 89.5t134.5 38.5
q105 0 166 -46zM300 357l-39 36q-81 -55 -81 -162q0 -58 26.5 -96.5t65.5 -38.5q38 0 61.5 37t23.5 93q0 77 -57 131z" />
    <glyph glyph-name="epsilon" unicode="&#x3b5;" horiz-adv-x="438" 
d="M137 257v5q-39 11 -61 38t-22 64q0 55 52.5 95.5t151.5 40.5q90 0 146 -34l-24 -94q-44 24 -103 24q-37 0 -58 -13t-21 -34q0 -44 109 -46h39v-96h-40q-119 -2 -119 -52q0 -27 26.5 -41.5t64.5 -14.5q66 0 122 28l18 -97q-66 -40 -177 -40q-56 0 -101 14t-76.5 49
t-31.5 87q0 44 31 76t74 41z" />
    <glyph glyph-name="zeta" unicode="&#x3b6;" horiz-adv-x="414" 
d="M337 -148l-91 29q22 45 26 96q-62 12 -105 31q-134 56 -134 211q0 97 52 196t141 177v4h-43q-69 0 -107 13l13 94q48 -3 135 -3h169l20 -97q-92 -44 -161.5 -148.5t-69.5 -205.5q0 -106 83 -144q40 -20 133 -34q9 -2 9 -13q0 -53 -21.5 -112.5t-48.5 -93.5z" />
    <glyph glyph-name="eta" unicode="&#x3b7;" horiz-adv-x="547" 
d="M186 425h2q49 75 142 75q75 0 118.5 -52.5t43.5 -150.5v-320q0 -134 9 -173h-137q-19 33 -19 174v304q0 98 -68 98q-50 0 -69 -53q-6 -15 -6 -40v-287h-146v336q0 107 -15 153h128q14 -23 17 -64z" />
    <glyph glyph-name="theta" unicode="&#x3b8;" horiz-adv-x="528" 
d="M264 -10h-1q-110 0 -170.5 92.5t-60.5 275.5q0 166 64 261.5t174 95.5q111 0 169 -93.5t58 -263.5q0 -182 -60 -275t-173 -93zM175 413h178q0 92 -23 145.5t-65 53.5t-66 -54t-24 -145zM355 306h-180q0 -102 24 -157.5t67 -55.5q89 0 89 213z" />
    <glyph glyph-name="iota" unicode="&#x3b9;" horiz-adv-x="266" 
d="M202 489v-340q0 -29 10.5 -40t33.5 -9l-8 -102q-21 -8 -59 -8q-60 0 -91.5 31.5t-31.5 113.5v354h146z" />
    <glyph glyph-name="kappa" unicode="&#x3ba;" horiz-adv-x="512" 
d="M326 267v-4q21 -7 42.5 -30.5t35 -46t34.5 -62.5l67 -124h-166l-48 100q-26 51 -44 75.5t-38 25.5h-7v-201h-146v365q0 95 -12 124h143q15 -17 15 -85v-120h3q20 28 45 65.5t52 80.5t37 59h162v-4q-96 -123 -175 -218z" />
    <glyph glyph-name="lambda" unicode="&#x3bb;" horiz-adv-x="479" 
d="M322 0l-60 218q-12 43 -26 102h-4q-10 -54 -21 -100l-57 -220h-150l157 451q4 11 4 23t-6 26q-15 42 -41 66t-54 24h-19l13 113q15 5 45 5q40 0 72.5 -16.5t57 -50t41 -69.5t34.5 -87l167 -485h-153z" />
    <glyph glyph-name="uni03BC" unicode="&#x3bc;" horiz-adv-x="546" 
d="M365 62h-4q-12 -27 -40 -47t-66 -20q-42 0 -65 27v-41q0 -129 11 -177h-131q-14 37 -14 181v504h146v-284q0 -98 66 -98q24 0 42.5 14.5t26.5 33.5q5 11 5 36v298h147v-335q0 -30 9 -42t30 -13l-10 -101q-18 -8 -50 -8q-80 0 -103 72z" />
    <glyph glyph-name="nu" unicode="&#x3bd;" horiz-adv-x="474" 
d="M-1 489h155l57 -224q6 -24 15.5 -67.5t12.5 -57.5h4q73 175 74 312q0 25 -1 37h135q3 -18 3 -37q0 -163 -162 -452h-139z" />
    <glyph glyph-name="xi" unicode="&#x3be;" horiz-adv-x="441" 
d="M372 431v-101h-24q-78 -1 -120.5 -31.5t-42.5 -85.5q0 -83 118 -117q48 -13 120 -25q12 -3 12 -13q0 -48 -22 -110.5t-48 -95.5l-93 29q20 39 25 96q-41 7 -72 15t-69.5 25.5t-63.5 39.5t-42.5 58.5t-17.5 82.5q0 70 40.5 121.5t104.5 70.5v5q-48 19 -74.5 56.5
t-26.5 85.5q0 76 58.5 127t162.5 51q73 0 125 -25l-21 -97q-42 17 -82 17q-46 0 -71.5 -25.5t-25.5 -60.5q0 -83 122 -92q8 -1 28 -1z" />
    <glyph glyph-name="omicron" unicode="&#x3bf;" horiz-adv-x="533" 
d="M266 -10h-1q-103 0 -168 67.5t-65 184.5q0 120 66.5 189t173.5 69q104 0 166.5 -69.5t62.5 -181.5q0 -67 -20.5 -119t-55 -81.5t-75 -44t-84.5 -14.5zM268 96h1q39 0 61 42t22 107q0 61 -20.5 105t-63.5 44q-45 0 -66.5 -44t-21.5 -105q0 -66 22.5 -107.5t65.5 -41.5z
" />
    <glyph glyph-name="pi" unicode="&#x3c0;" horiz-adv-x="561" 
d="M534 377h-56v-235q0 -87 11 -142h-138q-18 26 -18 135v242h-94q-2 -90 -16.5 -202.5t-36.5 -174.5h-140q23 77 38 188t13 189q-53 0 -78 -6l-16 86q34 32 169 32h374z" />
    <glyph glyph-name="rho" unicode="&#x3c1;" horiz-adv-x="547" 
d="M200 36h-2v-59q0 -126 8 -173h-140q-12 32 -14 173v229q0 165 88 240q65 54 150 54q104 0 164.5 -70.5t60.5 -182.5q0 -122 -62 -189.5t-146 -67.5q-73 0 -107 46zM198 237v-49q0 -20 5 -32q7 -22 27.5 -37t45.5 -15q44 0 68 39.5t24 101.5q0 61 -22.5 97t-61.5 36
t-62.5 -36t-23.5 -105z" />
    <glyph glyph-name="uni03C2" unicode="&#x3c2;" horiz-adv-x="426" 
d="M413 478l-27 -106q-37 14 -75 14q-58 0 -94 -42t-36 -107q0 -100 98 -134q38 -13 124 -31q7 -1 7 -12q0 -55 -21.5 -117.5t-46.5 -91.5l-93 29q20 40 27 96q-60 16 -76 21q-74 24 -121 81t-47 150q0 111 73.5 191.5t199.5 80.5q66 0 108 -22z" />
    <glyph glyph-name="sigma" unicode="&#x3c3;" horiz-adv-x="547" 
d="M432 400l-1 -4q30 -26 46.5 -68.5t16.5 -83.5q0 -66 -19.5 -116.5t-53 -79.5t-73 -43.5t-83.5 -14.5q-103 0 -168 67t-65 183q0 121 67.5 190.5t179.5 69.5h79h74h35h42h29l-6 -106q-32 -1 -100 6zM267 96h1q39 0 61 42.5t22 107.5q0 60 -20.5 104t-61.5 44
q-46 0 -67.5 -44t-21.5 -105q0 -66 22.5 -107.5t64.5 -41.5z" />
    <glyph glyph-name="tau" unicode="&#x3c4;" horiz-adv-x="424" 
d="M343 102l-6 -102q-22 -10 -65 -10q-77 0 -108.5 41.5t-31.5 127.5v218h-38q-45 0 -83 -6l-19 87q40 31 158 31h265l-13 -112h-124v-208q0 -67 46 -67h19z" />
    <glyph glyph-name="upsilon" unicode="&#x3c5;" horiz-adv-x="520" 
d="M315 489h135q34 -74 34 -183q0 -62 -11.5 -115.5t-37 -100t-73 -73.5t-111.5 -27q-90 0 -145.5 51.5t-55.5 148.5v143q0 117 -11 156h143q14 -18 14 -96v-195q0 -42 18.5 -65.5t48.5 -23.5q79 0 79 182q0 122 -27 198z" />
    <glyph glyph-name="phi" unicode="&#x3c6;" horiz-adv-x="671" 
d="M194 500l60 -75q-78 -64 -78 -173q0 -62 26 -105t71 -56v237q0 87 44.5 129.5t108.5 41.5q86 -2 149 -69.5t63 -174.5q0 -116 -71 -185t-164 -79v-187h-130v187q-45 4 -86 21t-77 46.5t-57 78.5t-21 111q0 97 52.5 164.5t109.5 87.5zM402 359v-269q44 9 71 52.5t27 110.5
q0 61 -23 102.5t-50 41.5q-25 0 -25 -38z" />
    <glyph glyph-name="chi" unicode="&#x3c7;" horiz-adv-x="471" 
d="M5 489h153l89 -222h4q12 38 30 88l51 134h137l-155 -333l154 -346l-137 -32l-104 253h-5q-21 -64 -34 -97l-63 -156l-124 32l158 347z" />
    <glyph glyph-name="psi" unicode="&#x3c8;" horiz-adv-x="681" 
d="M280 -196v186q-228 20 -228 257v116q0 81 -7 126h131q12 -17 12 -96v-135q0 -155 93 -166v517h129v-517q48 2 73.5 59t25.5 142q0 64 -9.5 119t-19.5 77h128q37 -72 37 -185q0 -61 -12 -113t-38 -96.5t-73 -72t-111 -32.5v-186h-131z" />
    <glyph glyph-name="omega" unicode="&#x3c9;" horiz-adv-x="692" 
d="M413 368l-3 -181q0 -32 11.5 -53.5t32.5 -21.5q28 0 46 39.5t18 112.5q0 65 -17.5 125.5t-49.5 98.5v3h132q30 -30 53.5 -93.5t23.5 -138.5q0 -125 -54 -197t-138 -72q-42 0 -74.5 20.5t-47.5 54.5h-4q-42 -75 -125 -75q-77 0 -131 67.5t-54 189.5q0 80 23.5 143.5
t56.5 100.5h130v-3q-69 -89 -69 -233q0 -70 18 -106.5t44 -36.5q21 0 32.5 21.5t10.5 53.5l-2 181h137z" />
    <glyph glyph-name="iotadieresis" unicode="&#x3ca;" horiz-adv-x="266" 
d="M35 550h-1q-28 0 -47 19.5t-19 48.5t19.5 48t47.5 19t46.5 -19t18.5 -48t-18.5 -48.5t-46.5 -19.5zM231 550h-1q-28 0 -47 19.5t-19 48.5t19 48t48 19q28 0 46.5 -19t18.5 -48t-18.5 -48.5t-46.5 -19.5zM203 489v-340q0 -29 10.5 -40t33.5 -9l-8 -102q-21 -8 -60 -8
q-60 0 -91 31.5t-31 113.5v354h146z" />
    <glyph glyph-name="upsilondieresis" unicode="&#x3cb;" horiz-adv-x="520" 
d="M156 550h-1q-28 0 -47 19.5t-19 48.5t19.5 48t47.5 19t46.5 -19t18.5 -48t-18.5 -48.5t-46.5 -19.5zM351 550h-1q-28 0 -46.5 19.5t-18.5 48.5t19 48t48 19q28 0 46.5 -19t18.5 -48t-18.5 -48.5t-47.5 -19.5zM315 489h135q34 -74 34 -183q0 -62 -11.5 -115.5t-37 -100
t-73 -73.5t-111.5 -27q-90 0 -145.5 51.5t-55.5 148.5v143q0 117 -11 156h143q14 -18 14 -96v-195q0 -42 18.5 -65.5t48.5 -23.5q79 0 79 182q0 122 -27 198z" />
    <glyph glyph-name="omicrontonos" unicode="&#x3cc;" horiz-adv-x="533" 
d="M261 696h125l-75 -148h-92zM266 -10h-1q-103 0 -168 67.5t-65 184.5q0 120 66.5 189t173.5 69q104 0 166.5 -69.5t62.5 -181.5q0 -67 -20.5 -119t-55 -81.5t-75 -44t-84.5 -14.5zM268 96h1q39 0 61 42t22 107q0 61 -20.5 105t-63.5 44q-45 0 -66.5 -44t-21.5 -105
q0 -66 22.5 -107.5t65.5 -41.5z" />
    <glyph glyph-name="upsilontonos" unicode="&#x3cd;" horiz-adv-x="520" 
d="M247 698h129l-75 -149h-95zM315 489h135q34 -74 34 -183q0 -62 -11.5 -115.5t-37 -100t-73 -73.5t-111.5 -27q-90 0 -145.5 51.5t-55.5 148.5v143q0 117 -11 156h143q14 -18 14 -96v-195q0 -42 18.5 -65.5t48.5 -23.5q79 0 79 182q0 122 -27 198z" />
    <glyph glyph-name="omegatonos" unicode="&#x3ce;" horiz-adv-x="692" 
d="M339 696h125l-75 -148h-91zM413 368l-3 -181q0 -32 12 -53.5t32 -21.5q28 0 46 39.5t18 112.5q0 145 -67 224v3h132q31 -30 54 -93t23 -139q0 -125 -54 -197t-138 -72q-41 0 -74 20.5t-48 54.5h-4q-40 -75 -124 -75q-77 0 -131.5 67.5t-54.5 189.5q0 79 23.5 143
t56.5 101h130v-3q-69 -89 -69 -233q0 -70 18 -106.5t44 -36.5q21 0 33 22t11 53l-3 181h137z" />
    <glyph glyph-name="afii10023" unicode="&#x401;" horiz-adv-x="492" 
d="M430 408v-120h-220v-166h246v-122h-392v674h378v-122h-232v-144h220zM152 713h-1q-27 0 -46 20t-19 47q0 28 19.5 47.5t46.5 19.5t45.5 -19.5t18.5 -47.5q0 -27 -18.5 -47t-45.5 -20zM353 713h-1q-27 0 -46 20t-19 47q0 28 19 47.5t47 19.5q27 0 45.5 -19.5t18.5 -47.5
q0 -27 -18.5 -47t-45.5 -20z" />
    <glyph glyph-name="afii10051" unicode="&#x402;" horiz-adv-x="667" 
d="M14 674h516v-124h-213v-127h3q48 25 105 25q102 0 160 -88q50 -74 50 -191q0 -83 -29.5 -148.5t-86.5 -102.5q-58 -55 -129 -66l-25 122q51 14 80 47q37 44 37 142q0 83 -27 124t-75 41q-34 0 -63 -19v-309h-146v550h-157v124z" />
    <glyph glyph-name="afii10052" unicode="&#x403;" horiz-adv-x="457" 
d="M64 674h379v-122h-233v-552h-146v674zM260 830h152l-123 -120h-113z" />
    <glyph glyph-name="afii10053" unicode="&#x404;" horiz-adv-x="537" 
d="M512 653l-28 -116q-50 26 -115 26q-80 0 -126 -47.5t-56 -117.5h269v-118h-268q7 -73 56 -120t131 -47q63 0 114 22l21 -114q-62 -31 -156 -31q-150 0 -236 92t-86 251q0 67 20 128.5t59 112t103.5 80.5t146.5 30q86 0 151 -31z" />
    <glyph glyph-name="afii10054" unicode="&#x405;" horiz-adv-x="496" 
d="M36 28l27 122q70 -37 151 -37q50 0 76.5 20t26.5 54q0 32 -24 53.5t-81 45.5q-168 71 -168 196q0 87 65 144t177 57q90 0 152 -31l-30 -119q-58 29 -124 29q-45 0 -69 -19t-24 -47q0 -31 24 -50t91 -48q158 -69 158 -199q0 -91 -67 -149.5t-189 -58.5q-50 0 -98 11
t-74 26z" />
    <glyph glyph-name="afii10055" unicode="&#x406;" horiz-adv-x="274" 
d="M64 674h146v-674h-146v674z" />
    <glyph glyph-name="afii10056" unicode="&#x407;" horiz-adv-x="274" 
d="M64 674h146v-674h-146v674zM37 713h-1q-27 0 -46 20t-19 47q0 28 19.5 47.5t46.5 19.5t45.5 -19.5t18.5 -47.5q0 -27 -18.5 -47t-45.5 -20zM238 713h-1q-27 0 -46 20t-19 47q0 28 19 47.5t47 19.5q27 0 45.5 -19.5t18.5 -47.5q0 -27 -18.5 -47t-45.5 -20z" />
    <glyph glyph-name="afii10057" unicode="&#x408;" horiz-adv-x="376" 
d="M173 237v437h146v-436q0 -136 -58.5 -192t-166.5 -56q-58 0 -97 14l15 119q30 -10 67 -10q46 0 70 27t24 97z" />
    <glyph glyph-name="afii10058" unicode="&#x409;" horiz-adv-x="875" 
d="M112 674h412v-243q38 4 71 4q106 0 177 -56t71 -157q0 -96 -62 -153q-82 -76 -252 -76q-84 0 -150 10v549h-127v-165q0 -142 -24.5 -232t-91.5 -133q-51 -33 -119 -33l-22 119q41 8 67 35q50 51 50 235v296zM524 321v-213q15 -3 45 -3q53 0 88 31t35 82t-34 79t-87 28
q-17 0 -47 -4z" />
    <glyph glyph-name="afii10059" unicode="&#x40a;" horiz-adv-x="886" 
d="M64 674h146v-254h180v254h144v-245q42 4 75 4q106 0 175.5 -55t69.5 -156q0 -96 -62 -153q-82 -76 -252 -76q-86 0 -150 10v293h-180v-296h-146v674zM534 319v-210q21 -4 47 -4q54 0 88 30.5t34 81.5t-33.5 78t-86.5 27q-27 0 -49 -3z" />
    <glyph glyph-name="afii10060" unicode="&#x40b;" horiz-adv-x="679" 
d="M14 674h504v-124h-203v-138h3q58 40 133 40q83 0 125 -53q45 -55 45 -156v-243h-146v230q0 57 -22 80q-21 23 -58 23q-45 0 -80 -28v-305h-146v550h-155v124z" />
    <glyph glyph-name="afii10061" unicode="&#x40c;" horiz-adv-x="560" 
d="M64 674h144v-284h12l163 284h172l-210 -303q57 -16 88.5 -57t52.5 -108q47 -156 68 -206h-154q-14 32 -47 151q-18 65 -44.5 98.5t-77.5 33.5h-23v-283h-144v674zM294 825h152l-123 -120h-113z" />
    <glyph glyph-name="afii10062" unicode="&#x40e;" horiz-adv-x="531" 
d="M-1 675h162l87 -247q10 -29 40 -123h4q24 102 30 125l65 245h152l-119 -342q-71 -195 -118 -259q-65 -88 -167 -88q-41 0 -68 9l9 118q15 -4 45 -4t53 19t33 45q6 14 -2 33zM127 827h97q3 -61 44 -61t47 61h96q-10 -122 -145 -122q-129 0 -139 122z" />
    <glyph glyph-name="afii10145" unicode="&#x40f;" horiz-adv-x="625" 
d="M64 674h146v-552h206v552h146v-674h-182l-7 -175h-120l-7 175h-182v674z" />
    <glyph glyph-name="afii10017" unicode="&#x410;" horiz-adv-x="597" 
d="M377 167h-172l-42 -167h-148l187 674h187l186 -674h-153zM225 277h133l-36 143q-5 21 -15.5 69.5t-15.5 67.5h-2q-2 -11 -12.5 -62.5t-16.5 -74.5z" />
    <glyph glyph-name="afii10018" unicode="&#x411;" horiz-adv-x="565" 
d="M64 674h416v-121h-271v-123q37 5 73 5q109 0 177 -53q74 -58 74 -160q0 -94 -62 -153q-83 -76 -256 -76q-85 0 -151 10v671zM209 321v-212q19 -4 50 -4q56 0 90 34q31 31 31 78t-33 77q-37 31 -91 31q-15 0 -47 -4z" />
    <glyph glyph-name="afii10019" unicode="&#x412;" horiz-adv-x="568" 
d="M64 3v662q70 14 182 14q130 0 191 -41q71 -44 71 -130q0 -47 -26.5 -85.5t-79.5 -58.5v-3q59 -16 94 -59.5t35 -104.5q0 -85 -63 -140q-73 -64 -252 -64q-86 0 -152 10zM209 567v-163h43q52 0 81.5 23.5t29.5 63.5q0 38 -25.5 59.5t-73.5 21.5q-37 0 -55 -5zM209 298
v-193q12 -2 49 -2q53 0 87 24t34 74q0 48 -35 72.5t-90 24.5h-45z" />
    <glyph glyph-name="afii10020" unicode="&#x413;" horiz-adv-x="457" 
d="M64 674h379v-122h-233v-552h-146v674z" />
    <glyph glyph-name="afii10021" unicode="&#x414;" horiz-adv-x="643" 
d="M149 674h413v-556l63 -4l-7 -277h-111l-7 163h-364l-7 -163h-111l-6 277l54 4q40 76 58 152q25 97 25 227v177zM284 553v-86q0 -118 -26 -224q-18 -71 -43 -122h201v432h-132z" />
    <glyph glyph-name="afii10022" unicode="&#x415;" horiz-adv-x="492" 
d="M430 408v-120h-220v-166h246v-122h-392v674h378v-122h-232v-144h220z" />
    <glyph glyph-name="afii10024" unicode="&#x416;" horiz-adv-x="822" 
d="M6 674h169l154 -283h12v283h139v-283h12l155 283h168l-215 -303q64 -8 99.5 -53.5t57.5 -119.5q5 -16 17.5 -61.5t23 -77t22.5 -59.5h-146q-13 28 -46 146q-17 64 -45.5 100.5t-82.5 36.5h-20v-283h-139v283h-20q-54 0 -82.5 -36.5t-46.5 -100.5q-36 -128 -44 -146h-146
q16 37 63 196q21 73 57 118t99 57z" />
    <glyph glyph-name="afii10025" unicode="&#x417;" horiz-adv-x="501" 
d="M67 528l-31 107q80 49 191 49q103 0 162 -48t59 -123q0 -58 -36 -100.5t-93 -56.5v-2q65 -9 108 -52.5t43 -109.5q0 -69 -41 -116t-98.5 -66.5t-124.5 -19.5q-110 0 -182 42l28 114q69 -37 145 -37q56 0 87.5 24.5t31.5 66.5q0 51 -40 72.5t-98 21.5h-51v108h48
q52 0 86.5 23t34.5 64q0 34 -25.5 54.5t-71.5 20.5q-62 0 -132 -36z" />
    <glyph glyph-name="afii10026" unicode="&#x418;" horiz-adv-x="637" 
d="M64 674h133v-185q0 -138 -10 -306h3q35 83 106 228l132 263h144v-674h-132v185q0 172 10 289l-2 1q-40 -111 -101 -228l-126 -247h-157v674z" />
    <glyph glyph-name="afii10027" unicode="&#x419;" horiz-adv-x="637" 
d="M64 674h133v-185q0 -138 -10 -306h3q35 83 106 228l132 263h144v-674h-132v185q0 172 10 289l-2 1q-40 -111 -101 -228l-126 -247h-157v674zM176 824h97q3 -61 44 -61t47 61h96q-10 -122 -145 -122q-129 0 -139 122z" />
    <glyph glyph-name="afii10028" unicode="&#x41a;" horiz-adv-x="560" 
d="M64 674h144v-284h12l163 284h172l-210 -303q57 -16 88.5 -57t52.5 -108q47 -156 68 -206h-154q-14 32 -47 151q-18 65 -44.5 98.5t-77.5 33.5h-23v-283h-144v674z" />
    <glyph glyph-name="afii10029" unicode="&#x41b;" horiz-adv-x="599" 
d="M112 674h423v-674h-146v552h-137v-165q0 -143 -24 -232.5t-91 -132.5q-54 -33 -121 -33l-21 119q41 7 67 33q50 53 50 235v298z" />
    <glyph glyph-name="afii10030" unicode="&#x41c;" horiz-adv-x="783" 
d="M597 0l-11 251q-6 154 -6 262h-3q-25 -115 -65 -246l-75 -256h-111l-68 253q-33 127 -55 249h-2q-5 -147 -11 -264l-12 -249h-132l44 674h184l62 -231q34 -129 55 -239h3q20 102 57 240l66 230h181l38 -674h-139z" />
    <glyph glyph-name="afii10031" unicode="&#x41d;" horiz-adv-x="637" 
d="M64 674h146v-263h217v263h146v-674h-146v282h-217v-282h-146v674z" />
    <glyph glyph-name="afii10032" unicode="&#x41e;" horiz-adv-x="646" 
d="M328 684q93 0 159.5 -48.5t97 -123.5t30.5 -167q0 -170 -81 -262.5t-216 -92.5t-210.5 97.5t-75.5 246.5q0 151 80.5 250.5t215.5 99.5zM324 565q-65 0 -101.5 -63t-36.5 -166q0 -104 37 -165.5t102 -61.5q64 0 100 64t36 167q0 96 -36 160.5t-101 64.5z" />
    <glyph glyph-name="afii10033" unicode="&#x41f;" horiz-adv-x="627" 
d="M64 674h500v-674h-146v552h-208v-552h-146v674z" />
    <glyph glyph-name="afii10034" unicode="&#x420;" horiz-adv-x="544" 
d="M64 0v665q77 14 185 14q133 0 199 -54q68 -55 68 -154q0 -102 -61 -160q-72 -69 -202 -69q-20 0 -44 2v-244h-145zM209 561v-202q11 -3 42 -3q57 0 88.5 29t31.5 80q0 47 -28 74t-81 27q-36 0 -53 -5z" />
    <glyph glyph-name="afii10035" unicode="&#x421;" horiz-adv-x="535" 
d="M487 133l20 -117q-52 -25 -151 -25q-156 0 -240 93t-84 243q0 170 97 263t242 93q98 0 144 -26l-29 -118q-48 22 -108 22q-84 0 -138 -57.5t-54 -167.5q0 -106 51.5 -163.5t141.5 -57.5q65 0 108 18z" />
    <glyph glyph-name="afii10036" unicode="&#x422;" horiz-adv-x="501" 
d="M177 0v548h-163v126h474v-126h-165v-548h-146z" />
    <glyph glyph-name="afii10037" unicode="&#x423;" horiz-adv-x="531" 
d="M-1 675h162l87 -247q10 -29 40 -123h4q24 102 30 125l65 245h152l-119 -342q-71 -195 -118 -259q-65 -88 -167 -88q-41 0 -68 9l9 118q15 -4 45 -4t53 19t33 45q6 14 -2 33z" />
    <glyph glyph-name="afii10038" unicode="&#x424;" horiz-adv-x="730" 
d="M298 701h135v-57q54 -5 100 -24.5t83.5 -54.5t59.5 -93t22 -132q0 -75 -21.5 -133t-59.5 -93.5t-84 -55.5t-101 -26v-59h-135v59q-116 12 -190.5 85.5t-74.5 217.5q0 75 24 134t64 95t85 55.5t93 24.5v57zM298 135v408q-49 -9 -84.5 -58.5t-35.5 -147.5q0 -92 36 -143.5
t84 -58.5zM432 543v-408q48 7 83.5 56t35.5 149q0 99 -34.5 147t-84.5 56z" />
    <glyph glyph-name="afii10039" unicode="&#x425;" horiz-adv-x="551" 
d="M541 0h-164l-55 123q-18 38 -53 120h-2q-14 -42 -46 -121l-50 -122h-160l174 342l-168 332h163l54 -123q23 -55 44 -111h2q27 75 41 111l50 123h161l-171 -331z" />
    <glyph glyph-name="afii10040" unicode="&#x426;" horiz-adv-x="642" 
d="M64 674h146v-552h205v552h146v-556l63 -4l-7 -277h-111l-7 163h-435v674z" />
    <glyph glyph-name="afii10041" unicode="&#x427;" horiz-adv-x="599" 
d="M58 674h145v-208q0 -108 101 -108q46 0 85 22v294h146v-683h-145v280h-4q-63 -31 -134 -31q-92 0 -143 52t-51 151v231z" />
    <glyph glyph-name="afii10042" unicode="&#x428;" horiz-adv-x="855" 
d="M64 674h143v-552h149v552h143v-552h149v552h143v-674h-727v674z" />
    <glyph glyph-name="afii10043" unicode="&#x429;" horiz-adv-x="873" 
d="M64 674h143v-552h149v552h143v-552h149v552h143v-556l63 -4l-6 -277h-111l-7 163h-666v674z" />
    <glyph glyph-name="afii10044" unicode="&#x42a;" horiz-adv-x="665" 
d="M12 674h307v-239q34 4 72 4q102 0 172 -57.5t70 -157.5q0 -93 -54 -149q-79 -82 -254 -82q-85 0 -151 10v550h-162v121zM318 322v-213q19 -4 48 -4q51 0 83 30.5t32 81.5q0 52 -32.5 80.5t-82.5 28.5q-20 0 -48 -4z" />
    <glyph glyph-name="afii10045" unicode="&#x42b;" horiz-adv-x="801" 
d="M64 674h145v-240q30 5 67 5q106 0 177 -56.5t71 -159.5q0 -91 -54 -148q-81 -82 -258 -82q-82 0 -148 10v671zM209 322v-214q17 -3 43 -3q50 0 85 30.5t35 81.5t-35 80t-82 29q-20 0 -46 -4zM583 674h146v-674h-146v674z" />
    <glyph glyph-name="afii10046" unicode="&#x42c;" horiz-adv-x="564" 
d="M64 674h145v-240q30 5 73 5q110 0 180.5 -55.5t70.5 -159.5q0 -91 -55 -149q-81 -82 -262 -82q-86 0 -152 10v671zM209 322v-214q21 -3 47 -3q55 0 89.5 29.5t34.5 82.5q0 52 -33.5 80.5t-87.5 28.5q-20 0 -50 -4z" />
    <glyph glyph-name="afii10047" unicode="&#x42d;" horiz-adv-x="533" 
d="M89 283v118h257q-6 68 -49 115t-118 47q-61 0 -119 -25l-30 111q78 35 163 35q81 0 142 -29t96.5 -79t52.5 -110.5t17 -130.5q0 -162 -90 -253.5t-232 -91.5q-95 0 -157 30l25 115q52 -22 118 -22q79 0 125.5 48t54.5 122h-256z" />
    <glyph glyph-name="afii10048" unicode="&#x42e;" horiz-adv-x="848" 
d="M64 674h145v-266h74q18 124 89.5 200t179.5 76q127 0 196 -98t69 -241q0 -169 -75 -262t-199 -93q-113 0 -182 81t-81 213h-71v-284h-145v674zM547 108h1q58 0 90 64.5t32 167.5q0 96 -31.5 161t-90.5 65t-92 -65.5t-33 -163.5q0 -100 33 -164.5t91 -64.5z" />
    <glyph glyph-name="afii10049" unicode="&#x42f;" horiz-adv-x="560" 
d="M163 0h-155q16 30 31 74q6 19 16.5 56t17.5 59t20.5 49t31.5 45q23 21 54 33v3q-59 13 -96.5 54.5t-37.5 108.5q0 91 67 145q69 52 206 52q96 0 178 -14v-665h-145v266h-30q-41 0 -67 -26q-18 -18 -30 -48t-24 -77.5t-15 -57.5q-10 -32 -22 -57zM351 375v188q-25 5 -51 5
q-49 0 -79 -25.5t-30 -71.5t32.5 -72t83.5 -26q32 0 44 2z" />
    <glyph glyph-name="afii10065" unicode="&#x430;" horiz-adv-x="496" 
d="M441 291v-174q0 -76 7 -117h-131l-8 49h-3q-47 -59 -131 -59q-66 0 -107.5 43.5t-41.5 105.5q0 92 73.5 139t194.5 47v8q0 64 -83 64q-69 0 -124 -34l-27 95q75 42 179 42q202 0 202 -209zM299 170v63q-131 2 -131 -79q0 -30 16 -45t41 -15q24 0 44 14.5t27 37.5
q3 11 3 24z" />
    <glyph glyph-name="afii10066" unicode="&#x431;" horiz-adv-x="540" 
d="M460 714l-9 -117q-24 -9 -103 -18q-104 -11 -148 -67q-38 -46 -45 -111h5q21 39 60.5 63.5t87.5 24.5q91 0 145.5 -65.5t54.5 -177.5q0 -115 -64.5 -186.5t-169.5 -71.5q-119 0 -178.5 89.5t-59.5 228.5q0 191 90 288q68 81 197 98q106 13 137 22zM360 240v1
q0 35 -7.5 65.5t-28.5 54.5t-54 24q-44 0 -66 -43q-22 -38 -22 -93q0 -35 8 -68t29.5 -59t52.5 -26q46 0 67 43.5t21 100.5z" />
    <glyph glyph-name="afii10067" unicode="&#x432;" horiz-adv-x="522" 
d="M56 1v484q76 12 180 12q235 0 235 -125q0 -44 -28.5 -72t-70.5 -36v-3q56 -8 87.5 -39t31.5 -78q0 -151 -279 -151q-96 0 -156 8zM199 402v-105h36q94 0 94 55q0 53 -84 53q-25 0 -46 -3zM198 210v-125q28 -2 45 -2q43 0 71.5 15t28.5 48q0 64 -106 64h-39z" />
    <glyph glyph-name="afii10068" unicode="&#x433;" horiz-adv-x="390" 
d="M56 489h320v-115h-175v-374h-145v489z" />
    <glyph glyph-name="afii10069" unicode="&#x434;" horiz-adv-x="557" 
d="M119 489h369v-385l51 -2l-6 -253h-110l-5 151h-287l-7 -151h-110l-4 252l44 3q31 49 44 101q21 77 21 160v124zM246 381v-52q0 -64 -16 -133q-10 -45 -33 -89h148v274h-99z" />
    <glyph glyph-name="afii10070" unicode="&#x435;" horiz-adv-x="495" 
d="M461 196h-290q3 -48 38.5 -72t89.5 -24q65 0 122 19l20 -100q-72 -28 -165 -28q-116 0 -180 65.5t-64 180.5q0 109 61.5 186t169.5 77q101 0 152 -68t51 -173q0 -41 -5 -63zM171 297h160q1 40 -17 71.5t-59 31.5q-39 0 -60 -32t-24 -71z" />
    <glyph glyph-name="afii10072" unicode="&#x436;" horiz-adv-x="696" 
d="M2 489h158l101 -197h17v197h140v-197h17l100 197h159l-156 -213q72 -17 104 -127q46 -133 54 -149h-146q-13 25 -38 114q-26 84 -82 84h-12v-198h-140v198h-12q-56 0 -84 -85q-28 -93 -39 -113h-143q17 36 54 149q35 111 104 127z" />
    <glyph glyph-name="afii10073" unicode="&#x437;" horiz-adv-x="454" 
d="M101 206v91h63q42 0 65 14t23 37t-20.5 36.5t-58.5 13.5q-58 0 -113 -31l-26 86q73 45 183 45q78 0 132.5 -32.5t54.5 -96.5q0 -43 -30.5 -70.5t-74.5 -37.5v-3q53 -7 89 -37t36 -80q0 -41 -21.5 -71.5t-57 -47t-74 -24t-80.5 -7.5q-102 0 -173 41l29 93q57 -29 127 -31
q46 0 69.5 15.5t23.5 39.5q0 57 -102 57h-64z" />
    <glyph glyph-name="afii10074" unicode="&#x438;" horiz-adv-x="554" 
d="M56 489h136v-137q0 -68 -9 -207h4q44 114 56 141l88 203h168v-489h-137v137q0 47 9 214h-4q-29 -87 -50 -134q-61 -142 -95 -217h-166v489z" />
    <glyph glyph-name="afii10075" unicode="&#x439;" horiz-adv-x="554" 
d="M56 489h136v-137q0 -68 -9 -207h4q44 114 56 141l88 203h168v-489h-137v137q0 47 9 214h-4q-29 -87 -50 -134q-61 -142 -95 -217h-166v489zM139 687h91q2 -68 46 -68t49 68h91q-4 -66 -41.5 -101t-100.5 -35q-129 0 -135 136z" />
    <glyph glyph-name="afii10076" unicode="&#x43a;" horiz-adv-x="495" 
d="M56 489h145v-195h16l111 195h166l-164 -210q69 -15 112 -136q41 -117 54 -143h-150q-12 19 -42 112q-29 84 -90 84h-13v-196h-145v489z" />
    <glyph glyph-name="afii10077" unicode="&#x43b;" horiz-adv-x="513" 
d="M81 489h377v-489h-146v376h-96v-94q0 -102 -16 -163t-62 -91q-41 -38 -120 -38l-18 113q35 7 52 29q29 35 29 154v203z" />
    <glyph glyph-name="afii10078" unicode="&#x43c;" horiz-adv-x="681" 
d="M41 0l34 489h184l49 -176l13.5 -54t18.5 -76h3q15 64 36 137l48 169h183l31 -489h-136l-6 188q-5 110 -6 182h-3q-2 -9 -16.5 -67.5t-27.5 -104.5l-58 -190h-109l-52 187q-8 29 -23.5 99t-16.5 74h-4q-5 -181 -5 -182l-7 -186h-130z" />
    <glyph glyph-name="afii10079" unicode="&#x43d;" horiz-adv-x="542" 
d="M56 489h146v-180h138v180h146v-489h-146v194h-138v-194h-146v489z" />
    <glyph glyph-name="afii10080" unicode="&#x43e;" horiz-adv-x="533" 
d="M272 500q104 0 166.5 -69.5t62.5 -181.5q0 -67 -20.5 -119t-55 -81.5t-75 -44t-85.5 -14.5q-103 0 -168 67.5t-65 184.5q0 120 66.5 189t173.5 69zM268 394q-45 0 -66.5 -44t-21.5 -105q0 -66 23 -107.5t66 -41.5q39 0 61 42t22 107q0 61 -20.5 105t-63.5 44z" />
    <glyph glyph-name="afii10081" unicode="&#x43f;" horiz-adv-x="540" 
d="M56 489h428v-489h-147v376h-135v-376h-146v489z" />
    <glyph glyph-name="afii10082" unicode="&#x440;" horiz-adv-x="552" 
d="M56 -196v524q0 69 -4 161h127l7 -65h2q48 76 145 76q81 0 134 -70t53 -181q0 -125 -60 -192t-143 -67q-78 0 -113 53h-2v-239h-146zM202 287v-87q0 -22 4 -34q7 -28 28 -45t47 -17q44 0 68 38.5t24 101.5t-23.5 101t-66.5 38q-27 0 -49 -19t-28 -47q-4 -12 -4 -30z" />
    <glyph glyph-name="afii10083" unicode="&#x441;" horiz-adv-x="412" 
d="M379 120l16 -109q-42 -20 -121 -20q-112 0 -177 66.5t-65 182.5q0 113 70 186t193 73q60 0 103 -18l-22 -110q-32 14 -74 14q-56 0 -89.5 -39t-32.5 -101q0 -65 34.5 -102t88.5 -37q39 0 76 14z" />
    <glyph glyph-name="afii10084" unicode="&#x442;" horiz-adv-x="434" 
d="M12 489h410v-113h-132v-376h-146v376h-132v113z" />
    <glyph glyph-name="afii10085" unicode="&#x443;" horiz-adv-x="483" 
d="M6 489h160l65 -244q9 -32 22 -89h2q2 9 19 88l55 245h152l-110 -338q-42 -123 -77 -191.5t-76 -108.5q-61 -59 -136 -70l-35 124q30 7 66 30q37 24 56 60q8 13 8 22q0 11 -5 23z" />
    <glyph glyph-name="afii10086" unicode="&#x444;" horiz-adv-x="671" 
d="M268 695h135l-2 -197q106 -13 172 -79t66 -176q0 -111 -66.5 -177t-171.5 -75l2 -187h-135l1 187q-106 9 -171.5 74.5t-65.5 176.5t65.5 177t171.5 79zM270 84v321q-50 -14 -74.5 -58t-24.5 -102q0 -61 24.5 -104t74.5 -57zM401 405v-321q98 28 98 161q0 58 -24 101
t-74 59z" />
    <glyph glyph-name="afii10087" unicode="&#x445;" horiz-adv-x="482" 
d="M7 489h162l42 -83q20 -40 35 -76h3q4 9 10.5 24.5t12 28.5t10.5 25l39 81h155l-146 -235l148 -254h-164l-44 89q-19 40 -34 75h-2q-16 -39 -33 -75l-41 -89h-156l149 247z" />
    <glyph glyph-name="afii10088" unicode="&#x446;" horiz-adv-x="553" 
d="M56 489h146v-376h136v376h146v-385l51 -2l-6 -253h-110l-5 151h-358v489z" />
    <glyph glyph-name="afii10089" unicode="&#x447;" horiz-adv-x="525" 
d="M51 489h146v-160q0 -39 15.5 -58.5t51.5 -19.5q34 0 59 19v219h146v-495h-145v181h-3q-43 -28 -113 -28q-76 0 -116.5 43.5t-40.5 125.5v173z" />
    <glyph glyph-name="afii10090" unicode="&#x448;" horiz-adv-x="768" 
d="M56 489h144v-376h112v376h144v-376h112v376h145v-489h-657v489z" />
    <glyph glyph-name="afii10091" unicode="&#x449;" horiz-adv-x="782" 
d="M56 489h144v-376h112v376h144v-376h112v376h145v-385l51 -2l-6 -253h-110l-5 151h-587v489z" />
    <glyph glyph-name="afii10092" unicode="&#x44a;" horiz-adv-x="614" 
d="M17 489h276v-148q35 5 71 5q59 0 106.5 -15.5t81 -55.5t33.5 -100q0 -82 -66 -128q-73 -52 -219 -52q-78 0 -153 8v373h-130v113zM292 241v-143q18 -3 46 -3q42 0 71.5 18t29.5 56q0 41 -31.5 58.5t-75.5 17.5q-14 0 -40 -4z" />
    <glyph glyph-name="afii10093" unicode="&#x44b;" horiz-adv-x="733" 
d="M56 489h145v-149q38 6 70 6q87 0 148.5 -42t61.5 -127t-65 -130q-75 -52 -207 -52q-78 0 -153 8v486zM201 241v-144q22 -2 40 -2q39 0 67 19t28 57t-27 56t-64 18q-20 0 -44 -4zM531 489h146v-489h-146v489z" />
    <glyph glyph-name="afii10094" unicode="&#x44c;" horiz-adv-x="524" 
d="M56 489h145v-148q35 5 69 5q95 0 159.5 -40.5t64.5 -128.5q0 -84 -66 -130q-75 -52 -219 -52q-78 0 -153 8v486zM201 241v-143q18 -3 43 -3q43 0 74 18.5t31 57.5t-31.5 56.5t-74.5 17.5q-18 0 -42 -4z" />
    <glyph glyph-name="afii10095" unicode="&#x44d;" horiz-adv-x="452" 
d="M73 200v93h199q-7 46 -38 72.5t-85 26.5q-52 0 -100 -20l-25 95q61 33 150 33q104 0 170 -61q76 -73 76 -192q0 -118 -72 -187.5t-194 -69.5q-77 0 -137 29l21 101q49 -18 101 -18t87.5 26.5t42.5 71.5h-196z" />
    <glyph glyph-name="afii10096" unicode="&#x44e;" horiz-adv-x="722" 
d="M56 489h144v-183h58q16 91 74.5 142.5t141.5 51.5q98 0 157.5 -69t59.5 -182q0 -127 -65.5 -193t-156.5 -66q-86 0 -144 55t-69 152h-56v-197h-144v489zM471 96h1q36 0 55 43t19 107q0 61 -18.5 104.5t-56.5 43.5q-40 0 -59 -44t-19 -106q0 -64 20 -106t58 -42z" />
    <glyph glyph-name="afii10097" unicode="&#x44f;" horiz-adv-x="519" 
d="M462 486v-486h-143v186h-25q-35 0 -60 -27q-8 -7 -15 -16.5t-13.5 -25t-9 -23t-9.5 -29.5t-8 -26q-6 -16 -18 -39h-154q14 19 28 54q1 3 9 25.5t12 32t12 27.5t16 30.5t17 21.5q25 27 61 35v3q-49 8 -85.5 38.5t-36.5 82.5q0 77 75 115q58 31 175 31q92 0 172 -10z
M320 275v127q-24 4 -45 4q-38 0 -62 -16.5t-24 -48.5q0 -31 27 -49t63 -18q11 0 24 0.5t17 0.5z" />
    <glyph glyph-name="afii10071" unicode="&#x451;" horiz-adv-x="495" 
d="M166 558h-1q-29 0 -48.5 20t-19.5 48q0 30 20 49.5t49 19.5q27 0 46 -19.5t19 -49.5q0 -29 -18.5 -48.5t-46.5 -19.5zM366 558h-2q-28 0 -47 19.5t-19 48.5q0 30 19.5 49.5t48.5 19.5q28 0 47 -19.5t19 -49.5q0 -29 -19 -48.5t-47 -19.5zM461 196h-290q3 -48 38.5 -72
t89.5 -24q65 0 122 19l20 -100q-72 -28 -165 -28q-116 0 -180 65.5t-64 180.5q0 109 61.5 186t169.5 77q101 0 152 -68t51 -173q0 -41 -5 -63zM171 297h160q1 40 -17 71.5t-59 31.5q-39 0 -60 -32t-24 -71z" />
    <glyph glyph-name="afii10099" unicode="&#x452;" horiz-adv-x="549" 
d="M2 637h66v68h146v-68h198v-94h-198v-109h2q50 54 120 54q87 0 133 -81q45 -74 45 -200q0 -226 -115 -305q-56 -40 -110 -45l-29 117q41 11 66 39q42 53 42 184q0 81 -22 128q-22 44 -60 44q-36 0 -59 -31q-13 -17 -13 -43v-295h-146v543h-66v94z" />
    <glyph glyph-name="afii10100" unicode="&#x453;" horiz-adv-x="390" 
d="M56 489h320v-115h-175v-374h-145v489zM225 698h132l-115 -148h-98z" />
    <glyph glyph-name="afii10101" unicode="&#x454;" horiz-adv-x="442" 
d="M426 474l-25 -101q-40 20 -92 20q-53 0 -86 -27.5t-41 -72.5h193v-93h-191q8 -47 42.5 -74t87.5 -27q47 0 91 18l21 -101q-52 -26 -136 -26q-118 0 -188 67.5t-70 182.5q0 119 76.5 189.5t197.5 70.5q75 0 120 -26z" />
    <glyph glyph-name="afii10102" unicode="&#x455;" horiz-adv-x="401" 
d="M28 23l27 105q55 -33 118 -33q61 0 61 41q0 19 -14 31.5t-53 28.5q-128 50 -128 144q0 69 52 114.5t136 45.5q72 0 126 -27l-25 -102q-48 25 -95 25q-55 0 -55 -40q0 -17 15 -28.5t57 -29.5q121 -47 123 -150q0 -72 -52.5 -114.5t-147.5 -42.5q-89 0 -145 32z" />
    <glyph glyph-name="afii10103" unicode="&#x456;" horiz-adv-x="259" 
d="M202 0h-146v489h146v-489zM129 698q34 0 55 -21t21 -54q1 -32 -20.5 -53t-57.5 -21q-33 0 -54 21t-20 53q-1 33 20.5 54t55.5 21z" />
    <glyph glyph-name="afii10104" unicode="&#x457;" horiz-adv-x="259" 
d="M30 558h-1q-29 0 -48.5 20t-19.5 48q0 30 20 49.5t49 19.5q27 0 46 -19.5t19 -49.5q0 -29 -18.5 -48.5t-46.5 -19.5zM230 558h-2q-28 0 -47 19.5t-19 48.5q0 30 19.5 49.5t48.5 19.5q28 0 47 -19.5t19 -49.5q0 -29 -19 -48.5t-47 -19.5zM202 0h-146v489h146v-489z" />
    <glyph glyph-name="afii10105" unicode="&#x458;" horiz-adv-x="271" 
d="M-26 -210l-13 114q58 5 82 30q28 29 28 151v404h146v-437q0 -146 -68 -208q-60 -54 -175 -54zM143 698q34 0 55 -21t22 -54q0 -32 -21.5 -53t-56.5 -21q-34 0 -55 21t-20 53q-1 33 20.5 54t55.5 21z" />
    <glyph glyph-name="afii10106" unicode="&#x459;" horiz-adv-x="777" 
d="M82 489h376v-150q35 5 68 5q92 0 157 -42.5t65 -128.5q0 -80 -61 -124q-71 -54 -222 -54q-77 0 -152 8v373h-96v-94q0 -101 -17 -162.5t-62 -91.5q-41 -38 -120 -38l-18 113q33 7 51 28q31 32 31 155v203zM458 240v-143q24 -2 43 -2q41 0 71.5 18t30.5 56q0 39 -29.5 57
t-69.5 18q-20 0 -46 -4z" />
    <glyph glyph-name="afii10107" unicode="&#x45a;" horiz-adv-x="791" 
d="M56 489h146v-168h125v168h145v-151q35 5 70 5q92 0 155.5 -43.5t63.5 -129.5q0 -76 -60 -122q-72 -53 -221 -53q-78 0 -153 8v208h-125v-211h-146v489zM472 239v-141q18 -3 44 -3q41 0 70.5 18t29.5 56q0 39 -29 56.5t-72 17.5q-17 0 -43 -4z" />
    <glyph glyph-name="afii10108" unicode="&#x45b;" horiz-adv-x="559" 
d="M2 637h66v68h146v-68h189v-94h-189v-121h2q23 31 54 47q35 19 76 19q77 0 117.5 -54.5t40.5 -153.5v-280h-146v266q0 103 -70 103q-49 0 -69 -52q-5 -13 -5 -35v-282h-146v543h-66v94z" />
    <glyph glyph-name="afii10109" unicode="&#x45c;" horiz-adv-x="495" 
d="M56 489h145v-195h16l111 195h166l-164 -210q69 -15 112 -136q41 -117 54 -143h-150q-12 19 -42 112q-29 84 -90 84h-13v-196h-145v489zM266 698h132l-115 -148h-98z" />
    <glyph glyph-name="afii10110" unicode="&#x45e;" horiz-adv-x="483" 
d="M103 687h91q2 -68 46 -68t49 68h91q-4 -66 -41.5 -101t-100.5 -35q-129 0 -135 136zM6 489h160l65 -244q9 -32 22 -89h2q2 9 19 88l55 245h152l-110 -338q-42 -123 -77 -191.5t-76 -108.5q-61 -59 -136 -70l-35 124q30 7 66 30q37 24 56 60q8 13 8 22q0 11 -5 23z" />
    <glyph glyph-name="afii10193" unicode="&#x45f;" horiz-adv-x="540" 
d="M56 489h146v-376h136v376h146v-489h-149l-8 -157h-115l-8 157h-148v489z" />
    <glyph glyph-name="afii10050" unicode="&#x490;" horiz-adv-x="456" 
d="M64 674h268l16 127h103l-11 -249h-230v-552h-146v674z" />
    <glyph glyph-name="afii10098" unicode="&#x491;" horiz-adv-x="400" 
d="M56 489h215l14 117h102l-8 -232h-178v-374h-145v489z" />
    <glyph glyph-name="afii10846" unicode="&#x4d9;" horiz-adv-x="328" 
d="M73 369l-19 97q78 34 167 34q114 0 178 -66.5t64 -181.5q0 -108 -61 -184.5t-168 -76.5q-102 0 -153.5 68t-51.5 172q0 41 5 61h289q-4 98 -124 98q-61 0 -126 -21zM324 191h-161q0 -38 19 -69.5t60 -31.5q39 0 59 31.5t23 69.5z" />
    <glyph glyph-name="Wgrave" unicode="&#x1e80;" horiz-adv-x="825" 
d="M317 0h-156l-146 674h155l45 -275q14 -87 35 -236h2q8 63 42 238l55 273h145l51 -279q20 -110 35 -229h2q11 89 35 235l48 273h147l-157 -674h-156l-52 269q-18 92 -32 212h-2q-18 -129 -38 -212zM250 830h152l83 -119h-113z" />
    <glyph glyph-name="wgrave" unicode="&#x1e81;" horiz-adv-x="716" 
d="M215 698h133l81 -148h-98zM9 489h151l35 -203q17 -96 25 -157h2q9 51 33 155l49 205h115l47 -198q26 -119 32 -162h2q8 67 25 162l38 198h143l-142 -489h-133l-44 171q-17 74 -29 153h-2q-10 -71 -31 -152l-46 -172h-134z" />
    <glyph glyph-name="Wacute" unicode="&#x1e82;" horiz-adv-x="825" 
d="M317 0h-156l-146 674h155l45 -275q14 -87 35 -236h2q8 63 42 238l55 273h145l51 -279q20 -110 35 -229h2q11 89 35 235l48 273h147l-157 -674h-156l-52 269q-18 92 -32 212h-2q-18 -129 -38 -212zM438 830h152l-123 -120h-113z" />
    <glyph glyph-name="wacute" unicode="&#x1e83;" horiz-adv-x="716" 
d="M378 698h132l-115 -148h-98zM9 489h151l35 -203q17 -96 25 -157h2q9 51 33 155l49 205h115l47 -198q26 -119 32 -162h2q8 67 25 162l38 198h143l-142 -489h-133l-44 171q-17 74 -29 153h-2q-10 -71 -31 -152l-46 -172h-134z" />
    <glyph glyph-name="Wdieresis" unicode="&#x1e84;" horiz-adv-x="825" 
d="M317 0h-156l-146 674h155l45 -275q14 -87 35 -236h2q8 63 42 238l55 273h145l51 -279q20 -110 35 -229h2q11 89 35 235l48 273h147l-157 -674h-156l-52 269q-18 92 -32 212h-2q-18 -129 -38 -212zM321 713h-1q-27 0 -46 20t-19 47q0 28 19.5 47.5t46.5 19.5t45.5 -19.5
t18.5 -47.5q0 -27 -18.5 -47t-45.5 -20zM522 713h-1q-27 0 -46 20t-19 47q0 28 19 47.5t47 19.5q27 0 45.5 -19.5t18.5 -47.5q0 -27 -18.5 -47t-45.5 -20z" />
    <glyph glyph-name="wdieresis" unicode="&#x1e85;" horiz-adv-x="716" 
d="M259 558h-1q-28 0 -48 20t-20 48q0 30 20 49.5t49 19.5q27 0 46 -19.5t19 -49.5q0 -29 -18.5 -48.5t-46.5 -19.5zM459 558h-2q-28 0 -47 19.5t-19 48.5q0 30 19.5 49.5t48.5 19.5q28 0 47 -19.5t19 -49.5q0 -29 -19 -48.5t-47 -19.5zM9 489h151l35 -203q17 -96 25 -157h2
q9 51 33 155l49 205h115l47 -198q26 -119 32 -162h2q8 67 25 162l38 198h143l-142 -489h-133l-44 171q-17 74 -29 153h-2q-10 -71 -31 -152l-46 -172h-134z" />
    <glyph glyph-name="uni1EA0" unicode="&#x1ea0;" horiz-adv-x="597" 
d="M377 167h-172l-42 -167h-148l187 674h187l186 -674h-153zM225 277h133l-36 143q-5 21 -15.5 69.5t-15.5 67.5h-2q-2 -11 -12.5 -62.5t-16.5 -74.5zM294 -80q28 0 46.5 -19.5t18.5 -48.5q0 -30 -18.5 -49.5t-47.5 -19.5q-28 0 -47.5 20t-19.5 49t19.5 48.5t48.5 19.5z" />
    <glyph glyph-name="uni1EA1" unicode="&#x1ea1;" horiz-adv-x="496" 
d="M441 291v-174q0 -76 7 -117h-131l-8 49h-3q-47 -59 -131 -59q-66 0 -107.5 43.5t-41.5 105.5q0 92 73.5 139t194.5 47v8q0 64 -83 64q-69 0 -124 -34l-27 95q75 42 179 42q202 0 202 -209zM299 170v63q-131 2 -131 -79q0 -30 16 -45t41 -15q24 0 44 14.5t27 37.5
q3 11 3 24zM249 -80q28 0 46.5 -19.5t18.5 -48.5q0 -30 -18.5 -49.5t-47.5 -19.5q-28 0 -47.5 20t-19.5 49t19.5 48.5t48.5 19.5z" />
    <glyph glyph-name="uni1EA2" unicode="&#x1ea2;" horiz-adv-x="597" 
d="M377 167h-172l-42 -167h-148l187 674h187l186 -674h-153zM225 277h133l-36 143q-5 21 -15.5 69.5t-15.5 67.5h-2q-2 -11 -12.5 -62.5t-16.5 -74.5zM331 706l-68 14q7 21 27.5 44.5t20.5 39.5q0 13 -8 21.5t-21 8.5q-21 0 -42 -33l-46 30q38 76 116 76q39 0 66 -24.5
t27 -58.5q0 -25 -12 -43t-31.5 -37.5t-28.5 -37.5z" />
    <glyph glyph-name="uni1EA3" unicode="&#x1ea3;" horiz-adv-x="496" 
d="M441 291v-174q0 -76 7 -117h-131l-8 49h-3q-47 -59 -131 -59q-66 0 -107.5 43.5t-41.5 105.5q0 92 73.5 139t194.5 47v8q0 64 -83 64q-69 0 -124 -34l-27 95q75 42 179 42q202 0 202 -209zM299 170v63q-131 2 -131 -79q0 -30 16 -45t41 -15q24 0 44 14.5t27 37.5
q3 11 3 24zM274 526l-70 15q6 24 29.5 52.5t23.5 46.5q0 14 -8.5 23t-20.5 9q-22 0 -42 -33l-47 31q36 76 116 76q41 0 68 -24t27 -61q0 -28 -14 -50.5t-34 -44.5t-28 -40z" />
    <glyph glyph-name="uni1EA4" unicode="&#x1ea4;" horiz-adv-x="597" 
d="M377 167h-172l-42 -167h-148l187 674h187l186 -674h-153zM225 277h133l-36 143q-5 21 -15.5 69.5t-15.5 67.5h-2q-2 -11 -12.5 -62.5t-16.5 -74.5zM250 829h102l86 -119h-95l-41 60h-2l-41 -60h-93zM461 911h126l-127 -114h-70z" />
    <glyph glyph-name="uni1EA5" unicode="&#x1ea5;" horiz-adv-x="496" 
d="M441 291v-174q0 -76 7 -117h-131l-8 49h-3q-47 -59 -131 -59q-66 0 -107.5 43.5t-41.5 105.5q0 92 73.5 139t194.5 47v8q0 64 -83 64q-69 0 -124 -34l-27 95q75 42 179 42q202 0 202 -209zM299 170v63q-131 2 -131 -79q0 -30 16 -45t41 -15q24 0 44 14.5t27 37.5
q3 11 3 24zM193 698h101l84 -148h-93l-41 84h-2l-40 -84h-94zM414 789h110l-109 -145h-72z" />
    <glyph glyph-name="uni1EA6" unicode="&#x1ea6;" horiz-adv-x="597" 
d="M377 167h-172l-42 -167h-148l187 674h187l186 -674h-153zM225 277h133l-36 143q-5 21 -15.5 69.5t-15.5 67.5h-2q-2 -11 -12.5 -62.5t-16.5 -74.5zM324 898h126l64 -114h-75zM245 829h102l85 -119h-95l-41 60h-2l-41 -60h-92z" />
    <glyph glyph-name="uni1EA7" unicode="&#x1ea7;" horiz-adv-x="496" 
d="M441 291v-174q0 -76 7 -117h-131l-8 49h-3q-47 -59 -131 -59q-66 0 -107.5 43.5t-41.5 105.5q0 92 73.5 139t194.5 47v8q0 64 -83 64q-69 0 -124 -34l-27 95q75 42 179 42q202 0 202 -209zM299 170v63q-131 2 -131 -79q0 -30 16 -45t41 -15q24 0 44 14.5t27 37.5
q3 11 3 24zM285 791h109l61 -147h-72zM196 698h101l84 -148h-93l-41 84h-2l-40 -84h-94z" />
    <glyph glyph-name="uni1EA8" unicode="&#x1ea8;" horiz-adv-x="597" 
d="M377 167h-172l-42 -167h-148l187 674h187l186 -674h-153zM225 277h133l-36 143q-5 21 -15.5 69.5t-15.5 67.5h-2q-2 -11 -12.5 -62.5t-16.5 -74.5zM247 829h102l85 -119h-94l-41 60h-2l-41 -60h-93zM471 757l-56 13q7 20 27 43t20 38q0 13 -8 21t-20 8q-24 0 -43 -34
l-42 27q36 71 107 71q36 0 60.5 -22t24.5 -54q0 -23 -11.5 -39.5t-30.5 -35t-28 -36.5z" />
    <glyph glyph-name="uni1EA9" unicode="&#x1ea9;" horiz-adv-x="496" 
d="M441 291v-174q0 -76 7 -117h-131l-8 49h-3q-47 -59 -131 -59q-66 0 -107.5 43.5t-41.5 105.5q0 92 73.5 139t194.5 47v8q0 64 -83 64q-69 0 -124 -34l-27 95q75 42 179 42q202 0 202 -209zM299 170v63q-131 2 -131 -79q0 -30 16 -45t41 -15q24 0 44 14.5t27 37.5
q3 11 3 24zM194 698h101l84 -148h-93l-41 84h-2l-40 -84h-94zM417 628l-62 13q7 20 26 42t19 37q0 12 -8 20t-19 8q-22 0 -40 -32l-42 29q35 70 107 70q36 0 61.5 -23t25.5 -54t-30.5 -63.5t-37.5 -46.5z" />
    <glyph glyph-name="uni1EAA" unicode="&#x1eaa;" horiz-adv-x="597" 
d="M377 167h-172l-42 -167h-148l187 674h187l186 -674h-153zM225 277h133l-36 143q-5 21 -15.5 69.5t-15.5 67.5h-2q-2 -11 -12.5 -62.5t-16.5 -74.5zM242 829h110l96 -119h-103l-47 59h-2l-47 -59h-102zM233 845h-67q-2 49 19 79t59 30q23 0 61 -19q32 -16 42 -16
q12 0 18 7.5t7 29.5h66q3 -110 -78 -110q-21 0 -63 20q-28 14 -40 14q-21 0 -24 -35z" />
    <glyph glyph-name="uni1EAB" unicode="&#x1eab;" horiz-adv-x="496" 
d="M441 291v-174q0 -76 7 -117h-131l-8 49h-3q-47 -59 -131 -59q-66 0 -107.5 43.5t-41.5 105.5q0 92 73.5 139t194.5 47v8q0 64 -83 64q-69 0 -124 -34l-27 95q75 42 179 42q202 0 202 -209zM299 170v63q-131 2 -131 -79q0 -30 16 -45t41 -15q24 0 44 14.5t27 37.5
q3 11 3 24zM197 674h103l90 -124h-95l-45 67h-2l-45 -67h-97zM184 690h-68q-1 49 20 79t59 30q25 0 61 -18q27 -16 42 -16q23 0 25 37h66q3 -111 -78 -111q-23 0 -63 21q-28 14 -40 14q-21 0 -24 -36z" />
    <glyph glyph-name="uni1EAC" unicode="&#x1eac;" horiz-adv-x="597" 
d="M377 167h-172l-42 -167h-148l187 674h187l186 -674h-153zM225 277h133l-36 143q-5 21 -15.5 69.5t-15.5 67.5h-2q-2 -11 -12.5 -62.5t-16.5 -74.5zM243 829h111l96 -119h-104l-47 59h-2l-46 -59h-102zM291 -214h-1q-27 0 -46.5 20t-19.5 47q0 28 20 47.5t48 19.5
q27 0 46 -19.5t19 -47.5q0 -27 -19.5 -47t-46.5 -20z" />
    <glyph glyph-name="uni1EAD" unicode="&#x1ead;" horiz-adv-x="496" 
d="M441 291v-174q0 -76 7 -117h-131l-8 49h-3q-47 -59 -131 -59q-66 0 -107.5 43.5t-41.5 105.5q0 92 73.5 139t194.5 47v8q0 64 -83 64q-69 0 -124 -34l-27 95q75 42 179 42q202 0 202 -209zM299 170v63q-131 2 -131 -79q0 -30 16 -45t41 -15q24 0 44 14.5t27 37.5
q3 11 3 24zM199 698h99l95 -148h-96l-47 85h-2l-47 -85h-97zM249 -80q28 0 46.5 -19.5t18.5 -48.5q0 -30 -18.5 -49.5t-47.5 -19.5q-28 0 -47.5 20t-19.5 49t19.5 48.5t48.5 19.5z" />
    <glyph glyph-name="uni1EAE" unicode="&#x1eae;" horiz-adv-x="597" 
d="M377 167h-172l-42 -167h-148l187 674h187l186 -674h-153zM225 277h133l-36 143q-5 21 -15.5 69.5t-15.5 67.5h-2q-2 -11 -12.5 -62.5t-16.5 -74.5zM161 816h66q12 -46 71 -46t72 46h63q-6 -51 -42 -84.5t-95 -33.5q-60 0 -95 32t-40 86zM317 919h129l-119 -114h-77z" />
    <glyph glyph-name="uni1EAF" unicode="&#x1eaf;" horiz-adv-x="496" 
d="M441 291v-174q0 -76 7 -117h-131l-8 49h-3q-47 -59 -131 -59q-66 0 -107.5 43.5t-41.5 105.5q0 92 73.5 139t194.5 47v8q0 64 -83 64q-69 0 -124 -34l-27 95q75 42 179 42q202 0 202 -209zM299 170v63q-131 2 -131 -79q0 -30 16 -45t41 -15q24 0 44 14.5t27 37.5
q3 11 3 24zM272 796h113l-116 -141h-75zM95 666h69q5 -27 24.5 -43t51.5 -16q34 0 54 17t22 42h69q-2 -61 -42 -98.5t-104 -37.5t-103 38t-41 98z" />
    <glyph glyph-name="uni1EB0" unicode="&#x1eb0;" horiz-adv-x="597" 
d="M377 167h-172l-42 -167h-148l187 674h187l186 -674h-153zM225 277h133l-36 143q-5 21 -15.5 69.5t-15.5 67.5h-2q-2 -11 -12.5 -62.5t-16.5 -74.5zM155 919h129l67 -114h-77zM164 816h66q12 -46 71 -46t72 46h63q-6 -51 -42 -84.5t-95 -33.5q-60 0 -95 32t-40 86z" />
    <glyph glyph-name="uni1EB1" unicode="&#x1eb1;" horiz-adv-x="496" 
d="M441 291v-174q0 -76 7 -117h-131l-8 49h-3q-47 -59 -131 -59q-66 0 -107.5 43.5t-41.5 105.5q0 92 73.5 139t194.5 47v8q0 64 -83 64q-69 0 -124 -34l-27 95q75 42 179 42q202 0 202 -209zM299 170v63q-131 2 -131 -79q0 -30 16 -45t41 -15q24 0 44 14.5t27 37.5
q3 11 3 24zM103 796h113l78 -141h-75zM103 666h69q4 -27 24 -43t51 -16q34 0 54 16.5t22 42.5h69q-2 -61 -42 -98.5t-104 -37.5t-103 38t-40 98z" />
    <glyph glyph-name="uni1EB2" unicode="&#x1eb2;" horiz-adv-x="597" 
d="M377 167h-172l-42 -167h-148l187 674h187l186 -674h-153zM225 277h133l-36 143q-5 21 -15.5 69.5t-15.5 67.5h-2q-2 -11 -12.5 -62.5t-16.5 -74.5zM322 792l-59 14q7 19 26.5 41.5t19.5 38.5q0 12 -8 20t-19 8q-21 0 -42 -32l-41 27q35 71 107 71q35 0 60 -22.5t25 -53.5
q0 -32 -31.5 -66t-37.5 -46zM165 816h66q12 -46 70 -46q60 0 73 46h63q-6 -51 -42 -84.5t-96 -33.5t-94.5 32t-39.5 86z" />
    <glyph glyph-name="uni1EB3" unicode="&#x1eb3;" horiz-adv-x="496" 
d="M441 291v-174q0 -76 7 -117h-131l-8 49h-3q-47 -59 -131 -59q-66 0 -107.5 43.5t-41.5 105.5q0 92 73.5 139t194.5 47v8q0 64 -83 64q-69 0 -124 -34l-27 95q75 42 179 42q202 0 202 -209zM299 170v63q-131 2 -131 -79q0 -30 16 -45t41 -15q24 0 44 14.5t27 37.5
q3 11 3 24zM267 643l-62 14q6 19 25.5 41t19.5 37q0 12 -8 20t-20 8q-21 0 -39 -31l-42 28q34 70 107 70q36 0 61.5 -22.5t25.5 -54.5q0 -31 -30.5 -63.5t-37.5 -46.5zM99 666h69q5 -27 24.5 -43t51.5 -16q34 0 54 17t22 42h69q-2 -61 -42 -98.5t-104 -37.5t-103 38t-41 98z
" />
    <glyph glyph-name="uni1EB4" unicode="&#x1eb4;" horiz-adv-x="597" 
d="M377 167h-172l-42 -167h-148l187 674h187l186 -674h-153zM225 277h133l-36 143q-5 21 -15.5 69.5t-15.5 67.5h-2q-2 -11 -12.5 -62.5t-16.5 -74.5zM230 845h-68q0 45 20.5 73.5t57.5 28.5q25 0 61 -18q32 -16 42 -16q12 0 18 7.5t7 29.5h66q3 -110 -78 -110q-21 0 -63 20
q-26 14 -39 14q-21 0 -24 -29zM158 816h66q12 -46 71 -46t72 46h63q-6 -51 -42 -84.5t-95 -33.5q-60 0 -95 32t-40 86z" />
    <glyph glyph-name="uni1EB5" unicode="&#x1eb5;" horiz-adv-x="496" 
d="M441 291v-174q0 -76 7 -117h-131l-8 49h-3q-47 -59 -131 -59q-66 0 -107.5 43.5t-41.5 105.5q0 92 73.5 139t194.5 47v8q0 64 -83 64q-69 0 -124 -34l-27 95q75 42 179 42q202 0 202 -209zM299 170v63q-131 2 -131 -79q0 -30 16 -45t41 -15q24 0 44 14.5t27 37.5
q3 11 3 24zM179 705h-68q0 44 21 73t57 29q26 0 62 -19q30 -16 42 -16t17.5 7.5t6.5 29.5h66q3 -110 -78 -110q-21 0 -63 20q-26 14 -39 14q-19 0 -24 -28zM105 667h69q3 -28 22.5 -45.5t48.5 -17.5q33 0 52.5 18.5t21.5 44.5h68q-2 -62 -40 -99t-102 -37t-101 37.5
t-39 98.5z" />
    <glyph glyph-name="uni1EB6" unicode="&#x1eb6;" horiz-adv-x="597" 
d="M377 167h-172l-42 -167h-148l187 674h187l186 -674h-153zM225 277h133l-36 143q-5 21 -15.5 69.5t-15.5 67.5h-2q-2 -11 -12.5 -62.5t-16.5 -74.5zM162 844h78q4 -45 56 -45q51 0 60 45h75q-1 -56 -34.5 -89.5t-99.5 -33.5q-67 0 -100.5 33t-34.5 90zM292 -214h-1
q-27 0 -46.5 20t-19.5 47q0 28 20 47.5t48 19.5q27 0 46 -19.5t19 -47.5q0 -27 -19.5 -47t-46.5 -20z" />
    <glyph glyph-name="uni1EB7" unicode="&#x1eb7;" horiz-adv-x="496" 
d="M441 291v-174q0 -76 7 -117h-131l-8 49h-3q-47 -59 -131 -59q-66 0 -107.5 43.5t-41.5 105.5q0 92 73.5 139t194.5 47v8q0 64 -83 64q-69 0 -124 -34l-27 95q75 42 179 42q202 0 202 -209zM299 170v63q-131 2 -131 -79q0 -30 16 -45t41 -15q24 0 44 14.5t27 37.5
q3 11 3 24zM115 689h75q8 -59 57 -59q28 0 43 17t16 42h75q0 -62 -35.5 -100t-98.5 -38t-97.5 38.5t-34.5 99.5zM249 -80q28 0 46.5 -19.5t18.5 -48.5q0 -30 -18.5 -49.5t-47.5 -19.5q-28 0 -47.5 20t-19.5 49t19.5 48.5t48.5 19.5z" />
    <glyph glyph-name="uni1EB8" unicode="&#x1eb8;" horiz-adv-x="492" 
d="M430 408v-120h-220v-166h246v-122h-392v674h378v-122h-232v-144h220zM246 -214h-1q-27 0 -46.5 20t-19.5 47q0 28 20 47.5t48 19.5q27 0 46 -19.5t19 -47.5q0 -27 -19.5 -47t-46.5 -20z" />
    <glyph glyph-name="uni1EB9" unicode="&#x1eb9;" horiz-adv-x="495" 
d="M461 196h-290q3 -48 38.5 -72t89.5 -24q65 0 122 19l20 -100q-72 -28 -165 -28q-116 0 -180 65.5t-64 180.5q0 109 61.5 186t169.5 77q101 0 152 -68t51 -173q0 -41 -5 -63zM171 297h160q1 40 -17 71.5t-59 31.5q-39 0 -60 -32t-24 -71zM248 -80q28 0 46.5 -19.5
t18.5 -48.5q0 -30 -18.5 -49.5t-47.5 -19.5q-28 0 -47.5 20t-19.5 49t19.5 48.5t48.5 19.5z" />
    <glyph glyph-name="uni1EBA" unicode="&#x1eba;" horiz-adv-x="492" 
d="M430 408v-120h-220v-166h246v-122h-392v674h378v-122h-232v-144h220zM292 706l-68 14q7 21 27.5 44.5t20.5 39.5q0 13 -8 21.5t-21 8.5q-21 0 -42 -33l-46 30q38 76 116 76q39 0 66 -24.5t27 -58.5q0 -25 -12 -43t-31.5 -37.5t-28.5 -37.5z" />
    <glyph glyph-name="uni1EBB" unicode="&#x1ebb;" horiz-adv-x="495" 
d="M461 196h-290q3 -48 38.5 -72t89.5 -24q65 0 122 19l20 -100q-72 -28 -165 -28q-116 0 -180 65.5t-64 180.5q0 109 61.5 186t169.5 77q101 0 152 -68t51 -173q0 -41 -5 -63zM171 297h160q1 40 -17 71.5t-59 31.5q-39 0 -60 -32t-24 -71zM273 526l-70 15q6 24 29.5 52.5
t23.5 46.5q0 14 -8.5 23t-20.5 9q-22 0 -42 -33l-47 31q36 76 116 76q41 0 68 -24t27 -61q0 -28 -14 -50.5t-34 -44.5t-28 -40z" />
    <glyph glyph-name="uni1EBC" unicode="&#x1ebc;" horiz-adv-x="492" 
d="M430 408v-120h-220v-166h246v-122h-392v674h378v-122h-232v-144h220zM194 716h-66q-2 59 18 91t55 32q30 0 61 -18q30 -19 42 -19t17.5 8.5t8.5 32.5h65q4 -121 -76 -121q-31 0 -61 17q-29 17 -41 17q-20 0 -23 -40z" />
    <glyph glyph-name="uni1EBD" unicode="&#x1ebd;" horiz-adv-x="495" 
d="M179 558h-68q-2 59 19.5 93t58.5 34q27 0 63 -20q30 -18 41 -18q23 0 25 42h66q3 -124 -78 -124q-27 0 -65 20q-30 16 -38 16q-23 0 -24 -43zM461 196h-290q3 -48 38.5 -72t89.5 -24q65 0 122 19l20 -100q-72 -28 -165 -28q-116 0 -180 65.5t-64 180.5q0 109 61.5 186
t169.5 77q101 0 152 -68t51 -173q0 -41 -5 -63zM171 297h160q1 40 -17 71.5t-59 31.5q-39 0 -60 -32t-24 -71z" />
    <glyph glyph-name="uni1EBE" unicode="&#x1ebe;" horiz-adv-x="492" 
d="M430 408v-120h-220v-166h246v-122h-392v674h378v-122h-232v-144h220zM205 829h102l86 -119h-95l-41 60h-2l-41 -60h-93zM416 911h126l-127 -114h-70z" />
    <glyph glyph-name="uni1EBF" unicode="&#x1ebf;" horiz-adv-x="495" 
d="M461 196h-290q3 -48 38.5 -72t89.5 -24q65 0 122 19l20 -100q-72 -28 -165 -28q-116 0 -180 65.5t-64 180.5q0 109 61.5 186t169.5 77q101 0 152 -68t51 -173q0 -41 -5 -63zM171 297h160q1 40 -17 71.5t-59 31.5q-39 0 -60 -32t-24 -71zM215 698h101l84 -148h-93l-41 84
h-2l-40 -84h-94zM436 789h110l-109 -145h-72z" />
    <glyph glyph-name="uni1EC0" unicode="&#x1ec0;" horiz-adv-x="492" 
d="M430 408v-120h-220v-166h246v-122h-392v674h378v-122h-232v-144h220zM281 898h126l64 -114h-75zM202 829h102l85 -119h-95l-41 60h-2l-41 -60h-92z" />
    <glyph glyph-name="uni1EC1" unicode="&#x1ec1;" horiz-adv-x="495" 
d="M461 196h-290q3 -48 38.5 -72t89.5 -24q65 0 122 19l20 -100q-72 -28 -165 -28q-116 0 -180 65.5t-64 180.5q0 109 61.5 186t169.5 77q101 0 152 -68t51 -173q0 -41 -5 -63zM171 297h160q1 40 -17 71.5t-59 31.5q-39 0 -60 -32t-24 -71zM301 791h109l61 -147h-72z
M212 698h101l84 -148h-93l-41 84h-2l-40 -84h-94z" />
    <glyph glyph-name="uni1EC2" unicode="&#x1ec2;" horiz-adv-x="492" 
d="M430 408v-120h-220v-166h246v-122h-392v674h378v-122h-232v-144h220zM206 829h102l85 -119h-94l-41 60h-2l-41 -60h-93zM430 757l-56 13q7 20 27 43t20 38q0 13 -8 21t-20 8q-24 0 -43 -34l-42 27q36 71 107 71q36 0 60.5 -22t24.5 -54q0 -23 -11.5 -39.5t-30.5 -35
t-28 -36.5z" />
    <glyph glyph-name="uni1EC3" unicode="&#x1ec3;" horiz-adv-x="495" 
d="M461 196h-290q3 -48 38.5 -72t89.5 -24q65 0 122 19l20 -100q-72 -28 -165 -28q-116 0 -180 65.5t-64 180.5q0 109 61.5 186t169.5 77q101 0 152 -68t51 -173q0 -41 -5 -63zM171 297h160q1 40 -17 71.5t-59 31.5q-39 0 -60 -32t-24 -71zM207 698h101l84 -148h-93l-41 84
h-2l-40 -84h-94zM430 628l-62 13q7 20 26 42t19 37q0 12 -8 20t-19 8q-22 0 -40 -32l-42 29q35 70 107 70q36 0 61.5 -23t25.5 -54t-30.5 -63.5t-37.5 -46.5z" />
    <glyph glyph-name="uni1EC4" unicode="&#x1ec4;" horiz-adv-x="492" 
d="M430 408v-120h-220v-166h246v-122h-392v674h378v-122h-232v-144h220zM211 829h110l96 -119h-103l-47 59h-2l-47 -59h-102zM202 845h-67q-2 49 19 79t59 30q23 0 61 -19q32 -16 42 -16q12 0 18 7.5t7 29.5h66q3 -110 -78 -110q-21 0 -63 20q-28 14 -40 14q-21 0 -24 -35z
" />
    <glyph glyph-name="uni1EC5" unicode="&#x1ec5;" horiz-adv-x="495" 
d="M461 196h-290q3 -48 38.5 -72t89.5 -24q65 0 122 19l20 -100q-72 -28 -165 -28q-116 0 -180 65.5t-64 180.5q0 109 61.5 186t169.5 77q101 0 152 -68t51 -173q0 -41 -5 -63zM171 297h160q1 40 -17 71.5t-59 31.5q-39 0 -60 -32t-24 -71zM207 674h103l90 -124h-95l-45 67
h-2l-45 -67h-97zM194 690h-68q-1 49 20 79t59 30q25 0 61 -18q27 -16 42 -16q23 0 25 37h66q3 -111 -78 -111q-23 0 -63 21q-28 14 -40 14q-21 0 -24 -36z" />
    <glyph glyph-name="uni1EC6" unicode="&#x1ec6;" horiz-adv-x="492" 
d="M430 408v-120h-220v-166h246v-122h-392v674h378v-122h-232v-144h220zM198 829h111l96 -119h-104l-47 59h-2l-46 -59h-102zM254 -214h-1q-27 0 -46.5 20t-19.5 47q0 28 20 47.5t48 19.5q27 0 46 -19.5t19 -47.5q0 -27 -19.5 -47t-46.5 -20z" />
    <glyph glyph-name="uni1EC7" unicode="&#x1ec7;" horiz-adv-x="495" 
d="M461 196h-290q3 -48 38.5 -72t89.5 -24q65 0 122 19l20 -100q-72 -28 -165 -28q-116 0 -180 65.5t-64 180.5q0 109 61.5 186t169.5 77q101 0 152 -68t51 -173q0 -41 -5 -63zM171 297h160q1 40 -17 71.5t-59 31.5q-39 0 -60 -32t-24 -71zM198 698h99l95 -148h-96l-47 85
h-2l-47 -85h-97zM248 -80q28 0 46.5 -19.5t18.5 -48.5q0 -30 -18.5 -49.5t-47.5 -19.5q-28 0 -47.5 20t-19.5 49t19.5 48.5t48.5 19.5z" />
    <glyph glyph-name="uni1EC8" unicode="&#x1ec8;" horiz-adv-x="274" 
d="M64 674h146v-674h-146v674zM170 706l-68 14q7 21 27.5 44.5t20.5 39.5q0 13 -8 21.5t-21 8.5q-21 0 -42 -33l-46 30q38 76 116 76q39 0 66 -24.5t27 -58.5q0 -25 -12 -43t-31.5 -37.5t-28.5 -37.5z" />
    <glyph glyph-name="uni1EC9" unicode="&#x1ec9;" horiz-adv-x="259" 
d="M202 0h-146v489h146v-489zM155 526l-70 15q6 24 29.5 52.5t23.5 46.5q0 14 -8.5 23t-20.5 9q-22 0 -42 -33l-47 31q36 76 116 76q41 0 68 -24t27 -61q0 -28 -14 -50.5t-34 -44.5t-28 -40z" />
    <glyph glyph-name="uni1ECA" unicode="&#x1eca;" horiz-adv-x="274" 
d="M64 674h146v-674h-146v674zM137 -214h-1q-27 0 -46.5 20t-19.5 47q0 28 20 47.5t48 19.5q27 0 46 -19.5t19 -47.5q0 -27 -19.5 -47t-46.5 -20z" />
    <glyph glyph-name="uni1ECB" unicode="&#x1ecb;" horiz-adv-x="259" 
d="M202 0h-146v489h146v-489zM129 698q34 0 55 -21t21 -54q1 -32 -20.5 -53t-57.5 -21q-33 0 -54 21t-20 53q-1 33 20.5 54t55.5 21zM130 -80q28 0 46.5 -19.5t18.5 -48.5q0 -30 -18.5 -49.5t-47.5 -19.5q-28 0 -47.5 20t-19.5 49t19.5 48.5t48.5 19.5z" />
    <glyph glyph-name="uni1ECC" unicode="&#x1ecc;" horiz-adv-x="646" 
d="M328 684q93 0 159.5 -48.5t97 -123.5t30.5 -167q0 -170 -81 -262.5t-216 -92.5t-210.5 97.5t-75.5 246.5q0 151 80.5 250.5t215.5 99.5zM324 565q-65 0 -101.5 -63t-36.5 -166q0 -104 37 -165.5t102 -61.5q64 0 100 64t36 167q0 96 -36 160.5t-101 64.5zM324 -214h-1
q-27 0 -46.5 20t-19.5 47q0 28 20 47.5t48 19.5q27 0 46 -19.5t19 -47.5q0 -27 -19.5 -47t-46.5 -20z" />
    <glyph glyph-name="uni1ECD" unicode="&#x1ecd;" horiz-adv-x="533" 
d="M272 500q104 0 166.5 -69.5t62.5 -181.5q0 -67 -20.5 -119t-55 -81.5t-75 -44t-85.5 -14.5q-103 0 -168 67.5t-65 184.5q0 120 66.5 189t173.5 69zM268 394q-45 0 -66.5 -44t-21.5 -105q0 -66 23 -107.5t66 -41.5q39 0 61 42t22 107q0 61 -20.5 105t-63.5 44zM267 -80
q28 0 46.5 -19.5t18.5 -48.5q0 -30 -18.5 -49.5t-47.5 -19.5q-28 0 -47.5 20t-19.5 49t19.5 48.5t48.5 19.5z" />
    <glyph glyph-name="uni1ECE" unicode="&#x1ece;" horiz-adv-x="646" 
d="M328 684q93 0 159.5 -48.5t97 -123.5t30.5 -167q0 -170 -81 -262.5t-216 -92.5t-210.5 97.5t-75.5 246.5q0 151 80.5 250.5t215.5 99.5zM324 565q-65 0 -101.5 -63t-36.5 -166q0 -104 37 -165.5t102 -61.5q64 0 100 64t36 167q0 96 -36 160.5t-101 64.5zM356 706l-68 14
q7 21 27.5 44.5t20.5 39.5q0 13 -8 21.5t-21 8.5q-21 0 -42 -33l-46 30q38 76 116 76q39 0 66 -24.5t27 -58.5q0 -25 -12 -43t-31.5 -37.5t-28.5 -37.5z" />
    <glyph glyph-name="uni1ECF" unicode="&#x1ecf;" horiz-adv-x="533" 
d="M272 500q104 0 166.5 -69.5t62.5 -181.5q0 -67 -20.5 -119t-55 -81.5t-75 -44t-85.5 -14.5q-103 0 -168 67.5t-65 184.5q0 120 66.5 189t173.5 69zM268 394q-45 0 -66.5 -44t-21.5 -105q0 -66 23 -107.5t66 -41.5q39 0 61 42t22 107q0 61 -20.5 105t-63.5 44zM292 526
l-70 15q6 24 29.5 52.5t23.5 46.5q0 14 -8.5 23t-20.5 9q-22 0 -42 -33l-47 31q36 76 116 76q41 0 68 -24t27 -61q0 -28 -14 -50.5t-34 -44.5t-28 -40z" />
    <glyph glyph-name="uni1ED0" unicode="&#x1ed0;" horiz-adv-x="646" 
d="M328 684q93 0 159.5 -48.5t97 -123.5t30.5 -167q0 -170 -81 -262.5t-216 -92.5t-210.5 97.5t-75.5 246.5q0 151 80.5 250.5t215.5 99.5zM324 565q-65 0 -101.5 -63t-36.5 -166q0 -104 37 -165.5t102 -61.5q64 0 100 64t36 167q0 96 -36 160.5t-101 64.5zM281 829h102
l86 -119h-95l-41 60h-2l-41 -60h-93zM492 911h126l-127 -114h-70z" />
    <glyph glyph-name="uni1ED1" unicode="&#x1ed1;" horiz-adv-x="533" 
d="M272 500q104 0 166.5 -69.5t62.5 -181.5q0 -67 -20.5 -119t-55 -81.5t-75 -44t-85.5 -14.5q-103 0 -168 67.5t-65 184.5q0 120 66.5 189t173.5 69zM268 394q-45 0 -66.5 -44t-21.5 -105q0 -66 23 -107.5t66 -41.5q39 0 61 42t22 107q0 61 -20.5 105t-63.5 44zM221 698
h101l84 -148h-93l-41 84h-2l-40 -84h-94zM442 789h110l-109 -145h-72z" />
    <glyph glyph-name="uni1ED2" unicode="&#x1ed2;" horiz-adv-x="646" 
d="M328 684q93 0 159.5 -48.5t97 -123.5t30.5 -167q0 -170 -81 -262.5t-216 -92.5t-210.5 97.5t-75.5 246.5q0 151 80.5 250.5t215.5 99.5zM324 565q-65 0 -101.5 -63t-36.5 -166q0 -104 37 -165.5t102 -61.5q64 0 100 64t36 167q0 96 -36 160.5t-101 64.5zM356 898h126
l64 -114h-75zM277 829h102l85 -119h-95l-41 60h-2l-41 -60h-92z" />
    <glyph glyph-name="uni1ED3" unicode="&#x1ed3;" horiz-adv-x="533" 
d="M272 500q104 0 166.5 -69.5t62.5 -181.5q0 -67 -20.5 -119t-55 -81.5t-75 -44t-85.5 -14.5q-103 0 -168 67.5t-65 184.5q0 120 66.5 189t173.5 69zM268 394q-45 0 -66.5 -44t-21.5 -105q0 -66 23 -107.5t66 -41.5q39 0 61 42t22 107q0 61 -20.5 105t-63.5 44zM311 791
h109l61 -147h-72zM222 698h101l84 -148h-93l-41 84h-2l-40 -84h-94z" />
    <glyph glyph-name="uni1ED4" unicode="&#x1ed4;" horiz-adv-x="646" 
d="M328 684q93 0 159.5 -48.5t97 -123.5t30.5 -167q0 -170 -81 -262.5t-216 -92.5t-210.5 97.5t-75.5 246.5q0 151 80.5 250.5t215.5 99.5zM324 565q-65 0 -101.5 -63t-36.5 -166q0 -104 37 -165.5t102 -61.5q64 0 100 64t36 167q0 96 -36 160.5t-101 64.5zM283 829h102
l85 -119h-94l-41 60h-2l-41 -60h-93zM507 757l-56 13q7 20 27 43t20 38q0 13 -8 21t-20 8q-24 0 -43 -34l-42 27q36 71 107 71q36 0 60.5 -22t24.5 -54q0 -23 -11.5 -39.5t-30.5 -35t-28 -36.5z" />
    <glyph glyph-name="uni1ED5" unicode="&#x1ed5;" horiz-adv-x="533" 
d="M272 500q104 0 166.5 -69.5t62.5 -181.5q0 -67 -20.5 -119t-55 -81.5t-75 -44t-85.5 -14.5q-103 0 -168 67.5t-65 184.5q0 120 66.5 189t173.5 69zM268 394q-45 0 -66.5 -44t-21.5 -105q0 -66 23 -107.5t66 -41.5q39 0 61 42t22 107q0 61 -20.5 105t-63.5 44zM219 698
h101l84 -148h-93l-41 84h-2l-40 -84h-94zM442 628l-62 13q7 20 26 42t19 37q0 12 -8 20t-19 8q-22 0 -40 -32l-42 29q35 70 107 70q36 0 61.5 -23t25.5 -54t-30.5 -63.5t-37.5 -46.5z" />
    <glyph glyph-name="uni1ED6" unicode="&#x1ed6;" horiz-adv-x="646" 
d="M328 684q93 0 159.5 -48.5t97 -123.5t30.5 -167q0 -170 -81 -262.5t-216 -92.5t-210.5 97.5t-75.5 246.5q0 151 80.5 250.5t215.5 99.5zM324 565q-65 0 -101.5 -63t-36.5 -166q0 -104 37 -165.5t102 -61.5q64 0 100 64t36 167q0 96 -36 160.5t-101 64.5zM272 829h110
l96 -119h-103l-47 59h-2l-47 -59h-102zM263 845h-67q-2 49 19 79t59 30q23 0 61 -19q32 -16 42 -16q12 0 18 7.5t7 29.5h66q3 -110 -78 -110q-21 0 -63 20q-28 14 -40 14q-21 0 -24 -35z" />
    <glyph glyph-name="uni1ED7" unicode="&#x1ed7;" horiz-adv-x="533" 
d="M272 500q104 0 166.5 -69.5t62.5 -181.5q0 -67 -20.5 -119t-55 -81.5t-75 -44t-85.5 -14.5q-103 0 -168 67.5t-65 184.5q0 120 66.5 189t173.5 69zM268 394q-45 0 -66.5 -44t-21.5 -105q0 -66 23 -107.5t66 -41.5q39 0 61 42t22 107q0 61 -20.5 105t-63.5 44zM215 674
h103l90 -124h-95l-45 67h-2l-45 -67h-97zM202 690h-68q-1 49 20 79t59 30q25 0 61 -18q27 -16 42 -16q23 0 25 37h66q3 -111 -78 -111q-23 0 -63 21q-28 14 -40 14q-21 0 -24 -36z" />
    <glyph glyph-name="uni1ED8" unicode="&#x1ed8;" horiz-adv-x="646" 
d="M328 684q93 0 159.5 -48.5t97 -123.5t30.5 -167q0 -170 -81 -262.5t-216 -92.5t-210.5 97.5t-75.5 246.5q0 151 80.5 250.5t215.5 99.5zM324 565q-65 0 -101.5 -63t-36.5 -166q0 -104 37 -165.5t102 -61.5q64 0 100 64t36 167q0 96 -36 160.5t-101 64.5zM268 829h111
l96 -119h-104l-47 59h-2l-46 -59h-102zM324 -214h-1q-27 0 -46.5 20t-19.5 47q0 28 20 47.5t48 19.5q27 0 46 -19.5t19 -47.5q0 -27 -19.5 -47t-46.5 -20z" />
    <glyph glyph-name="uni1ED9" unicode="&#x1ed9;" horiz-adv-x="533" 
d="M272 500q104 0 166.5 -69.5t62.5 -181.5q0 -67 -20.5 -119t-55 -81.5t-75 -44t-85.5 -14.5q-103 0 -168 67.5t-65 184.5q0 120 66.5 189t173.5 69zM268 394q-45 0 -66.5 -44t-21.5 -105q0 -66 23 -107.5t66 -41.5q39 0 61 42t22 107q0 61 -20.5 105t-63.5 44zM217 698h99
l95 -148h-96l-47 85h-2l-47 -85h-97zM267 -80q28 0 46.5 -19.5t18.5 -48.5q0 -30 -18.5 -49.5t-47.5 -19.5q-28 0 -47.5 20t-19.5 49t19.5 48.5t48.5 19.5z" />
    <glyph glyph-name="uni1EDA" unicode="&#x1eda;" horiz-adv-x="646" 
d="M325 109q64 0 100 64t36 167q0 96 -36 160.5t-101 64.5t-102 -65t-36 -163q-1 -100 36 -164t103 -64zM535 738l103 17q23 -44 23 -97q0 -45 -24.5 -74t-72.5 -32q51 -85 51 -207q0 -170 -81 -262.5t-216 -92.5t-210.5 97.5t-75.5 246.5q0 151 80.5 250.5t215.5 99.5
q60 0 110 -19q11 -4 30.5 -13.5t33 -15t23.5 -5.5q31 0 31 35q0 32 -21 72zM341 830h152l-123 -120h-113z" />
    <glyph glyph-name="uni1EDB" unicode="&#x1edb;" horiz-adv-x="541" 
d="M268 394q-45 0 -66.5 -44t-21.5 -105q0 -66 23 -107.5t66 -41.5q39 0 61 42t22 107q0 61 -20.5 105t-63.5 44zM434 563l102 16q22 -44 22 -92q0 -43 -23 -69t-66 -32q32 -56 32 -137q0 -67 -20.5 -119t-55 -81.5t-75 -44t-85.5 -14.5q-103 0 -168 67.5t-65 184.5
q0 120 66.5 189t173.5 69q36 0 81 -13q8 -3 23 -10t27 -11t22 -4q30 0 30 33t-21 68zM281 698h132l-115 -148h-98z" />
    <glyph glyph-name="uni1EDC" unicode="&#x1edc;" horiz-adv-x="646" 
d="M325 109q64 0 100 64t36 167q0 96 -36 160.5t-101 64.5t-102 -65t-36 -163q-1 -100 36 -164t103 -64zM535 738l103 17q23 -44 23 -97q0 -45 -24.5 -74t-72.5 -32q51 -85 51 -207q0 -170 -81 -262.5t-216 -92.5t-210.5 97.5t-75.5 246.5q0 151 80.5 250.5t215.5 99.5
q60 0 110 -19q11 -4 30.5 -13.5t33 -15t23.5 -5.5q31 0 31 35q0 32 -21 72zM167 830h152l83 -119h-113z" />
    <glyph glyph-name="uni1EDD" unicode="&#x1edd;" horiz-adv-x="541" 
d="M268 394q-45 0 -66.5 -44t-21.5 -105q0 -66 23 -107.5t66 -41.5q39 0 61 42t22 107q0 61 -20.5 105t-63.5 44zM434 563l102 16q22 -44 22 -92q0 -43 -23 -69t-66 -32q32 -56 32 -137q0 -67 -20.5 -119t-55 -81.5t-75 -44t-85.5 -14.5q-103 0 -168 67.5t-65 184.5
q0 120 66.5 189t173.5 69q36 0 81 -13q8 -3 23 -10t27 -11t22 -4q30 0 30 33t-21 68zM124 698h133l81 -148h-98z" />
    <glyph glyph-name="uni1EDE" unicode="&#x1ede;" horiz-adv-x="646" 
d="M325 109q64 0 100 64t36 167q0 96 -36 160.5t-101 64.5t-102 -65t-36 -163q-1 -100 36 -164t103 -64zM535 738l103 17q23 -44 23 -97q0 -45 -24.5 -74t-72.5 -32q51 -85 51 -207q0 -170 -81 -262.5t-216 -92.5t-210.5 97.5t-75.5 246.5q0 151 80.5 250.5t215.5 99.5
q60 0 110 -19q11 -4 30.5 -13.5t33 -15t23.5 -5.5q31 0 31 35q0 32 -21 72zM356 706l-68 14q7 21 27.5 44.5t20.5 39.5q0 13 -8 21.5t-21 8.5q-21 0 -42 -33l-46 30q38 76 116 76q39 0 66 -24.5t27 -58.5q0 -25 -12 -43t-31.5 -37.5t-28.5 -37.5z" />
    <glyph glyph-name="uni1EDF" unicode="&#x1edf;" horiz-adv-x="541" 
d="M268 394q-45 0 -66.5 -44t-21.5 -105q0 -66 23 -107.5t66 -41.5q39 0 61 42t22 107q0 61 -20.5 105t-63.5 44zM434 563l102 16q22 -44 22 -92q0 -43 -23 -69t-66 -32q32 -56 32 -137q0 -67 -20.5 -119t-55 -81.5t-75 -44t-85.5 -14.5q-103 0 -168 67.5t-65 184.5
q0 120 66.5 189t173.5 69q36 0 81 -13q8 -3 23 -10t27 -11t22 -4q30 0 30 33t-21 68zM292 526l-70 15q6 24 29.5 52.5t23.5 46.5q0 14 -8.5 23t-20.5 9q-22 0 -42 -33l-47 31q36 76 116 76q41 0 68 -24t27 -61q0 -28 -14 -50.5t-34 -44.5t-28 -40z" />
    <glyph glyph-name="uni1EE0" unicode="&#x1ee0;" horiz-adv-x="646" 
d="M325 109q64 0 100 64t36 167q0 96 -36 160.5t-101 64.5t-102 -65t-36 -163q-1 -100 36 -164t103 -64zM535 738l103 17q23 -44 23 -97q0 -45 -24.5 -74t-72.5 -32q51 -85 51 -207q0 -170 -81 -262.5t-216 -92.5t-210.5 97.5t-75.5 246.5q0 151 80.5 250.5t215.5 99.5
q60 0 110 -19q11 -4 30.5 -13.5t33 -15t23.5 -5.5q31 0 31 35q0 32 -21 72zM261 716h-66q-2 59 18 91t55 32q30 0 61 -18q30 -19 42 -19t17.5 8.5t8.5 32.5h65q4 -121 -76 -121q-31 0 -61 17q-29 17 -41 17q-20 0 -23 -40z" />
    <glyph glyph-name="uni1EE1" unicode="&#x1ee1;" horiz-adv-x="541" 
d="M268 394q-45 0 -66.5 -44t-21.5 -105q0 -66 23 -107.5t66 -41.5q39 0 61 42t22 107q0 61 -20.5 105t-63.5 44zM434 563l102 16q22 -44 22 -92q0 -43 -23 -69t-66 -32q32 -56 32 -137q0 -67 -20.5 -119t-55 -81.5t-75 -44t-85.5 -14.5q-103 0 -168 67.5t-65 184.5
q0 120 66.5 189t173.5 69q36 0 81 -13q8 -3 23 -10t27 -11t22 -4q30 0 30 33t-21 68zM197 558h-68q-2 59 19.5 93t58.5 34q27 0 63 -20q30 -18 41 -18q23 0 25 42h66q3 -124 -78 -124q-27 0 -65 20q-30 16 -38 16q-23 0 -24 -43z" />
    <glyph glyph-name="uni1EE2" unicode="&#x1ee2;" horiz-adv-x="646" 
d="M325 109q64 0 100 64t36 167q0 96 -36 160.5t-101 64.5t-102 -65t-36 -163q-1 -100 36 -164t103 -64zM535 738l103 17q23 -44 23 -97q0 -45 -24.5 -74t-72.5 -32q51 -85 51 -207q0 -170 -81 -262.5t-216 -92.5t-210.5 97.5t-75.5 246.5q0 151 80.5 250.5t215.5 99.5
q60 0 110 -19q11 -4 30.5 -13.5t33 -15t23.5 -5.5q31 0 31 35q0 32 -21 72zM324 -214h-1q-27 0 -46.5 20t-19.5 47q0 28 20 47.5t48 19.5q27 0 46 -19.5t19 -47.5q0 -27 -19.5 -47t-46.5 -20z" />
    <glyph glyph-name="uni1EE3" unicode="&#x1ee3;" horiz-adv-x="541" 
d="M268 394q-45 0 -66.5 -44t-21.5 -105q0 -66 23 -107.5t66 -41.5q39 0 61 42t22 107q0 61 -20.5 105t-63.5 44zM434 563l102 16q22 -44 22 -92q0 -43 -23 -69t-66 -32q32 -56 32 -137q0 -67 -20.5 -119t-55 -81.5t-75 -44t-85.5 -14.5q-103 0 -168 67.5t-65 184.5
q0 120 66.5 189t173.5 69q36 0 81 -13q8 -3 23 -10t27 -11t22 -4q30 0 30 33t-21 68zM271 -80q28 0 46.5 -19.5t18.5 -48.5q0 -30 -18.5 -49.5t-47.5 -19.5q-28 0 -47.5 20t-19.5 49t19.5 48.5t48.5 19.5z" />
    <glyph glyph-name="uni1EE4" unicode="&#x1ee4;" horiz-adv-x="627" 
d="M62 674h146v-403q0 -162 105 -162q106 0 106 162v403h146v-389q0 -147 -66 -221t-190 -74q-247 0 -247 296v388zM314 -214h-1q-27 0 -46.5 20t-19.5 47q0 28 20 47.5t48 19.5q27 0 46 -19.5t19 -47.5q0 -27 -19.5 -47t-46.5 -20z" />
    <glyph glyph-name="uni1EE5" unicode="&#x1ee5;" horiz-adv-x="544" 
d="M486 489v-334q0 -71 4 -155h-126l-7 64h-3q-48 -74 -140 -74q-76 0 -118 51.5t-42 157.5v290h146v-268q0 -112 69 -112q24 0 41 14t24 33q6 13 6 35v298h146zM273 -80q28 0 46.5 -19.5t18.5 -48.5q0 -30 -18.5 -49.5t-47.5 -19.5q-28 0 -47.5 20t-19.5 49t19.5 48.5
t48.5 19.5z" />
    <glyph glyph-name="uni1EE6" unicode="&#x1ee6;" horiz-adv-x="627" 
d="M62 674h146v-403q0 -162 105 -162q106 0 106 162v403h146v-389q0 -147 -66 -221t-190 -74q-247 0 -247 296v388zM347 706l-68 14q7 21 27.5 44.5t20.5 39.5q0 13 -8 21.5t-21 8.5q-21 0 -42 -33l-46 30q38 76 116 76q39 0 66 -24.5t27 -58.5q0 -25 -12 -43t-31.5 -37.5
t-28.5 -37.5z" />
    <glyph glyph-name="uni1EE7" unicode="&#x1ee7;" horiz-adv-x="544" 
d="M486 489v-334q0 -71 4 -155h-126l-7 64h-3q-48 -74 -140 -74q-76 0 -118 51.5t-42 157.5v290h146v-268q0 -112 69 -112q24 0 41 14t24 33q6 13 6 35v298h146zM298 526l-70 15q6 24 29.5 52.5t23.5 46.5q0 14 -8.5 23t-20.5 9q-22 0 -42 -33l-47 31q36 76 116 76
q41 0 68 -24t27 -61q0 -28 -14 -50.5t-34 -44.5t-28 -40z" />
    <glyph glyph-name="uni1EE8" unicode="&#x1ee8;" horiz-adv-x="668" 
d="M555 775l103 16q21 -45 21 -91q0 -45 -25 -72t-74 -32l-15 -1v-310q0 -147 -66 -221t-190 -74q-247 0 -247 296v388h146v-403q0 -162 105 -162q106 0 106 162v403h110q26 0 36 8t10 27q0 34 -20 66zM322 830h152l-123 -120h-113z" />
    <glyph glyph-name="uni1EE9" unicode="&#x1ee9;" horiz-adv-x="544" 
d="M456 591l102 17q22 -44 22 -89q0 -42 -23.5 -67t-62.5 -30l-8 -1v-266q0 -71 4 -155h-126l-7 64h-3q-48 -74 -140 -74q-76 0 -118 51.5t-42 157.5v290h146v-268q0 -112 69 -112q24 0 41 14t24 33q6 13 6 35v298h91q46 0 46 38q0 32 -21 64zM301 698h132l-115 -148h-98z
" />
    <glyph glyph-name="uni1EEA" unicode="&#x1eea;" horiz-adv-x="668" 
d="M555 775l103 16q21 -45 21 -91q0 -45 -25 -72t-74 -32l-15 -1v-310q0 -147 -66 -221t-190 -74q-247 0 -247 296v388h146v-403q0 -162 105 -162q106 0 106 162v403h110q26 0 36 8t10 27q0 34 -20 66zM153 830h152l83 -119h-113z" />
    <glyph glyph-name="uni1EEB" unicode="&#x1eeb;" horiz-adv-x="544" 
d="M456 591l102 17q22 -44 22 -89q0 -42 -23.5 -67t-62.5 -30l-8 -1v-266q0 -71 4 -155h-126l-7 64h-3q-48 -74 -140 -74q-76 0 -118 51.5t-42 157.5v290h146v-268q0 -112 69 -112q24 0 41 14t24 33q6 13 6 35v298h91q46 0 46 38q0 32 -21 64zM132 698h133l81 -148h-98z" />
    <glyph glyph-name="uni1EEC" unicode="&#x1eec;" horiz-adv-x="668" 
d="M555 775l103 16q21 -45 21 -91q0 -45 -25 -72t-74 -32l-15 -1v-310q0 -147 -66 -221t-190 -74q-247 0 -247 296v388h146v-403q0 -162 105 -162q106 0 106 162v403h110q26 0 36 8t10 27q0 34 -20 66zM367 706l-68 14q7 21 27.5 44.5t20.5 39.5q0 13 -8 21.5t-21 8.5
q-21 0 -42 -33l-46 30q38 76 116 76q39 0 66 -24.5t27 -58.5q0 -25 -12 -43t-31.5 -37.5t-28.5 -37.5z" />
    <glyph glyph-name="uni1EED" unicode="&#x1eed;" horiz-adv-x="544" 
d="M456 591l102 17q22 -44 22 -89q0 -42 -23.5 -67t-62.5 -30l-8 -1v-266q0 -71 4 -155h-126l-7 64h-3q-48 -74 -140 -74q-76 0 -118 51.5t-42 157.5v290h146v-268q0 -112 69 -112q24 0 41 14t24 33q6 13 6 35v298h91q46 0 46 38q0 32 -21 64zM306 526l-70 15
q6 24 29.5 52.5t23.5 46.5q0 14 -8.5 23t-20.5 9q-22 0 -42 -33l-47 31q36 76 116 76q41 0 68 -24t27 -61q0 -28 -14 -50.5t-34 -44.5t-28 -40z" />
    <glyph glyph-name="uni1EEE" unicode="&#x1eee;" horiz-adv-x="668" 
d="M555 775l103 16q21 -45 21 -91q0 -45 -25 -72t-74 -32l-15 -1v-310q0 -147 -66 -221t-190 -74q-247 0 -247 296v388h146v-403q0 -162 105 -162q106 0 106 162v403h110q26 0 36 8t10 27q0 34 -20 66zM266 716h-66q-2 59 18 91t55 32q30 0 61 -18q30 -19 42 -19t17.5 8.5
t8.5 32.5h65q4 -121 -76 -121q-31 0 -61 17q-29 17 -41 17q-20 0 -23 -40z" />
    <glyph glyph-name="uni1EEF" unicode="&#x1eef;" horiz-adv-x="544" 
d="M456 591l102 17q22 -44 22 -89q0 -42 -23.5 -67t-62.5 -30l-8 -1v-266q0 -71 4 -155h-126l-7 64h-3q-48 -74 -140 -74q-76 0 -118 51.5t-42 157.5v290h146v-268q0 -112 69 -112q24 0 41 14t24 33q6 13 6 35v298h91q46 0 46 38q0 32 -21 64zM206 558h-68q-2 59 19.5 93
t58.5 34q27 0 63 -20q30 -18 41 -18q23 0 25 42h66q3 -124 -78 -124q-27 0 -65 20q-30 16 -38 16q-23 0 -24 -43z" />
    <glyph glyph-name="uni1EF0" unicode="&#x1ef0;" horiz-adv-x="668" 
d="M555 775l103 16q21 -45 21 -91q0 -45 -25 -72t-74 -32l-15 -1v-310q0 -147 -66 -221t-190 -74q-247 0 -247 296v388h146v-403q0 -162 105 -162q106 0 106 162v403h110q26 0 36 8t10 27q0 34 -20 66zM335 -80q28 0 46.5 -19.5t18.5 -48.5q0 -30 -18.5 -49.5t-47.5 -19.5
q-28 0 -47.5 20t-19.5 49t19.5 48.5t48.5 19.5z" />
    <glyph glyph-name="uni1EF1" unicode="&#x1ef1;" horiz-adv-x="544" 
d="M456 591l102 17q22 -44 22 -89q0 -42 -23.5 -67t-62.5 -30l-8 -1v-266q0 -71 4 -155h-126l-7 64h-3q-48 -74 -140 -74q-76 0 -118 51.5t-42 157.5v290h146v-268q0 -112 69 -112q24 0 41 14t24 33q6 13 6 35v298h91q46 0 46 38q0 32 -21 64zM271 -80q28 0 46.5 -19.5
t18.5 -48.5q0 -30 -18.5 -49.5t-47.5 -19.5q-28 0 -47.5 20t-19.5 49t19.5 48.5t48.5 19.5z" />
    <glyph glyph-name="Ygrave" unicode="&#x1ef2;" horiz-adv-x="542" 
d="M341 0h-146v271l-193 403h164l61 -162q26 -65 47 -133h2q16 53 46 134l59 161h161l-201 -398v-276zM114 828h152l83 -119h-113z" />
    <glyph glyph-name="ygrave" unicode="&#x1ef3;" horiz-adv-x="483" 
d="M103 698h133l81 -148h-98zM6 489h160l65 -244q9 -32 22 -89h2q2 9 19 88l55 245h152l-110 -338q-42 -123 -77 -191.5t-76 -108.5q-61 -59 -136 -70l-35 124q30 7 66 30q37 24 56 60q8 13 8 22q0 11 -5 23z" />
    <glyph glyph-name="uni1EF4" unicode="&#x1ef4;" horiz-adv-x="542" 
d="M341 0h-146v271l-193 403h164l61 -162q26 -65 47 -133h2q16 53 46 134l59 161h161l-201 -398v-276zM272 -214h-1q-27 0 -46.5 20t-19.5 47q0 28 20 47.5t48 19.5q27 0 46 -19.5t19 -47.5q0 -27 -19.5 -47t-46.5 -20z" />
    <glyph glyph-name="uni1EF5" unicode="&#x1ef5;" horiz-adv-x="483" 
d="M6 489h160l65 -244q9 -32 22 -89h2q2 9 19 88l55 245h152l-110 -338q-42 -123 -77 -191.5t-76 -108.5q-61 -59 -136 -70l-35 124q30 7 66 30q37 24 56 60q8 13 8 22q0 11 -5 23zM377 -80q28 0 46.5 -19.5t18.5 -48.5q0 -30 -18.5 -49.5t-47.5 -19.5q-28 0 -47.5 20
t-19.5 49t19.5 48.5t48.5 19.5z" />
    <glyph glyph-name="uni1EF6" unicode="&#x1ef6;" horiz-adv-x="542" 
d="M341 0h-146v271l-193 403h164l61 -162q26 -65 47 -133h2q16 53 46 134l59 161h161l-201 -398v-276zM304 706l-68 14q7 21 27.5 44.5t20.5 39.5q0 13 -8 21.5t-21 8.5q-21 0 -42 -33l-46 30q38 76 116 76q39 0 66 -24.5t27 -58.5q0 -25 -12 -43t-31.5 -37.5t-28.5 -37.5z
" />
    <glyph glyph-name="uni1EF7" unicode="&#x1ef7;" horiz-adv-x="483" 
d="M6 489h160l65 -244q9 -32 22 -89h2q2 9 19 88l55 245h152l-110 -338q-42 -123 -77 -191.5t-76 -108.5q-61 -59 -136 -70l-35 124q30 7 66 30q37 24 56 60q8 13 8 22q0 11 -5 23zM277 526l-70 15q6 24 29.5 52.5t23.5 46.5q0 14 -8.5 23t-20.5 9q-22 0 -42 -33l-47 31
q36 76 116 76q41 0 68 -24t27 -61q0 -28 -14 -50.5t-34 -44.5t-28 -40z" />
    <glyph glyph-name="uni1EF8" unicode="&#x1ef8;" horiz-adv-x="542" 
d="M341 0h-146v271l-193 403h164l61 -162q26 -65 47 -133h2q16 53 46 134l59 161h161l-201 -398v-276zM204 716h-66q-2 59 18 91t55 32q30 0 61 -18q30 -19 42 -19t17.5 8.5t8.5 32.5h65q4 -121 -76 -121q-31 0 -61 17q-29 17 -41 17q-20 0 -23 -40z" />
    <glyph glyph-name="uni1EF9" unicode="&#x1ef9;" horiz-adv-x="483" 
d="M184 558h-68q-2 59 19.5 93t58.5 34q27 0 63 -20q30 -18 41 -18q23 0 25 42h66q3 -124 -78 -124q-27 0 -65 20q-30 16 -38 16q-23 0 -24 -43zM6 489h160l65 -244q9 -32 22 -89h2q2 9 19 88l55 245h152l-110 -338q-42 -123 -77 -191.5t-76 -108.5q-61 -59 -136 -70
l-35 124q30 7 66 30q37 24 56 60q8 13 8 22q0 11 -5 23z" />
    <glyph glyph-name="endash" unicode="&#x2013;" horiz-adv-x="500" 
d="M30 302h440v-92h-440v92z" />
    <glyph glyph-name="emdash" unicode="&#x2014;" horiz-adv-x="1000" 
d="M30 302h940v-92h-940v92z" />
    <glyph glyph-name="quoteleft" unicode="&#x2018;" horiz-adv-x="239" 
d="M154 426l-133 -10q46 146 118 265l85 9q-52 -148 -70 -264z" />
    <glyph glyph-name="quoteright" unicode="&#x2019;" horiz-adv-x="239" 
d="M88 680l134 10q-46 -146 -118 -265l-85 -9q51 143 69 264z" />
    <glyph glyph-name="quotesinglbase" unicode="&#x201a;" horiz-adv-x="239" 
d="M97 -97l-85 -9q52 148 70 264l133 10q-46 -146 -118 -265z" />
    <glyph glyph-name="quotedblleft" unicode="&#x201c;" horiz-adv-x="419" 
d="M153 426l-134 -10q46 146 118 265l85 9q-51 -143 -69 -264zM336 426l-133 -10q44 144 117 265l85 9q-51 -143 -69 -264z" />
    <glyph glyph-name="quotedblright" unicode="&#x201d;" horiz-adv-x="419" 
d="M86 680l134 10q-46 -146 -118 -265l-85 -9q51 143 69 264zM270 680l133 10q-46 -146 -118 -265l-84 -9q52 152 69 264z" />
    <glyph glyph-name="quotedblbase" unicode="&#x201e;" horiz-adv-x="422" 
d="M95 -97l-84 -9q52 152 69 264l133 10q-46 -146 -118 -265zM279 -97l-85 -9q51 143 69 264l134 10q-46 -146 -118 -265z" />
    <glyph glyph-name="dagger" unicode="&#x2020;" horiz-adv-x="494" 
d="M183 674h129l-11 -197l160 10v-115l-160 11l11 -433h-129l11 433l-160 -11v115l160 -10z" />
    <glyph glyph-name="daggerdbl" unicode="&#x2021;" horiz-adv-x="494" 
d="M183 674h128l-9 -184l159 10v-114l-159 10v-162l159 10v-114l-159 10l9 -190h-128l8 190l-157 -10v114l158 -10v162l-158 -10v114l158 -10z" />
    <glyph glyph-name="bullet" unicode="&#x2022;" horiz-adv-x="323" 
d="M161 139h-1q-51 0 -86 35t-35 88q-1 53 34.5 89t87.5 36t87.5 -35.5t35.5 -88.5q0 -54 -35 -89t-88 -35z" />
    <glyph glyph-name="ellipsis" unicode="&#x2026;" horiz-adv-x="1000" 
d="M166 -10h-1q-36 0 -60 25.5t-24 64.5q0 40 24.5 66t61.5 26t61 -25.5t24 -66.5q0 -40 -23.5 -65t-62.5 -25zM500 -10h-1q-36 0 -60.5 25.5t-23.5 64.5q0 40 24 66t61 26q38 0 62 -25t24 -67q0 -40 -23.5 -65t-62.5 -25zM834 -10h-1q-37 0 -61 25t-24 65t24.5 66t61.5 26
q38 0 61.5 -25t24.5 -67q0 -40 -24 -65t-62 -25z" />
    <glyph glyph-name="perthousand" unicode="&#x2030;" horiz-adv-x="1187" 
d="M191 660h1q77 0 118.5 -55.5t41.5 -138.5q0 -98 -48 -152t-117 -54q-72 0 -117 55t-46 142q0 87 45.5 145t121.5 58zM189 581h-1q-29 0 -43.5 -33t-14.5 -88q-1 -56 14.5 -88.5t45.5 -32.5q57 0 57 121t-58 121zM261 -11h-78l367 671h77zM627 392h1q77 0 118.5 -55.5
t41.5 -139.5q0 -97 -48 -151t-116 -54q-72 0 -117.5 55t-45.5 141q0 87 45.5 145.5t120.5 58.5zM625 313h-1q-29 0 -43.5 -33t-14.5 -88q-1 -56 15 -88.5t45 -32.5q57 0 57 121t-58 121zM1000 392h1q77 0 118.5 -55.5t41.5 -139.5q0 -97 -48 -151t-116 -54q-72 0 -117.5 55
t-46.5 141q0 87 46 145.5t121 58.5zM998 313h-1q-29 0 -43.5 -33t-14.5 -88q-1 -56 14.5 -88.5t45.5 -32.5q57 0 57 121t-58 121z" />
    <glyph glyph-name="guilsinglleft" unicode="&#x2039;" horiz-adv-x="255" 
d="M238 441l-116 -189l116 -189h-102l-113 189l113 189h102z" />
    <glyph glyph-name="guilsinglright" unicode="&#x203a;" horiz-adv-x="255" 
d="M133 252l-116 189h101l114 -189l-113 -189h-102z" />
    <glyph glyph-name="fraction" unicode="&#x2044;" horiz-adv-x="123" 
d="M-81 -10h-78l363 670h78z" />
    <glyph glyph-name="zero.superior" unicode="&#x2070;" horiz-adv-x="352" 
d="M176 430h-1q-77 0 -116 56.5t-39 143.5t39 143.5t117 56.5q79 0 117.5 -56.5t38.5 -143.5q0 -89 -39.5 -144.5t-116.5 -55.5zM176 508h1q49 0 49 122q0 123 -50 123t-50 -123q0 -122 50 -122z" />
    <glyph glyph-name="four.superior" unicode="&#x2074;" horiz-adv-x="366" 
d="M297 435h-101v90h-179v62l158 240h122v-229h49v-73h-49v-90zM196 598v72q0 28 4 72h-3q-19 -39 -32 -62l-51 -81l1 -1h81z" />
    <glyph glyph-name="five.superior" unicode="&#x2075;" horiz-adv-x="326" 
d="M282 825v-84h-148l-7 -51q2 0 10.5 0.5t12.5 0.5q64 0 104 -29q44 -31 44 -94q0 -60 -46 -99t-124 -39q-64 0 -108 20l16 76q40 -18 86 -18q29 0 50.5 13.5t21.5 39.5q0 60 -106 60q-20 0 -50 -4l26 208h218z" />
    <glyph glyph-name="six.superior" unicode="&#x2076;" horiz-adv-x="343" 
d="M279 829v-78q-16 2 -36 0q-97 -7 -119 -81l2 -1q30 27 79 27q52 0 84.5 -33.5t32.5 -90.5q0 -61 -42 -101.5t-103 -40.5q-76 0 -116 48.5t-40 120.5q0 110 69 173q58 52 149 56q31 2 40 1zM175 505h1q20 0 32 18t12 45q0 25 -12.5 42.5t-37.5 17.5q-33 0 -46 -31
q-3 -15 -3 -24q0 -27 14.5 -47.5t39.5 -20.5z" />
    <glyph glyph-name="seven.superior" unicode="&#x2077;" horiz-adv-x="311" 
d="M20 825h278v-64l-155 -326h-107l155 305v1h-171v84z" />
    <glyph glyph-name="eight.superior" unicode="&#x2078;" horiz-adv-x="342" 
d="M173 830h1q62 0 96.5 -29t34.5 -71q0 -55 -56 -84v-2q30 -11 50.5 -35.5t20.5 -59.5q0 -54 -41.5 -86.5t-110.5 -32.5q-71 0 -108.5 32t-37.5 76q0 63 69 96v1q-57 29 -57 85q0 49 39.5 79.5t99.5 30.5zM172 499h1q19 0 32 12.5t13 32.5q0 44 -54 58q-41 -16 -41 -54
q0 -20 13.5 -34.5t35.5 -14.5zM171 763h-1q-19 0 -30 -11.5t-11 -28.5q0 -34 49 -50q14 5 24 17.5t10 28.5q0 18 -11 31t-30 13z" />
    <glyph glyph-name="nine.superior" unicode="&#x2079;" horiz-adv-x="338" 
d="M55 431v78q19 -2 39 0q46 3 73 20q37 23 47 64l-1 1q-26 -24 -73 -24q-50 0 -85 32.5t-35 87.5q0 58 42 99t105 41q74 0 112 -48t38 -119q0 -116 -68 -179q-54 -48 -155 -53h-13.5h-15h-10.5zM167 756h-1q-19 0 -32 -17t-13 -44q0 -24 12.5 -41t35.5 -17q30 0 42 22
q4 7 4 27q0 70 -48 70z" />
    <glyph glyph-name="parenleft.superior" unicode="&#x207d;" horiz-adv-x="192" 
d="M107 862h72q-60 -108 -60 -241q0 -131 60 -239h-72q-70 99 -70 239q0 142 70 241z" />
    <glyph glyph-name="parenright.superior" unicode="&#x207e;" horiz-adv-x="192" 
d="M85 382h-73q60 106 60 240q0 135 -60 240h73q69 -100 69 -240q0 -141 -69 -240z" />
    <glyph glyph-name="zero.inferior" unicode="&#x2080;" horiz-adv-x="352" 
d="M176 -152h-1q-77 0 -116 56.5t-39 143.5t39 143.5t117 56.5q79 0 117.5 -56.5t38.5 -143.5q0 -89 -39.5 -144.5t-116.5 -55.5zM176 -74h1q49 0 49 122q0 123 -50 123t-50 -123q0 -122 50 -122z" />
    <glyph glyph-name="one.inferior" unicode="&#x2081;" horiz-adv-x="282" 
d="M222 -147h-110v299h-2l-77 -35l-16 79l108 47h97v-390z" />
    <glyph glyph-name="two.inferior" unicode="&#x2082;" horiz-adv-x="328" 
d="M13 -147v56l57 55q46 45 61.5 60.5t31.5 40.5t16 46q0 23 -15 36.5t-41 13.5q-44 0 -80 -27l-27 74q53 40 135 40q70 0 107 -33.5t37 -84.5q0 -34 -18 -66.5t-37.5 -52t-56.5 -51.5l-22 -20v-2h141v-85h-289z" />
    <glyph glyph-name="three.inferior" unicode="&#x2083;" horiz-adv-x="321" 
d="M43 148l-20 71q51 29 127 29q66 0 101 -27.5t35 -69.5q0 -65 -77 -90v-2q39 -5 65 -30t26 -62q0 -52 -47 -85.5t-125 -33.5q-76 0 -119 26l19 75q44 -24 89 -24q29 0 48.5 13.5t19.5 34.5q-1 25 -25 38.5t-58 13.5h-25v66h22q29 0 52.5 10.5t23.5 32.5q0 37 -50 37
q-42 0 -82 -23z" />
    <glyph glyph-name="four.inferior" unicode="&#x2084;" horiz-adv-x="366" 
d="M297 -147h-101v90h-179v62l158 240h122v-229h49v-73h-49v-90zM196 16v72q0 28 4 72h-3q-19 -39 -32 -62l-51 -81l1 -1h81z" />
    <glyph glyph-name="five.inferior" unicode="&#x2085;" horiz-adv-x="326" 
d="M282 243v-84h-148l-7 -51q2 0 10.5 0.5t12.5 0.5q64 0 104 -29q44 -31 44 -94q0 -60 -46 -99t-124 -39q-64 0 -108 20l16 76q40 -18 86 -18q29 0 50.5 13.5t21.5 39.5q0 60 -106 60q-20 0 -50 -4l26 208h218z" />
    <glyph glyph-name="six.inferior" unicode="&#x2086;" horiz-adv-x="343" 
d="M279 247v-78q-16 2 -36 0q-97 -7 -119 -81l2 -1q30 27 79 27q52 0 84.5 -33.5t32.5 -90.5q0 -61 -42 -101.5t-103 -40.5q-76 0 -116 48.5t-40 120.5q0 110 69 173q58 52 149 56q31 2 40 1zM175 -77h1q20 0 32 18t12 45q0 25 -12.5 42.5t-37.5 17.5q-33 0 -46 -31
q-3 -15 -3 -24q0 -27 14.5 -47.5t39.5 -20.5z" />
    <glyph glyph-name="seven.inferior" unicode="&#x2087;" horiz-adv-x="311" 
d="M20 243h278v-64l-155 -326h-107l155 305v1h-171v84z" />
    <glyph glyph-name="eight.inferior" unicode="&#x2088;" horiz-adv-x="342" 
d="M173 248h1q62 0 96.5 -29t34.5 -71q0 -55 -56 -84v-2q30 -11 50.5 -35.5t20.5 -59.5q0 -54 -41.5 -86.5t-110.5 -32.5q-71 0 -108.5 32t-37.5 76q0 63 69 96v1q-57 29 -57 85q0 49 39.5 79.5t99.5 30.5zM172 -83h1q19 0 32 12.5t13 32.5q0 44 -54 58q-41 -16 -41 -54
q0 -20 13.5 -34.5t35.5 -14.5zM171 181h-1q-19 0 -30 -11.5t-11 -28.5q0 -34 49 -50q14 5 24 17.5t10 28.5q0 18 -11 31t-30 13z" />
    <glyph glyph-name="nine.inferior" unicode="&#x2089;" horiz-adv-x="338" 
d="M55 -151v78q19 -2 39 0q46 3 73 20q37 23 47 64l-1 1q-26 -24 -73 -24q-50 0 -85 32.5t-35 87.5q0 58 42 99t105 41q74 0 112 -48t38 -119q0 -116 -68 -179q-54 -48 -155 -53h-13.5h-15h-10.5zM167 174h-1q-19 0 -32 -17t-13 -44q0 -24 12.5 -41t35.5 -17q30 0 42 22
q4 7 4 27q0 70 -48 70z" />
    <glyph glyph-name="parenleft.inferior" unicode="&#x208d;" horiz-adv-x="192" 
d="M107 280h72q-60 -108 -60 -241q0 -131 60 -239h-72q-70 99 -70 239q0 142 70 241z" />
    <glyph glyph-name="parenright.inferior" unicode="&#x208e;" horiz-adv-x="192" 
d="M85 -200h-73q60 106 60 240q0 135 -60 240h73q69 -100 69 -240q0 -141 -69 -240z" />
    <glyph glyph-name="dong" unicode="&#x20ab;" horiz-adv-x="516" 
d="M81 106h358v-87h-358v87zM313 671h123v-58h57v-71h-57v-282q0 -67 3 -106h-109l-6 49h-2q-33 -56 -110 -56q-68 0 -111.5 51t-43.5 131q0 86 47 136.5t115 50.5q64 0 92 -38h2v64h-110v71h110v58zM313 305v56q0 13 -2 19q-4 20 -20.5 34t-39.5 14q-34 0 -51.5 -27
t-17.5 -70q0 -44 18.5 -68.5t49.5 -24.5q21 0 38 12t21 32q4 8 4 23z" />
    <glyph glyph-name="Euro" unicode="&#x20ac;" horiz-adv-x="516" 
d="M469 134l21 -110q-58 -34 -141 -34q-141 0 -218 101q-46 55 -60 143h-60v70h52v16q0 5 0.5 15.5t0.5 15.5h-53v70h63q15 78 64 139q83 100 217 100q72 0 132 -27l-26 -113q-46 23 -98 23q-69 0 -109 -51q-22 -27 -31 -71h220v-70h-233q-1 -10 -1 -32v-15h234v-70h-223
q9 -49 32 -77q39 -47 115 -47q58 0 102 24z" />
    <glyph glyph-name="afii61289" unicode="&#x2113;" horiz-adv-x="525" 
d="M244 484v-126q81 97 81 186q0 67 -37 67q-44 0 -44 -127zM432 180l65 -65q-73 -126 -214 -126q-150 0 -175 149q-1 2 -1 6q-23 -17 -47 -31l-37 76q48 33 82 60v226q0 118 48.5 177t129.5 59q68 0 108.5 -44.5t40.5 -120.5q0 -83 -45.5 -158t-142.5 -162v-20
q0 -96 76 -96q56 0 112 70z" />
    <glyph glyph-name="afii61352" unicode="&#x2116;" horiz-adv-x="904" 
d="M717 638h1q74 0 116.5 -47t42.5 -123q0 -90 -46 -133t-116 -43q-73 0 -118 45.5t-45 125.5q0 82 45.5 128.5t119.5 46.5zM715 565h-1q-26 0 -39 -32t-13 -70q0 -42 14.5 -70t38.5 -28q52 0 52 100q0 40 -13 70t-39 30zM853 181h-275v72h275v-72zM188 0h-125v652h151
l99 -245q35 -85 79 -211h1q-11 145 -11 285v171h125v-652h-143l-102 249q-16 39 -78 216h-3q7 -135 7 -291v-174z" />
    <glyph glyph-name="trademark" unicode="&#x2122;" horiz-adv-x="616" 
d="M26 674h224v-66h-72v-207h-81v207h-71v66zM605 401h-77l-5 120v29.5v39v37.5h-5q-8 -44 -21 -106l-26 -115h-76l-22 116q-15 95 -16 105h-5q-3 -102 -3 -106l-5 -120h-75l16 273h123l17 -66q10 -56 14 -88h1q6 33 18 87l18 67h115z" />
    <glyph glyph-name="Omega" unicode="&#x2126;" horiz-adv-x="681" 
d="M527 116v-3h123v-113h-272v86q47 41 78 109t31 157t-39.5 151t-105.5 62t-107 -61.5t-41 -152.5q0 -82 32 -156.5t77 -108.5v-86h-273v113h121v3q-108 106 -108 256q0 132 84.5 222t218.5 90q137 0 214 -90t77 -212q0 -154 -110 -266z" />
    <glyph glyph-name="estimated" unicode="&#x212e;" horiz-adv-x="817" 
d="M782 316h-605q-5 0 -5 -4v-183q0 -10 9 -21q93 -99 229 -99q145 0 240 111h55q-52 -61 -130 -96t-166 -35q-155 0 -264.5 98.5t-109.5 237.5t109.5 237.5t264.5 98.5t264 -98.5t109 -237.5v-9zM646 340v184q0 12 -10 22q-95 95 -226 95q-133 0 -228 -98q-10 -10 -10 -23
v-180q0 -5 5 -5h464q5 0 5 5z" />
    <glyph glyph-name="partialdiff" unicode="&#x2202;" horiz-adv-x="375" 
d="M87 580l-42 99q79 53 183 53q119 0 199.5 -96.5t80.5 -258.5q0 -185 -80.5 -286t-199.5 -101q-98 0 -152.5 65.5t-54.5 153.5q0 109 59 179.5t152 70.5q46 0 80 -20t51 -46h1q1 4 1 15q0 92 -44 148.5t-114 56.5q-69 0 -120 -33zM243 107h1q40 0 71 52t37 121
q-8 26 -31.5 45.5t-54.5 19.5q-43 0 -71 -40t-28 -99q0 -47 21.5 -73t54.5 -26z" />
    <glyph glyph-name="Delta" unicode="&#x2206;" horiz-adv-x="578" 
d="M543 0h-508v73l172 579h171l165 -578v-74zM391 120l-65 234q-18 72 -39 170h-3q-20 -93 -37 -162l-67 -242h211z" />
    <glyph glyph-name="product" unicode="&#x220f;" horiz-adv-x="613" 
d="M602 528h-85v-618h-134v618h-156v-618h-135v618h-84v122h594v-122z" />
    <glyph glyph-name="summation" unicode="&#x2211;" horiz-adv-x="504" 
d="M498 -90h-484v84l200 285l-191 277v94h452v-121h-269v-4l162 -240l-173 -249v-4h303v-122z" />
    <glyph glyph-name="minus" unicode="&#x2212;" horiz-adv-x="596" 
d="M40 312h516v-90h-516v90z" />
    <glyph glyph-name="uni2215" unicode="&#x2215;" horiz-adv-x="123" 
d="M-81 -10h-78l363 670h78z" />
    <glyph glyph-name="uni2219" unicode="&#x2219;" horiz-adv-x="252" 
d="M126 172h-1q-36 0 -60.5 25.5t-24.5 64.5q0 40 24.5 65.5t61.5 25.5q38 0 61.5 -25t24.5 -66q0 -40 -24 -65t-62 -25z" />
    <glyph glyph-name="radical" unicode="&#x221a;" horiz-adv-x="574" 
d="M586 838l-216 -916h-98l-147 410l-78 -29l-23 66l171 67l98 -292q11 -34 23 -87h1q1 7 4 24t6 34.5t7 32.5l155 690h97z" />
    <glyph glyph-name="infinity" unicode="&#x221e;" horiz-adv-x="750" 
d="M554 99h-1q-49 0 -90 27.5t-89 75.5q-60 -58 -89 -75q-46 -28 -98 -28q-70 0 -114.5 47t-44.5 118q0 68 46.5 116.5t120.5 48.5q34 0 70 -18t56.5 -35.5t53.5 -49.5q60 58 89 75q46 28 98 28q70 0 114.5 -47t44.5 -118q0 -68 -47 -116.5t-120 -48.5zM552 187h1
q31 0 52.5 22.5t21.5 54.5q0 33 -21 55t-51 22q-9 0 -18 -2t-16 -4.5t-16.5 -9t-14.5 -9.5t-15.5 -12.5t-13.5 -12t-14.5 -14l-12.5 -12.5q4 -4 19 -19.5t23 -22t22 -17t27 -15t27 -4.5zM194 187h1q22 0 46.5 14t35.5 24.5t38 37.5q-4 4 -19 19.5t-23 22t-22 17t-27 15
t-27 4.5q-31 0 -53 -22.5t-22 -54.5q0 -34 20.5 -55.5t51.5 -21.5z" />
    <glyph glyph-name="integral" unicode="&#x222b;" horiz-adv-x="354" 
d="M342 799l-14 -88q-15 5 -34 5q-29 0 -45 -28q-20 -33 -20 -148q0 -74 6.5 -216.5t6.5 -229.5q0 -128 -32 -186q-39 -72 -127 -72q-43 0 -67 11l16 91q15 -5 36 -5q26 0 41 21q23 33 23 136q0 88 -6.5 234t-6.5 225q0 150 57 213q41 44 110 44q35 0 56 -7z" />
    <glyph glyph-name="approxequal" unicode="&#x2248;" horiz-adv-x="596" 
d="M524 431l51 -60q-27 -40 -69 -65.5t-90 -25.5q-16 0 -31 2t-29 7t-22.5 8t-23.5 10t-19 9t-22 10.5t-27.5 12t-27 7.5t-34.5 4q-58 0 -114 -60l-47 62q68 88 161 88q14 0 27.5 -2t23 -4t21.5 -6.5t18 -7t18.5 -8.5t16.5 -8t27.5 -13t41.5 -16t40 -5q54 0 110 61zM528 220
l49 -58q-27 -41 -69.5 -67t-91.5 -26q-15 0 -29.5 2t-29 7t-22.5 8t-24 10.5t-19 8.5q-4 2 -22 10.5t-27.5 12t-27 7.5t-35.5 4q-58 0 -112 -60l-47 63q27 37 70 62t90 25q14 0 27.5 -2t22.5 -3.5t22.5 -7t18 -7t19 -8.5t15.5 -8q3 -1 27.5 -12.5t42.5 -16.5t40 -5
q60 0 112 61z" />
    <glyph glyph-name="notequal" unicode="&#x2260;" horiz-adv-x="596" 
d="M556 117h-309l-64 -103h-94l66 103h-115v90h173l76 121h-249v90h307l64 104h94l-66 -104h117v-90h-175l-77 -121h252v-90z" />
    <glyph glyph-name="lessequal" unicode="&#x2264;" horiz-adv-x="596" 
d="M537 116l-478 178v88l478 178v-98l-354 -123v-2l354 -123v-98zM537 0h-477v84h477v-84z" />
    <glyph glyph-name="greaterequal" unicode="&#x2265;" horiz-adv-x="596" 
d="M537 294l-478 -178v98l354 123v2l-354 123v98l478 -178v-88zM536 0h-477v84h477v-84z" />
    <glyph glyph-name="lozenge" unicode="&#x25ca;" horiz-adv-x="551" 
d="M512 325l-184 -360h-105l-184 360l184 360h105zM396 322l-108 225q-9 18 -13 31h-2q-6 -15 -14 -31l-104 -220l108 -225q11 -24 13 -31h2q2 5 7 16t7 15z" />
    <glyph glyph-name="G_tildecomb" unicode="&#xe000;" horiz-adv-x="619" 
d="M570 384v-357q-95 -34 -199 -34q-160 0 -246 84q-95 90 -93 253q1 167 101 259t254 92q104 0 164 -29l-29 -120q-53 25 -133 25q-91 0 -147.5 -56t-56.5 -168q0 -106 51.5 -163t134.5 -57q44 0 60 8v147h-91v116h230zM286 716h-66q-2 59 18 91t55 32q30 0 61 -18
q30 -19 42 -19t17.5 8.5t8.5 32.5h65q4 -121 -76 -121q-31 0 -61 17q-29 17 -41 17q-20 0 -23 -40z" />
    <glyph glyph-name="M_uni0302" unicode="&#xe001;" horiz-adv-x="783" 
d="M597 0l-11 251q-6 154 -6 262h-3q-25 -115 -65 -246l-75 -256h-111l-68 253q-33 127 -55 249h-2q-5 -147 -11 -264l-12 -249h-132l44 674h184l62 -231q34 -129 55 -239h3q20 102 57 240l66 230h181l38 -674h-139zM335 829h111l96 -119h-104l-47 59h-2l-46 -59h-102z" />
    <glyph glyph-name="N_uni0302" unicode="&#xe002;" horiz-adv-x="638" 
d="M196 0h-132v674h160l129 -252q51 -95 99 -221h2q-12 126 -12 291v182h132v-674h-148l-131 259q-63 121 -103 227h-3q7 -116 7 -299v-187zM263 829h111l96 -119h-104l-47 59h-2l-46 -59h-102z" />
    <glyph glyph-name="g_tildecomb" unicode="&#xe005;" horiz-adv-x="543" 
d="M481 341v-275q0 -150 -70 -214q-66 -58 -187 -58q-98 0 -160 33l29 111q58 -32 127 -32q54 0 85 31.5t31 94.5v31h-2q-39 -59 -118 -59q-87 0 -139 68t-52 170q0 116 59 187t146 71q80 0 121 -66h2l5 55h127q-4 -70 -4 -148zM335 206v90q0 13 -4 31q-7 26 -25.5 42.5
t-44.5 16.5q-40 0 -64.5 -38.5t-24.5 -102.5q0 -59 23.5 -95.5t64.5 -36.5q25 0 43.5 14.5t26.5 39.5q5 14 5 39zM204 558h-68q-2 59 19.5 93t58.5 34q27 0 63 -20q30 -18 41 -18q23 0 25 42h66q3 -124 -78 -124q-27 0 -65 20q-30 16 -38 16q-23 0 -24 -43z" />
    <glyph glyph-name="m_uni0302" unicode="&#xe006;" horiz-adv-x="806" 
d="M354 698h99l95 -148h-96l-47 85h-2l-47 -85h-97zM56 0v336q0 65 -4 153h124l7 -63h3q49 74 138 74q45 0 78 -21t48 -58h2q24 35 60 56q37 23 85 23q71 0 112 -52.5t41 -152.5v-295h-142v273q0 108 -65 108q-46 0 -63 -50q-5 -13 -5 -38v-293h-143v284q0 97 -63 97
q-46 0 -64 -51q-6 -16 -6 -38v-292h-143z" />
    <glyph glyph-name="n_uni0302" unicode="&#xe007;" horiz-adv-x="547" 
d="M224 698h99l95 -148h-96l-47 85h-2l-47 -85h-97zM56 0v336q0 65 -4 153h127l7 -64h2q49 75 142 75q75 0 118.5 -52.5t43.5 -150.5v-297h-147v282q0 98 -68 98q-50 0 -69 -53q-6 -15 -6 -40v-287h-146z" />
    <glyph glyph-name="zero.slashfitted" unicode="&#xe008;" horiz-adv-x="516" 
d="M176 242l143 261q-18 43 -60 43q-43 0 -67 -56.5t-24 -163.5q0 -47 8 -84zM342 412l-145 -268q22 -40 60 -40q91 0 91 222q0 38 -6 86zM483 643l-49 -79q53 -86 53 -236q0 -159 -60 -248.5t-169 -89.5q-80 0 -133 48l-36 -58l-54 39l47 72q-52 84 -52 232
q0 152 58.5 244.5t172.5 92.5q78 0 128 -44l39 64z" />
    <glyph glyph-name="fi" unicode="&#xe016;" horiz-adv-x="558" 
d="M222 0h-147v383h-65v106h65v23q0 88 65 145.5t180 57.5q87 0 135 -28l-26 -111q-44 23 -105 23q-103 0 -103 -92v-18h281v-489h-146v383h-134v-383z" />
    <glyph glyph-name="fl" unicode="&#xe017;" horiz-adv-x="558" 
d="M222 0h-147v383h-65v106h65v21q0 39 18.5 81t52.5 70q66 54 177 54q107 0 179 -37v-678h-146v596q-20 9 -53 9q-41 0 -61.5 -26.5t-20.5 -68.5v-21h83v-106h-82v-383z" />
    <glyph glyph-name="onesuperior" unicode="&#xe018;" horiz-adv-x="282" 
d="M222 435h-110v299h-2l-77 -35l-16 79l108 47h97v-390z" />
    <glyph glyph-name="twosuperior" unicode="&#xe019;" horiz-adv-x="328" 
d="M13 435v56l57 55q46 45 61.5 60.5t31.5 40.5t16 46q0 23 -15 36.5t-41 13.5q-44 0 -80 -27l-27 74q53 40 135 40q70 0 107 -33.5t37 -84.5q0 -34 -18 -66.5t-37.5 -52t-56.5 -51.5l-22 -20v-2h141v-85h-289z" />
    </font>
</defs>
</svg>
